{"glyphs":{"0":{"ha":1121,"x_min":53,"x_max":1133,"o":"m 861 779 q 935 762 900 779 q 995 716 969 744 q 1036 652 1021 688 q 1051 581 1051 617 l 1051 171 q 1035 107 1051 138 q 993 53 1019 76 q 935 15 967 29 q 871 0 903 0 l 250 0 q 186 15 218 0 q 128 53 154 29 q 86 107 103 76 q 69 171 69 138 l 69 581 q 85 652 69 617 q 126 716 100 688 q 186 762 151 744 q 260 779 221 779 l 861 779 m 457 236 q 464 217 458 229 q 488 204 469 204 l 633 204 q 651 216 642 204 q 664 236 660 228 l 664 531 q 656 558 664 542 q 633 575 649 575 l 485 575 q 464 557 471 572 q 457 531 457 542 l 457 236 m 861 796 l 260 796 q 179 776 217 796 q 113 726 142 757 q 69 658 85 696 q 53 581 53 619 l 53 171 q 78 87 53 126 q 143 19 104 47 l 182 -18 q 247 -64 210 -46 q 319 -82 283 -82 l 940 -82 q 1008 -67 974 -82 q 1071 -26 1043 -51 q 1116 33 1099 0 q 1133 101 1133 65 l 1133 511 q 1115 591 1133 551 q 1067 661 1097 631 l 1029 699 q 958 768 1001 740 q 861 796 914 796 m 539 461 q 544 480 539 469 q 557 493 549 490 l 647 493 l 647 242 q 640 228 644 235 q 633 221 636 221 l 539 221 l 539 461 z "},"1":{"ha":683,"x_min":53,"x_max":696,"o":"m 631 788 l 696 722 l 696 -82 l 282 -82 l 217 -17 l 208 -17 l 208 493 l 126 493 l 61 558 l 53 558 l 53 796 l 631 796 l 631 788 m 614 779 l 69 779 l 69 575 l 225 575 l 225 0 l 614 0 l 614 779 z "},"2":{"ha":1122,"x_min":53,"x_max":1135,"o":"m 1135 399 q 1122 344 1135 371 q 1090 293 1110 317 q 1044 250 1069 269 q 992 221 1018 231 l 1069 221 l 1069 213 l 1135 147 l 1135 -82 l 126 -82 l 61 -17 l 53 -17 l 53 354 q 90 438 53 401 q 176 493 128 475 l 128 493 l 63 558 l 54 558 l 54 796 l 863 796 q 961 768 915 796 q 1035 697 1007 740 l 1072 661 q 1117 597 1100 633 q 1135 519 1135 560 l 1135 399 m 1053 0 l 1053 204 l 460 204 l 460 292 l 872 292 q 931 308 899 292 q 990 349 963 324 q 1035 405 1017 374 q 1053 468 1053 436 l 1053 589 q 1038 659 1053 625 q 996 720 1022 693 q 935 763 969 747 q 863 779 901 779 l 71 779 l 71 575 l 635 575 q 656 560 649 575 q 664 533 664 544 l 664 490 l 247 490 q 188 480 219 490 q 131 451 157 469 q 87 408 104 433 q 69 354 69 383 l 69 0 l 1053 0 z "},"3":{"ha":1063,"x_min":53,"x_max":1075,"o":"m 561 486 q 601 495 590 486 q 611 528 611 504 q 600 561 611 547 q 563 575 589 575 l 69 575 l 69 779 l 782 779 q 872 756 833 779 q 938 699 911 733 q 978 622 964 664 q 992 543 992 581 q 979 462 992 504 q 936 396 967 419 q 981 324 969 367 q 993 236 993 281 q 983 156 993 197 q 947 79 972 114 q 882 22 922 44 q 783 0 842 0 l 69 0 l 69 204 l 564 204 q 601 218 590 204 q 613 251 613 232 q 602 283 613 274 q 563 293 592 293 l 69 293 l 69 486 l 561 486 m 126 -82 l 853 -82 q 958 -58 915 -82 q 1026 1 1000 -35 q 1064 81 1053 38 q 1075 167 1075 125 q 1064 252 1075 211 q 1024 325 1053 293 q 1062 394 1050 353 q 1074 474 1074 435 q 1054 571 1074 519 q 996 661 1035 622 l 958 697 q 885 767 929 739 q 782 796 842 796 l 53 796 l 53 558 l 61 558 l 117 503 l 53 503 l 53 276 l 61 276 l 117 221 l 53 221 l 53 -17 l 61 -17 l 126 -82 z "},"4":{"ha":1342,"x_min":53,"x_max":1354,"o":"m 53 256 l 418 722 l 418 721 q 439 744 426 731 q 467 768 451 757 q 498 788 482 779 q 529 796 514 796 l 1118 796 l 1118 788 l 1183 722 l 1183 328 l 1289 328 l 1289 319 l 1354 254 l 1354 31 l 1183 31 l 1183 -82 l 771 -82 l 706 -17 l 697 -17 l 697 31 l 126 31 l 61 96 l 53 96 l 53 256 m 681 463 q 688 472 685 469 q 697 475 690 475 q 708 469 701 472 q 714 465 714 467 l 714 311 l 569 311 l 681 463 m 69 113 l 714 113 l 714 0 l 1101 0 l 1101 113 l 1272 113 l 1272 311 l 1101 311 l 1101 779 l 529 779 q 499 770 515 779 q 467 749 482 761 q 441 724 453 736 q 424 703 429 711 l 69 250 l 69 113 z "},"5":{"ha":1122,"x_min":53,"x_max":1135,"o":"m 1053 196 q 1038 128 1053 163 q 996 65 1022 93 q 935 18 969 36 q 861 0 900 0 l 69 0 l 69 204 l 633 204 q 655 219 647 204 q 663 246 663 235 l 663 292 l 250 292 q 191 308 222 292 q 133 349 160 324 q 88 405 106 374 q 69 468 69 436 l 69 779 l 1051 779 l 1051 575 l 458 575 l 458 490 l 875 490 q 934 480 903 490 q 992 451 965 469 q 1035 408 1018 433 q 1053 354 1053 383 l 1053 196 m 1133 493 l 1133 722 l 1068 788 l 1068 796 l 53 796 l 53 468 q 83 382 53 425 q 154 311 113 339 l 188 278 q 269 221 225 238 l 53 221 l 53 -17 l 61 -17 l 126 -82 l 931 -82 q 1009 -62 972 -82 q 1074 -13 1046 -43 q 1119 53 1103 17 q 1135 126 1135 90 l 1135 285 q 1124 330 1135 308 q 1096 369 1114 351 l 1051 414 q 1006 460 1035 440 q 946 493 978 481 l 1133 493 z "},"6":{"ha":1147,"x_min":53,"x_max":1160,"o":"m 1111 378 q 1108 381 1111 378 l 1111 378 m 475 236 q 475 239 478 236 l 475 236 m 983 493 q 1035 460 1011 479 q 1074 417 1058 440 l 1115 375 q 1147 332 1135 356 q 1160 282 1160 308 l 1160 101 q 1142 33 1160 65 q 1097 -26 1125 0 q 1035 -67 1069 -51 q 967 -82 1000 -82 l 319 -82 q 247 -64 283 -82 q 183 -18 211 -46 l 143 22 q 78 90 104 50 q 53 171 53 129 l 53 581 q 69 658 53 619 q 113 726 85 696 q 179 776 142 757 q 260 796 217 796 l 1090 796 l 1090 788 l 1156 722 l 1156 493 l 983 493 m 1078 351 q 1060 408 1078 381 q 1016 455 1043 435 q 957 487 989 475 q 897 499 925 499 l 458 499 l 458 531 l 456 531 l 458 533 q 466 560 458 544 q 488 575 474 575 l 1074 575 l 1074 779 l 260 779 q 186 762 221 779 q 126 716 151 744 q 85 652 100 688 q 69 581 69 617 l 69 171 q 86 108 69 139 q 128 54 103 78 q 186 15 154 31 q 250 0 218 0 l 897 0 q 961 15 929 0 q 1019 53 993 29 q 1062 107 1046 76 q 1078 171 1078 138 l 1078 351 m 488 204 q 467 216 472 204 q 458 236 463 228 l 458 293 l 690 293 l 690 236 q 678 216 686 228 q 660 204 671 204 l 488 204 z "},"7":{"ha":1188,"x_min":53,"x_max":1200,"o":"m 663 575 l 69 575 l 69 779 l 1118 779 l 1118 575 l 642 0 l 186 0 l 663 575 m 151 -17 l 164 -17 l 229 -82 l 718 -82 l 1200 500 l 1200 722 l 1135 788 l 1135 796 l 53 796 l 53 558 l 61 558 l 126 493 l 572 493 l 151 -17 z "},"8":{"ha":1124,"x_min":51,"x_max":1138,"o":"m 844 779 q 935 756 896 779 q 1000 699 974 733 q 1040 622 1026 664 q 1054 543 1054 581 q 1042 462 1054 504 q 999 396 1029 419 q 1044 324 1032 367 q 1056 236 1056 281 q 1045 156 1056 197 q 1010 79 1035 114 q 944 22 985 44 q 846 0 904 0 l 278 0 q 179 22 219 0 q 114 79 139 44 q 78 156 89 114 q 68 236 68 197 q 80 324 68 281 q 125 396 92 367 q 82 462 94 419 q 69 543 69 504 q 83 622 69 581 q 124 699 97 664 q 189 756 150 733 q 279 779 228 779 l 844 779 m 449 251 q 460 218 449 232 q 497 204 471 204 l 633 204 q 675 251 675 210 q 666 281 675 271 q 633 293 657 290 l 490 293 q 458 281 467 290 q 449 251 449 271 m 624 486 q 663 495 653 486 q 674 528 674 504 q 663 561 674 547 q 625 575 651 575 l 490 575 q 459 559 468 572 q 450 528 450 546 q 460 495 450 504 q 500 486 471 486 l 624 486 m 844 796 l 279 796 q 181 772 224 796 q 110 710 139 747 q 67 628 82 672 q 53 543 53 583 q 64 466 53 506 q 103 396 75 426 q 62 320 72 361 q 51 236 51 279 q 57 176 51 207 q 75 115 63 144 q 107 60 88 86 q 154 17 126 35 l 194 -24 q 258 -66 221 -50 q 347 -82 296 -82 l 915 -82 q 1020 -58 978 -82 q 1089 1 1063 -35 q 1126 81 1115 38 q 1138 167 1138 125 q 1126 252 1138 211 q 1086 325 1115 293 q 1124 394 1113 353 q 1136 474 1136 435 q 1117 571 1136 519 q 1058 661 1097 622 l 1021 697 q 948 767 992 739 q 844 796 904 796 m 186 317 q 181 322 183 319 q 176 326 179 324 l 186 317 z "},"9":{"ha":1147,"x_min":53,"x_max":1160,"o":"m 53 608 q 71 678 53 644 q 117 738 89 713 q 181 780 146 764 q 250 796 215 796 l 897 796 q 987 768 942 796 q 1061 699 1032 740 l 1103 658 q 1144 602 1128 633 q 1160 539 1160 571 l 1160 129 q 1144 53 1160 92 q 1100 -15 1128 15 q 1035 -63 1072 -44 q 957 -82 999 -82 l 131 -82 l 65 -17 l 57 -17 l 57 221 l 232 221 q 171 265 196 238 l 131 306 q 75 360 97 329 q 53 428 53 392 l 53 608 m 69 428 q 87 372 69 399 q 131 324 104 344 q 190 292 158 304 q 250 281 222 281 l 689 281 l 689 249 l 692 249 l 689 246 q 681 219 689 235 q 660 204 674 204 l 74 204 l 74 0 l 888 0 q 960 17 926 0 q 1021 63 994 35 q 1063 127 1047 92 q 1078 199 1078 163 l 1078 608 q 1061 670 1078 639 q 1019 725 1044 701 q 960 764 993 749 q 897 779 928 779 l 250 779 q 186 765 218 779 q 128 726 154 750 q 85 672 101 703 q 69 608 69 642 l 69 428 m 660 575 q 680 563 675 575 q 689 543 685 551 l 689 486 l 457 486 l 457 543 q 469 563 461 551 q 488 575 476 575 l 660 575 z "}," ":{"ha":533,"x_min":0,"x_max":0,"o":""},"!":{"ha":528,"x_min":53,"x_max":540,"o":"m 458 438 l 426 315 l 100 315 l 69 438 l 69 779 l 458 779 l 458 438 m 100 128 q 113 178 100 154 q 149 219 126 201 q 201 246 171 236 q 264 256 231 256 q 327 246 297 256 q 378 219 357 236 q 413 178 400 201 q 426 128 426 154 q 413 77 426 100 q 378 37 400 54 q 327 10 357 19 q 264 0 297 0 q 201 10 231 0 q 149 37 171 19 q 113 77 126 54 q 100 128 100 100 m 475 796 l 53 796 l 53 433 l 88 299 l 94 299 l 150 240 q 101 192 119 221 q 83 128 83 163 q 101 63 83 92 q 150 15 119 35 l 194 -29 q 255 -67 218 -53 q 333 -82 292 -82 q 401 -71 369 -82 q 457 -41 433 -60 q 494 3 481 -22 q 508 58 508 29 q 471 146 508 108 l 426 190 q 388 233 411 214 l 506 233 l 540 365 l 540 722 l 475 788 l 475 796 z "},"\"":{"ha":756,"x_min":53,"x_max":768,"o":"m 53 651 q 99 753 53 713 q 215 794 146 794 q 301 773 263 794 q 358 717 339 751 l 385 690 q 441 766 399 736 q 542 796 483 796 q 626 775 589 796 q 685 719 664 754 l 729 675 q 768 583 768 636 l 768 443 q 756 388 768 414 q 722 344 743 363 q 672 315 700 325 q 611 304 643 304 q 544 317 575 304 q 492 351 514 329 l 446 396 l 444 396 q 435 403 440 400 q 380 331 422 358 q 285 303 338 303 q 218 315 249 303 q 165 350 188 328 l 122 393 q 72 443 90 413 q 53 511 53 474 l 53 651 m 69 511 q 81 462 69 485 q 112 422 92 439 q 158 394 132 404 q 215 385 185 385 q 271 394 244 385 q 317 422 297 404 q 349 462 338 439 q 360 511 360 485 l 360 651 q 349 701 360 678 q 317 741 338 724 q 271 768 297 758 q 215 778 244 778 q 158 768 185 778 q 112 741 132 758 q 81 701 92 724 q 69 651 69 678 l 69 511 m 396 513 q 407 463 396 486 q 438 423 418 440 q 485 396 458 406 q 542 386 511 386 q 597 396 571 386 q 644 423 624 406 q 675 463 664 440 q 686 513 686 486 l 686 653 q 675 702 686 679 q 644 742 664 725 q 597 769 624 760 q 542 779 571 779 q 485 769 511 779 q 438 742 458 760 q 407 702 418 725 q 396 653 396 679 l 396 513 z "},"#":{"ha":1221,"x_min":53,"x_max":1233,"o":"m 1151 629 l 1151 431 l 1058 431 l 1058 349 l 1151 349 l 1151 150 l 1058 150 l 1058 0 l 669 0 l 669 150 l 551 150 l 551 0 l 163 0 l 163 150 l 69 150 l 69 349 l 163 349 l 163 431 l 69 431 l 69 629 l 163 629 l 163 779 l 551 779 l 551 629 l 669 629 l 669 779 l 1058 779 l 1058 629 l 1151 629 m 669 349 l 669 431 l 551 431 l 551 349 l 669 349 m 1075 796 l 653 796 l 653 646 l 633 646 l 633 722 l 568 788 l 568 796 l 146 796 l 146 646 l 53 646 l 53 414 l 61 414 l 110 365 l 53 365 l 53 133 l 61 133 l 126 68 l 146 68 l 146 -17 l 154 -17 l 219 -82 l 633 -82 l 633 68 l 653 68 l 653 -17 l 661 -17 l 726 -82 l 1140 -82 l 1140 68 l 1233 68 l 1233 292 l 1176 349 l 1233 349 l 1233 572 l 1168 638 l 1168 646 l 1140 646 l 1140 722 l 1075 788 l 1075 796 z "},"$":{"ha":1122,"x_min":53,"x_max":1135,"o":"m 733 893 l 733 885 l 799 819 l 799 760 l 1068 760 l 1068 751 l 1133 686 l 1133 457 l 1011 457 q 1051 414 1033 439 l 1096 369 q 1124 330 1114 351 q 1135 285 1135 308 l 1135 167 q 1119 94 1135 131 q 1074 27 1103 57 q 1009 -22 1046 -3 q 931 -42 972 -42 l 797 -42 l 797 -165 l 461 -165 l 396 -100 l 388 -100 l 388 -42 l 126 -42 l 61 24 l 53 24 l 53 261 l 204 261 q 196 269 200 264 q 188 278 192 274 l 154 311 q 83 382 113 339 q 53 468 53 425 l 53 553 q 69 629 53 592 q 113 696 85 667 q 179 742 142 725 q 260 760 217 760 l 389 760 l 389 893 l 733 893 m 406 876 l 406 743 l 260 743 q 186 727 221 743 q 126 684 151 711 q 85 623 100 657 q 69 553 69 589 l 69 468 q 88 405 69 436 q 133 349 106 374 q 191 308 160 324 q 250 292 222 292 l 663 292 l 663 275 q 655 254 663 264 q 633 244 647 244 l 69 244 l 69 40 l 404 40 l 404 -83 l 715 -83 l 715 40 l 861 40 q 935 58 900 40 q 996 105 969 76 q 1038 168 1022 133 q 1053 236 1053 203 l 1053 354 q 1035 408 1053 383 q 992 451 1018 433 q 934 480 965 469 q 875 490 903 490 l 458 490 l 458 508 q 466 529 458 519 q 488 539 474 539 l 1051 539 l 1051 743 l 717 743 l 717 876 l 406 876 z "},"%":{"ha":1357,"x_min":53,"x_max":1369,"o":"m 1193 389 q 1230 380 1213 389 q 1260 357 1247 371 q 1280 326 1272 343 q 1288 290 1288 308 l 1288 85 q 1279 53 1288 68 q 1258 26 1271 38 q 1230 7 1246 14 q 1197 0 1214 0 l 874 0 q 842 7 858 0 q 813 26 826 14 q 792 53 800 38 q 783 85 783 68 l 783 288 l 522 0 l 128 0 l 481 389 l 160 389 q 128 396 144 389 q 99 415 113 403 q 78 442 86 426 q 69 474 69 457 l 69 679 q 77 715 69 697 q 98 746 85 732 q 128 769 111 760 q 165 778 146 778 l 479 778 q 516 769 499 778 q 546 746 533 760 q 566 715 558 732 q 574 679 574 697 l 574 490 l 836 779 l 1229 779 l 875 389 l 1193 389 m 1007 154 q 1014 146 1007 146 l 1057 146 q 1065 154 1063 146 l 1065 228 q 1063 235 1065 231 q 1057 239 1061 239 l 1014 239 q 1007 228 1007 236 l 1007 154 m 293 543 q 300 535 293 535 l 343 535 q 351 543 349 535 l 351 617 q 349 624 351 619 q 343 628 347 628 l 300 628 q 293 617 293 625 l 293 543 m 1193 406 l 1039 406 l 1328 722 l 1261 789 l 1268 796 l 829 796 l 656 604 l 656 610 q 621 689 656 654 l 572 736 q 533 778 557 761 q 479 794 508 794 l 165 794 q 122 784 142 794 q 86 757 101 774 q 62 720 71 740 q 53 679 53 700 l 53 474 q 68 425 53 447 q 106 389 83 403 l 156 340 q 229 307 189 307 l 383 307 l 89 -17 l 103 -17 l 168 -82 l 597 -82 l 767 103 l 767 85 q 782 37 767 58 q 819 0 797 15 l 869 -49 q 943 -82 903 -82 l 1267 -82 q 1303 -74 1285 -82 q 1337 -53 1322 -67 q 1360 -22 1351 -39 q 1369 15 1369 -4 l 1369 221 q 1335 300 1369 265 l 1286 347 q 1247 389 1271 372 q 1193 406 1222 406 z "},"&":{"ha":1231,"x_min":53,"x_max":1243,"o":"m 1072 200 q 1062 122 1072 158 q 1031 58 1051 85 q 981 15 1010 31 q 914 0 951 0 l 279 0 q 181 22 221 0 q 115 79 140 44 q 80 156 90 114 q 69 236 69 197 q 81 324 69 281 q 126 396 93 367 q 83 462 96 419 q 71 543 71 504 q 85 622 71 581 q 125 699 99 664 q 190 756 151 733 q 281 779 229 779 l 949 779 l 949 575 l 500 575 q 463 561 474 575 q 451 528 451 547 q 462 495 451 504 q 501 486 472 486 l 1161 486 l 1161 289 l 1072 289 l 1072 200 m 450 251 q 461 218 450 232 q 499 204 472 204 l 653 204 q 674 219 665 204 q 683 256 683 235 l 683 293 l 500 293 q 460 283 471 293 q 450 251 450 274 m 1031 722 l 965 788 l 965 796 l 281 796 q 183 772 225 796 q 112 710 140 747 q 69 628 83 672 q 54 543 54 583 q 65 466 54 506 q 104 396 76 426 q 63 320 74 361 q 53 236 53 279 q 58 176 53 207 q 76 115 64 144 q 108 60 89 86 q 156 17 128 35 l 196 -24 q 260 -66 222 -50 q 349 -82 297 -82 l 983 -82 q 1056 -65 1024 -82 q 1109 -20 1088 -49 q 1142 47 1131 8 q 1154 131 1154 86 l 1154 207 l 1243 207 l 1243 429 l 1178 494 l 1178 503 l 1031 503 l 1031 722 m 178 326 l 188 317 q 183 322 185 319 q 178 326 181 324 z "},"'":{"ha":443,"x_min":53,"x_max":456,"o":"m 69 653 q 81 702 69 679 q 114 742 93 725 q 163 769 135 760 q 222 779 190 779 q 281 769 253 779 q 329 742 308 760 q 362 702 350 725 q 374 653 374 679 l 374 513 q 362 463 374 486 q 329 423 350 440 q 281 396 308 406 q 222 386 253 386 q 163 396 190 386 q 114 423 135 406 q 81 463 93 440 q 69 513 69 486 l 69 653 m 53 653 l 53 513 q 72 444 53 475 q 125 394 92 414 l 165 354 q 221 317 189 331 q 292 304 253 304 q 355 315 325 304 q 407 344 385 325 q 442 388 429 363 q 456 443 456 414 l 456 583 q 445 632 456 610 q 417 672 435 654 l 374 714 q 313 773 354 750 q 222 796 272 796 q 156 785 186 796 q 102 754 125 774 q 66 709 79 735 q 53 653 53 683 z "},"(":{"ha":653,"x_min":53,"x_max":665,"o":"m 600 871 l 600 863 l 665 797 l 665 568 l 558 568 q 547 558 551 568 q 542 539 542 547 l 542 146 l 590 146 l 590 138 l 656 72 l 656 -157 l 319 -157 q 247 -139 283 -157 q 182 -93 210 -121 l 143 -54 q 78 12 104 -28 q 53 96 53 51 l 53 656 q 69 733 53 694 q 115 801 86 771 q 181 851 143 832 q 261 871 218 871 l 600 871 m 261 854 q 188 837 222 854 q 126 791 153 819 q 85 727 100 763 q 69 656 69 692 l 69 96 q 86 32 69 63 q 128 -22 103 1 q 186 -60 154 -46 q 250 -75 218 -75 l 574 -75 l 574 129 l 488 129 q 468 138 476 129 q 460 161 460 147 l 460 608 q 467 635 460 619 q 489 650 475 650 l 583 650 l 583 854 l 261 854 z "},")":{"ha":653,"x_min":53,"x_max":665,"o":"m 53 871 l 392 871 q 488 843 444 871 q 561 774 532 815 l 599 736 q 647 666 629 706 q 665 586 665 626 l 665 26 q 648 -42 665 -10 q 602 -101 631 -75 q 540 -142 574 -126 q 472 -157 506 -157 l 136 -157 l 71 -92 l 63 -92 l 63 146 l 165 146 q 176 161 176 146 l 176 568 l 126 568 l 61 633 l 53 633 l 53 871 m 69 650 l 164 650 q 185 635 178 650 q 193 608 193 619 l 193 161 q 185 138 193 147 q 165 129 176 129 l 79 129 l 79 -75 l 403 -75 q 466 -60 433 -75 q 524 -22 499 -46 q 567 32 550 1 q 583 96 583 63 l 583 656 q 568 727 583 692 q 526 791 553 763 q 465 837 500 819 q 392 854 431 854 l 69 854 l 69 650 z "},"*":{"ha":456,"x_min":29,"x_max":490,"o":"m 69 613 l 43 635 l 71 661 l 40 692 l 29 694 l 86 865 l 135 836 l 129 889 l 314 889 l 313 881 l 346 849 l 367 858 l 371 844 l 433 783 l 490 625 l 422 611 l 468 565 l 325 456 l 282 499 l 260 454 l 118 565 l 69 613 m 260 543 l 379 635 l 321 688 l 404 704 l 357 836 l 289 803 l 296 872 l 147 872 l 154 803 l 96 839 l 51 706 l 122 688 l 68 636 l 186 543 l 222 617 l 260 543 z "},"+":{"ha":604,"x_min":53,"x_max":617,"o":"m 535 488 l 535 289 l 401 289 l 401 154 l 203 154 l 203 289 l 69 289 l 69 488 l 203 488 l 203 619 l 401 619 l 401 488 l 535 488 m 418 636 l 186 636 l 186 504 l 53 504 l 53 272 l 61 272 l 126 207 l 186 207 l 186 138 l 194 138 l 260 72 l 483 72 l 483 207 l 617 207 l 617 431 l 551 496 l 551 504 l 483 504 l 483 563 l 418 628 l 418 636 z "},",":{"ha":465,"x_min":53,"x_max":478,"o":"m 69 128 q 83 178 69 154 q 118 219 96 201 q 170 246 140 236 q 233 256 200 256 q 297 246 267 256 q 348 219 326 236 q 383 178 369 201 q 396 128 396 154 l 396 -15 q 383 -66 396 -43 q 348 -106 369 -89 q 297 -133 326 -124 q 233 -143 267 -143 q 170 -133 200 -143 q 118 -106 140 -124 q 83 -66 96 -89 q 69 -15 69 -43 l 69 128 m 53 128 l 53 -15 q 71 -79 53 -50 q 119 -128 89 -108 l 164 -172 q 224 -210 188 -196 q 303 -225 261 -225 q 371 -214 339 -225 q 426 -184 403 -203 q 464 -140 450 -165 q 478 -85 478 -114 l 478 58 q 440 146 478 108 l 396 190 q 330 249 374 226 q 233 272 286 272 q 163 261 196 272 q 106 231 131 250 q 67 185 82 211 q 53 128 53 158 z "},"-":{"ha":604,"x_min":53,"x_max":617,"o":"m 535 488 l 535 289 l 69 289 l 69 488 l 535 488 m 53 504 l 53 272 l 61 272 l 126 207 l 617 207 l 617 431 l 551 496 l 551 504 l 53 504 z "},".":{"ha":465,"x_min":53,"x_max":478,"o":"m 53 128 q 67 185 53 158 q 106 231 82 211 q 163 261 131 250 q 233 272 196 272 q 330 249 286 272 q 396 190 374 226 l 440 146 q 478 58 478 108 q 464 3 478 29 q 426 -41 450 -22 q 371 -71 403 -60 q 303 -82 339 -82 q 224 -67 261 -82 q 164 -29 188 -53 l 119 15 q 71 63 89 35 q 53 128 53 92 m 69 128 q 83 77 69 100 q 118 37 96 54 q 170 10 140 19 q 233 0 200 0 q 297 10 267 0 q 348 37 326 19 q 383 77 369 54 q 396 128 396 100 q 383 178 396 154 q 348 219 369 201 q 297 246 326 236 q 233 256 267 256 q 170 246 200 256 q 118 219 140 236 q 83 178 96 201 q 69 128 69 154 z "},"/":{"ha":1204,"x_min":17,"x_max":1249,"o":"m 51 0 l 697 779 l 1153 779 l 507 0 l 51 0 m 94 -82 l 583 -82 l 1249 722 l 1182 789 l 1188 796 l 689 796 l 17 -17 l 29 -17 l 94 -82 z "},":":{"ha":465,"x_min":51,"x_max":478,"o":"m 51 449 q 66 506 51 479 q 105 551 81 532 q 162 582 129 571 q 232 593 194 593 q 328 570 285 593 q 394 511 372 547 l 439 467 q 476 379 476 429 q 438 290 476 328 q 343 242 400 253 q 396 190 378 219 l 439 147 l 438 147 l 440 146 q 478 58 478 108 q 464 3 478 29 q 426 -41 450 -22 q 371 -71 403 -60 q 303 -82 339 -82 q 224 -67 261 -82 q 164 -29 188 -53 l 119 15 q 71 63 89 35 q 53 128 53 92 q 92 219 53 181 q 190 268 132 257 q 176 278 182 272 q 163 292 169 285 l 118 336 q 69 384 88 356 q 51 449 51 413 m 68 449 q 81 398 68 421 q 117 358 94 375 q 169 331 139 340 q 232 321 199 321 q 295 331 265 321 q 347 358 325 340 q 381 398 368 375 q 394 449 394 421 q 381 499 394 475 q 347 540 368 522 q 295 567 325 557 q 232 576 265 576 q 169 567 199 576 q 117 540 139 557 q 81 499 94 522 q 68 449 68 475 m 69 128 q 83 77 69 100 q 118 37 96 54 q 170 10 140 19 q 233 0 200 0 q 297 10 267 0 q 348 37 326 19 q 383 77 369 54 q 396 128 396 100 q 383 178 396 154 q 348 219 369 201 q 297 246 326 236 q 233 256 267 256 q 170 246 200 256 q 118 219 140 236 q 83 178 96 201 q 69 128 69 154 z "},";":{"ha":465,"x_min":51,"x_max":478,"o":"m 51 449 q 66 506 51 479 q 105 551 81 532 q 162 582 129 571 q 232 593 194 593 q 328 570 285 593 q 394 511 372 547 l 438 468 l 436 468 l 439 467 q 476 379 476 429 q 438 290 476 328 q 343 242 400 253 q 396 190 378 219 l 439 147 l 438 147 l 440 146 q 478 58 478 108 l 478 -85 q 464 -140 478 -114 q 426 -184 450 -165 q 371 -214 403 -203 q 303 -225 339 -225 q 224 -210 261 -225 q 164 -172 188 -196 l 119 -128 q 71 -79 89 -108 q 53 -15 53 -50 l 53 128 q 92 219 53 181 q 190 268 132 257 q 176 278 182 272 q 163 292 169 285 l 118 336 q 69 384 88 356 q 51 449 51 413 m 69 -15 q 83 -66 69 -43 q 118 -106 96 -89 q 170 -133 140 -124 q 233 -143 200 -143 q 297 -133 267 -143 q 348 -106 326 -124 q 383 -66 369 -89 q 396 -15 396 -43 l 396 128 q 383 178 396 154 q 348 219 369 201 q 297 246 326 236 q 233 256 267 256 q 170 246 200 256 q 118 219 140 236 q 83 178 96 201 q 69 128 69 154 l 69 -15 m 68 449 q 81 398 68 421 q 117 358 94 375 q 169 331 139 340 q 232 321 199 321 q 295 331 265 321 q 347 358 325 340 q 381 398 368 375 q 394 449 394 421 q 381 499 394 475 q 347 540 368 522 q 295 567 325 557 q 232 576 265 576 q 169 567 199 576 q 117 540 139 557 q 81 499 94 522 q 68 449 68 475 z "},"<":{"ha":882,"x_min":29,"x_max":926,"o":"m 372 -17 l 367 -17 l 29 390 l 365 796 l 864 796 l 858 789 l 925 722 l 593 321 l 926 -82 l 438 -82 l 372 -17 m 831 0 l 507 390 l 829 779 l 374 779 l 51 390 l 375 0 l 831 0 z "},"=":{"ha":661,"x_min":53,"x_max":674,"o":"m 592 349 l 592 150 l 69 150 l 69 349 l 592 349 m 592 629 l 592 431 l 69 431 l 69 629 l 592 629 m 53 646 l 53 414 l 61 414 l 110 365 l 53 365 l 53 133 l 61 133 l 126 68 l 674 68 l 674 292 l 617 349 l 674 349 l 674 572 l 608 638 l 608 646 l 53 646 z "},">":{"ha":882,"x_min":15,"x_max":915,"o":"m 50 0 l 374 390 l 51 779 l 507 779 l 829 390 l 506 0 l 50 0 m 93 -82 l 582 -82 l 915 321 l 583 722 l 542 763 l 515 796 l 17 796 l 351 390 l 15 -17 l 28 -17 l 93 -82 z "},"?":{"ha":1122,"x_min":54,"x_max":1135,"o":"m 219 354 q 237 408 219 383 q 281 451 254 433 q 338 480 307 469 q 397 490 369 490 l 664 490 l 664 533 q 656 560 664 544 q 635 575 649 575 l 71 575 l 71 779 l 863 779 q 935 763 901 779 q 996 720 969 747 q 1038 659 1022 693 q 1053 589 1053 625 l 1053 468 q 1035 406 1053 436 q 990 351 1017 375 q 931 313 963 328 q 872 297 899 297 l 219 297 l 219 354 m 219 128 q 233 178 219 154 q 268 219 246 201 q 320 246 290 236 q 383 256 350 256 q 447 246 417 256 q 498 219 476 236 q 533 178 519 201 q 546 128 546 154 q 533 77 546 100 q 498 37 519 54 q 447 10 476 19 q 383 0 417 0 q 320 10 350 0 q 268 37 290 19 q 233 77 246 54 q 219 128 219 100 m 203 354 l 203 281 l 211 281 l 258 232 q 217 186 232 213 q 203 128 203 160 q 221 63 203 92 q 269 15 239 35 l 314 -29 q 374 -67 338 -53 q 453 -82 411 -82 q 521 -71 489 -82 q 576 -41 553 -60 q 614 3 600 -22 q 628 58 628 29 q 590 146 628 108 l 588 147 l 589 147 l 546 190 q 537 203 542 197 q 526 215 532 208 l 942 215 q 1005 231 971 215 q 1067 274 1039 247 q 1115 333 1096 300 q 1135 399 1135 365 l 1135 519 q 1117 597 1135 560 q 1072 661 1100 633 l 1035 697 q 961 768 1007 740 q 863 796 915 796 l 54 796 l 54 558 l 63 558 l 128 493 l 326 493 q 240 438 278 475 q 203 354 203 401 z "},"@":{"ha":1496,"x_min":35,"x_max":1526,"o":"m 531 196 q 524 201 528 197 l 524 146 l 581 146 l 581 147 l 531 196 m 979 568 q 989 556 985 561 q 997 543 993 550 l 1038 504 l 1038 568 l 979 568 m 125 -54 q 60 12 86 -28 q 35 96 35 51 l 35 656 q 51 733 35 694 q 97 801 68 771 q 163 851 125 832 q 243 871 200 871 l 1253 871 q 1349 843 1306 871 q 1422 774 1393 815 l 1460 736 q 1508 666 1490 706 q 1526 586 1526 626 l 1526 297 q 1509 228 1526 261 q 1463 170 1492 196 q 1401 129 1435 144 q 1333 114 1367 114 l 1039 114 l 1081 72 l 1081 -157 l 301 -157 q 228 -139 265 -157 q 164 -93 192 -121 l 125 -54 m 718 424 q 725 435 718 432 l 768 435 q 774 431 772 435 q 776 424 776 426 l 776 350 q 768 342 774 342 l 725 342 q 718 350 718 342 l 718 424 m 590 585 q 553 576 571 585 q 523 553 536 567 q 502 522 510 539 q 494 486 494 504 l 494 281 q 503 249 494 264 q 524 222 511 233 q 553 203 538 210 q 585 196 569 196 l 1264 196 q 1327 210 1294 196 q 1385 249 1360 225 q 1428 303 1411 272 q 1444 367 1444 333 l 1444 656 q 1429 727 1444 692 q 1388 791 1414 763 q 1326 837 1361 819 q 1253 854 1292 854 l 243 854 q 169 837 204 854 q 108 791 135 819 q 67 727 82 763 q 51 656 51 692 l 51 96 q 68 32 51 63 q 110 -22 85 1 q 168 -60 136 -46 q 232 -75 200 -75 l 999 -75 l 999 129 l 469 129 q 450 138 458 129 q 442 161 442 147 l 442 608 q 449 635 442 619 q 471 650 457 650 l 1025 650 q 1047 635 1039 650 q 1054 608 1054 619 l 1054 431 q 1046 408 1054 417 q 1026 399 1038 399 l 999 399 l 999 486 q 991 522 999 504 q 971 553 983 539 q 941 576 958 567 q 904 585 924 585 l 590 585 z "},"A":{"ha":1147,"x_min":53,"x_max":1160,"o":"m 557 493 q 546 486 550 493 q 539 472 542 479 l 539 435 l 672 435 l 672 493 l 557 493 m 61 -17 l 53 -17 l 53 607 q 71 677 53 643 q 117 738 89 711 q 181 780 146 764 q 250 796 217 796 l 897 796 q 987 768 942 796 q 1061 700 1032 740 l 1101 660 q 1144 601 1128 633 q 1160 538 1160 569 l 1160 -82 l 746 -82 l 681 -17 l 672 -17 l 672 138 l 539 138 l 539 -82 l 126 -82 l 61 -17 m 1078 607 q 1062 669 1078 638 q 1019 724 1046 700 q 961 764 993 749 q 897 779 929 779 l 250 779 q 186 765 218 779 q 128 726 154 750 q 86 671 103 701 q 69 607 69 640 l 69 0 l 457 0 l 457 219 l 689 219 l 689 0 l 1078 0 l 1078 607 m 457 544 q 469 564 461 553 q 488 575 476 575 l 660 575 q 681 563 676 575 q 689 543 685 551 l 689 418 l 457 418 l 457 543 l 457 544 z "},"B":{"ha":1147,"x_min":53,"x_max":1160,"o":"m 61 -17 l 53 -17 l 53 796 l 867 796 q 970 767 926 796 q 1043 697 1014 739 l 1075 667 l 1081 661 q 1139 571 1119 622 q 1158 474 1158 519 q 1147 394 1158 435 q 1108 325 1135 353 q 1149 252 1138 293 q 1160 167 1160 211 q 1149 81 1160 125 q 1111 1 1138 38 q 1042 -58 1085 -35 q 938 -82 1000 -82 l 126 -82 l 61 -17 m 868 0 q 967 22 926 0 q 1032 79 1007 44 q 1067 156 1057 114 q 1078 236 1078 197 q 1066 324 1078 281 q 1021 396 1054 367 q 1064 462 1051 419 q 1076 543 1076 504 q 1063 622 1076 581 q 1022 699 1049 664 q 957 756 996 733 q 867 779 918 779 l 69 779 l 69 0 l 868 0 m 647 293 q 687 283 676 293 q 697 251 697 274 q 686 218 697 232 q 649 204 675 204 l 457 204 l 457 293 l 647 293 m 457 575 l 647 575 q 685 561 674 575 q 696 528 696 547 q 685 495 696 504 q 646 486 675 486 l 457 486 l 457 575 z "},"C":{"ha":1032,"x_min":53,"x_max":1044,"o":"m 979 796 l 979 788 l 1044 722 l 1044 493 l 557 493 q 545 483 550 493 q 540 464 540 472 l 540 221 l 971 221 l 971 213 l 1036 147 l 1036 -82 l 319 -82 q 247 -64 283 -82 q 182 -18 210 -46 l 143 19 q 78 87 104 47 q 53 171 53 126 l 53 581 q 69 658 53 619 q 113 726 85 696 q 179 776 142 757 q 260 796 217 796 l 979 796 m 260 779 q 186 762 221 779 q 126 716 151 744 q 85 652 100 688 q 69 581 69 617 l 69 171 q 86 107 69 138 q 128 53 103 76 q 186 15 154 29 q 250 0 218 0 l 954 0 l 954 204 l 488 204 q 468 213 476 204 q 458 236 460 222 l 458 533 q 466 560 458 544 q 488 575 474 575 l 963 575 l 963 779 l 260 779 z "},"D":{"ha":1138,"x_min":53,"x_max":1150,"o":"m 540 225 l 601 225 q 636 236 624 225 q 654 264 649 247 q 661 301 660 281 q 663 340 663 321 l 663 435 q 662 456 663 444 q 660 478 661 467 l 540 478 l 540 225 m 61 -17 l 53 -17 l 53 796 l 915 796 q 985 771 951 796 q 1044 710 1019 746 l 1081 674 q 1131 604 1111 643 q 1150 529 1150 565 l 1150 83 q 1137 26 1150 56 q 1103 -26 1124 -3 q 1056 -66 1082 -50 q 1003 -82 1029 -82 l 126 -82 l 61 -17 m 933 0 q 982 15 958 0 q 1025 51 1006 29 q 1056 101 1044 74 q 1068 153 1068 128 l 1068 599 q 1055 658 1068 626 q 1020 717 1042 690 q 971 762 999 744 q 915 779 943 779 l 69 779 l 69 0 l 933 0 m 621 560 q 652 547 640 560 q 670 516 664 535 q 678 475 676 497 q 679 435 679 453 l 679 340 q 678 296 679 319 q 669 253 676 272 q 646 221 661 233 q 601 208 631 208 l 458 208 l 458 560 l 621 560 z "},"E":{"ha":1032,"x_min":53,"x_max":1044,"o":"m 979 796 l 979 788 l 1044 722 l 1044 493 l 982 493 l 1044 431 l 1044 207 l 985 207 l 1044 147 l 1044 -82 l 319 -82 q 247 -64 283 -82 q 182 -18 210 -46 l 143 19 q 78 87 104 47 q 53 171 53 126 l 53 581 q 69 658 53 619 q 113 726 85 696 q 179 776 142 757 q 260 796 217 796 l 979 796 m 260 779 q 186 762 221 779 q 126 716 151 744 q 85 652 100 688 q 69 581 69 617 l 69 171 q 86 107 69 138 q 128 53 103 76 q 186 15 154 29 q 250 0 218 0 l 963 0 l 963 204 l 488 204 q 474 216 485 204 q 458 236 463 228 q 458 240 458 238 q 457 246 457 243 q 458 251 457 249 q 458 256 458 254 q 474 276 463 264 q 488 289 485 289 l 963 289 l 963 488 l 497 488 q 468 501 479 488 q 457 531 457 515 q 465 558 457 542 q 488 575 474 575 l 963 575 l 963 779 l 260 779 z "},"F":{"ha":1032,"x_min":53,"x_max":1044,"o":"m 979 796 l 979 788 l 1044 722 l 1044 493 l 982 493 l 1044 431 l 1044 207 l 557 207 q 549 198 556 207 q 540 182 543 189 l 540 -82 l 126 -82 l 61 -17 l 53 -17 l 53 581 q 69 658 53 619 q 113 726 85 696 q 179 776 142 757 q 260 796 217 796 l 979 796 m 260 779 q 186 762 221 779 q 126 716 151 744 q 85 652 100 688 q 69 581 69 617 l 69 0 l 458 0 l 458 256 q 474 276 463 264 q 488 289 485 289 l 963 289 l 963 488 l 497 488 q 468 501 479 488 q 457 531 457 515 q 465 558 457 542 q 488 575 474 575 l 963 575 l 963 779 l 260 779 z "},"G":{"ha":1147,"x_min":53,"x_max":1160,"o":"m 540 221 l 660 221 q 667 227 663 221 q 674 240 671 233 l 674 493 l 557 493 q 546 483 550 493 q 540 464 542 474 l 540 221 m 979 796 l 979 788 l 1044 722 l 1044 547 l 1094 547 l 1094 539 l 1160 474 l 1160 101 q 1142 33 1160 65 q 1097 -26 1125 0 q 1035 -67 1069 -51 q 967 -82 1000 -82 l 319 -82 q 247 -64 283 -82 q 183 -18 211 -46 l 143 22 q 78 90 104 50 q 53 171 53 129 l 53 581 q 69 658 53 619 q 113 726 85 696 q 179 776 142 757 q 260 796 217 796 l 979 796 m 260 779 q 186 762 221 779 q 126 716 151 744 q 85 652 100 688 q 69 581 69 617 l 69 171 q 86 108 69 139 q 128 54 103 78 q 186 15 154 31 q 250 0 218 0 l 897 0 q 961 15 929 0 q 1019 53 993 29 q 1062 107 1046 76 q 1078 171 1078 138 l 1078 531 l 690 531 l 690 235 q 678 215 686 226 q 660 204 671 204 l 488 204 q 467 216 472 204 q 458 236 463 228 l 458 531 l 456 531 l 458 533 q 466 560 458 544 q 488 575 474 575 l 963 575 l 963 779 l 260 779 z "},"H":{"ha":1106,"x_min":53,"x_max":1118,"o":"m 475 788 l 540 722 l 540 504 l 629 504 l 629 796 l 1053 796 l 1053 788 l 1118 722 l 1118 -82 l 703 -82 l 638 -17 l 629 -17 l 629 207 l 540 207 l 540 -82 l 126 -82 l 61 -17 l 53 -17 l 53 796 l 475 796 l 475 788 m 646 488 l 458 488 l 458 779 l 69 779 l 69 0 l 458 0 l 458 289 l 646 289 l 646 0 l 1036 0 l 1036 779 l 646 779 l 646 488 z "},"I":{"ha":1061,"x_min":53,"x_max":1074,"o":"m 335 204 l 335 575 l 71 575 l 71 779 l 992 779 l 992 575 l 724 575 l 724 204 l 990 204 l 990 0 l 69 0 l 69 204 l 335 204 m 53 221 l 53 -17 l 61 -17 l 126 -82 l 1072 -82 l 1072 147 l 1007 213 l 1007 221 l 806 221 l 806 493 l 1074 493 l 1074 722 l 1008 788 l 1008 796 l 54 796 l 54 558 l 63 558 l 128 493 l 318 493 l 318 221 l 53 221 z "},"J":{"ha":1147,"x_min":53,"x_max":1160,"o":"m 458 236 q 467 216 463 228 q 488 204 472 204 l 660 204 q 678 216 671 204 q 690 236 686 228 l 690 779 l 1078 779 l 1078 171 q 1062 107 1078 138 q 1019 53 1046 76 q 961 15 993 29 q 897 0 929 0 l 250 0 q 186 15 218 0 q 128 54 154 31 q 86 108 103 78 q 69 171 69 139 l 69 379 l 458 379 l 458 236 m 475 396 l 53 396 l 53 171 q 78 90 53 129 q 143 22 104 50 l 183 -18 q 247 -64 211 -46 q 319 -82 283 -82 l 967 -82 q 1035 -67 1000 -82 q 1097 -26 1069 -51 q 1142 33 1125 0 q 1160 101 1160 65 l 1160 722 l 1094 788 l 1094 796 l 674 796 l 674 242 q 667 228 671 235 q 660 221 663 221 l 540 221 l 540 322 l 475 388 l 475 396 z "},"K":{"ha":1099,"x_min":53,"x_max":1111,"o":"m 824 349 q 846 271 824 311 q 907 235 875 247 q 968 222 939 222 l 1046 222 l 1046 214 l 1111 149 l 1111 -82 l 776 -82 q 691 -54 732 -82 q 617 7 650 -26 l 592 32 q 565 54 578 43 q 540 78 551 65 l 540 -82 l 126 -82 l 61 -17 l 53 -17 l 53 796 l 475 796 l 475 788 l 540 722 l 540 683 q 569 714 550 696 q 612 749 588 732 q 667 778 636 765 q 733 796 697 792 l 1046 796 l 1046 788 l 1111 722 l 1111 492 l 967 492 q 925 478 950 492 q 878 442 900 464 q 840 396 856 421 q 824 349 824 371 m 511 135 q 550 92 528 115 q 598 48 572 68 q 651 14 624 28 q 707 0 679 0 l 1029 0 l 1029 206 l 968 206 q 894 224 933 206 q 820 272 854 242 q 764 340 786 301 q 742 418 742 378 q 759 470 742 443 q 801 520 776 497 q 851 558 825 543 q 897 574 878 574 l 1029 574 l 1029 779 l 735 779 q 661 758 694 775 q 603 722 628 742 q 564 685 579 703 q 544 660 549 667 l 544 657 q 494 583 510 625 q 458 499 478 540 l 458 779 l 69 779 l 69 0 l 458 0 l 458 228 l 511 135 z "},"L":{"ha":1032,"x_min":53,"x_max":1044,"o":"m 53 796 l 475 796 l 475 788 l 540 722 l 540 221 l 979 221 l 979 213 l 1044 147 l 1044 -82 l 299 -82 q 188 -36 233 -82 l 144 6 q 77 83 101 32 q 53 197 53 133 l 53 796 m 69 197 q 81 120 69 156 q 113 58 92 85 q 163 15 133 31 q 229 0 193 0 l 963 0 l 963 204 l 511 204 q 470 217 482 207 q 458 256 458 228 l 458 779 l 69 779 l 69 197 z "},"M":{"ha":1596,"x_min":51,"x_max":1607,"o":"m 60 -17 l 51 -17 l 51 608 q 69 678 51 644 q 116 738 88 713 q 179 780 144 764 q 249 796 214 796 l 1344 796 q 1434 768 1389 796 q 1508 699 1479 740 l 1550 658 q 1591 602 1575 633 q 1607 539 1607 571 l 1607 -82 l 1193 -82 l 1128 -17 l 1119 -17 l 1119 493 l 1089 493 q 1080 486 1085 493 q 1072 474 1075 479 l 1072 -82 l 657 -82 l 592 -17 l 583 -17 l 583 493 l 556 493 q 545 485 550 493 q 538 471 540 478 l 538 -82 l 125 -82 l 60 -17 m 1525 0 l 1525 608 q 1508 670 1525 639 q 1466 725 1492 701 q 1408 764 1440 749 q 1344 779 1375 779 l 249 779 q 185 765 217 779 q 126 726 153 750 q 84 672 100 703 q 68 608 68 642 l 68 0 l 456 0 l 456 543 q 467 563 460 551 q 486 575 475 575 l 572 575 q 592 563 588 575 q 600 543 597 551 l 600 0 l 990 0 l 990 546 l 992 549 q 1003 565 996 556 q 1019 575 1010 575 l 1107 575 q 1127 563 1122 575 q 1136 543 1132 551 l 1136 0 l 1525 0 z "},"N":{"ha":1147,"x_min":53,"x_max":1160,"o":"m 689 543 q 680 563 685 551 q 660 575 675 575 l 457 575 l 457 0 l 69 0 l 69 779 l 897 779 q 960 764 928 779 q 1019 725 993 749 q 1061 670 1044 701 q 1078 608 1078 639 l 1078 0 l 689 0 l 689 543 m 126 -82 l 539 -82 l 539 493 l 672 493 l 672 -17 l 681 -17 l 746 -82 l 1160 -82 l 1160 539 q 1144 602 1160 571 q 1103 658 1128 633 l 1061 699 q 987 768 1032 740 q 897 796 942 796 l 53 796 l 53 -17 l 61 -17 l 126 -82 z "},"O":{"ha":1147,"x_min":53,"x_max":1160,"o":"m 888 779 q 961 762 926 779 q 1022 716 996 744 q 1063 652 1047 688 q 1078 581 1078 617 l 1078 171 q 1062 107 1078 138 q 1019 53 1046 76 q 961 15 993 29 q 897 0 929 0 l 250 0 q 186 15 218 0 q 128 53 154 29 q 86 107 103 76 q 69 171 69 138 l 69 581 q 85 652 69 617 q 126 716 100 688 q 186 762 151 744 q 260 779 221 779 l 888 779 m 457 236 q 464 217 458 229 q 488 204 469 204 l 660 204 q 677 216 668 204 q 690 236 686 228 l 690 531 q 683 558 690 542 q 660 575 675 575 l 485 575 q 464 557 471 572 q 457 531 457 542 l 457 236 m 888 796 l 260 796 q 179 776 217 796 q 113 726 142 757 q 69 658 85 696 q 53 581 53 619 l 53 171 q 78 87 53 126 q 143 19 104 47 l 182 -18 q 247 -64 210 -46 q 319 -82 283 -82 l 967 -82 q 1035 -67 1000 -82 q 1097 -26 1069 -51 q 1142 33 1125 0 q 1160 101 1160 65 l 1160 511 q 1142 591 1160 551 q 1093 661 1124 631 l 1056 699 q 984 768 1028 740 q 888 796 940 796 m 539 461 q 544 480 539 469 q 557 493 549 490 l 674 493 l 674 242 q 667 228 671 235 q 660 221 663 221 l 539 221 l 539 461 z "},"P":{"ha":1147,"x_min":53,"x_max":1160,"o":"m 674 536 q 674 536 674 536 q 672 538 674 538 l 653 558 l 674 536 m 539 439 l 640 439 q 667 457 657 439 q 681 493 678 475 l 539 493 l 539 439 m 61 -17 l 53 -17 l 53 796 l 868 796 q 967 770 926 796 q 1035 706 1008 744 l 1071 669 l 1067 674 l 1075 667 q 1114 615 1097 643 q 1140 555 1131 586 q 1155 494 1150 524 q 1160 439 1160 464 q 1148 331 1160 385 q 1110 233 1136 276 q 1042 163 1085 190 q 939 136 1000 136 l 539 136 l 539 -82 l 126 -82 l 61 -17 m 457 0 l 457 218 l 869 218 q 967 244 928 218 q 1031 310 1007 269 q 1067 403 1056 351 q 1078 508 1078 456 q 1067 593 1078 546 q 1032 681 1057 640 q 967 751 1007 722 q 868 779 926 779 l 69 779 l 69 0 l 457 0 m 649 575 q 671 567 661 575 q 686 547 681 558 q 694 522 692 535 q 697 500 697 510 q 693 475 697 489 q 682 449 689 461 q 665 430 675 438 q 640 422 654 422 l 457 422 l 457 575 l 649 575 z "},"Q":{"ha":1150,"x_min":-40,"x_max":1163,"o":"m 246 0 q 185 17 215 1 q 129 56 154 32 q 88 109 104 79 q 72 171 72 139 l 72 581 q 88 652 72 617 q 128 716 103 688 q 189 762 154 744 q 263 779 224 779 l 890 779 q 963 762 929 779 q 1024 716 997 744 q 1065 652 1050 688 q 1081 581 1081 617 l 1081 171 q 1064 107 1081 138 q 1022 53 1047 76 q 963 15 996 29 q 900 0 931 0 l 767 0 l 736 -56 q 697 -109 721 -82 q 644 -158 674 -136 q 583 -193 615 -179 q 518 -207 551 -207 l -24 -207 l -24 0 l 246 0 m 692 404 l 692 463 l 692 494 l 692 513 q 693 531 692 529 q 686 557 693 542 q 665 575 679 572 l 490 575 q 467 558 475 575 q 460 531 460 542 l 460 236 q 474 216 464 228 q 486 204 483 204 l 663 204 q 683 216 678 204 q 692 236 688 228 l 692 314 l 692 404 m -40 -224 l -32 -224 l 33 -289 l 588 -289 q 656 -274 622 -289 q 721 -237 690 -260 q 776 -186 751 -214 q 817 -131 801 -158 l 843 -82 l 969 -82 q 1037 -67 1003 -82 q 1099 -26 1071 -51 q 1145 33 1128 0 q 1163 101 1163 65 l 1163 511 q 1144 591 1163 551 q 1096 661 1126 631 l 1058 699 q 985 768 1029 740 q 890 796 942 796 l 263 796 q 182 776 219 796 q 116 726 144 757 q 72 658 88 696 q 56 581 56 619 l 56 171 q 81 89 56 128 q 146 22 107 50 l 151 17 l -40 17 l -40 -224 m 542 461 q 546 481 542 469 q 560 493 550 493 l 675 493 l 675 240 q 674 236 671 236 q 663 221 668 221 l 542 221 l 542 461 z "},"R":{"ha":1179,"x_min":53,"x_max":1267,"o":"m 961 297 l 961 296 l 961 297 m 539 439 l 640 439 q 667 457 657 439 q 681 493 678 475 l 539 493 l 539 439 m 61 -17 l 53 -17 l 53 796 l 882 796 q 988 772 947 796 q 1053 711 1029 747 l 1094 669 q 1146 578 1132 632 q 1160 474 1160 525 q 1153 399 1160 439 q 1131 323 1146 358 q 1092 263 1117 288 q 1032 238 1067 239 l 1032 232 q 1031 226 1032 226 l 1267 -82 l 756 -82 l 690 -17 l 685 -17 l 572 132 q 551 136 561 136 l 549 136 q 540 135 542 133 l 539 136 l 539 -82 l 126 -82 l 61 -17 m 457 0 l 457 208 q 464 213 457 210 q 479 218 471 215 l 482 218 q 527 204 506 218 q 564 171 549 190 l 692 0 l 1172 0 l 951 290 q 950 301 950 292 q 957 319 950 313 q 1013 342 990 319 q 1051 398 1036 364 q 1072 471 1065 432 q 1078 543 1078 510 q 1069 624 1078 582 q 1040 700 1061 665 q 980 757 1018 735 q 882 779 942 779 l 69 779 l 69 0 l 457 0 m 649 575 q 671 567 661 575 q 686 548 681 560 q 694 524 692 536 q 697 501 697 511 q 693 476 697 490 q 682 451 689 463 q 665 431 675 439 q 640 422 654 422 l 457 422 l 457 575 l 649 575 z "},"S":{"ha":1122,"x_min":53,"x_max":1135,"o":"m 1053 196 q 1038 128 1053 163 q 996 65 1022 93 q 935 18 969 36 q 861 0 900 0 l 69 0 l 69 204 l 633 204 q 655 219 647 204 q 663 246 663 235 l 663 292 l 250 292 q 191 308 222 292 q 133 349 160 324 q 88 405 106 374 q 69 468 69 436 l 69 589 q 85 659 69 625 q 126 720 100 693 q 186 763 151 747 q 260 779 221 779 l 1051 779 l 1051 575 l 488 575 q 466 560 474 575 q 458 533 458 544 l 458 490 l 875 490 q 934 480 903 490 q 992 451 965 469 q 1035 408 1018 433 q 1053 354 1053 383 l 1053 196 m 1133 493 l 1133 722 l 1068 788 l 1068 796 l 260 796 q 179 778 217 796 q 113 732 142 761 q 69 665 85 703 q 53 589 53 628 l 53 468 q 83 382 53 425 q 154 311 113 339 l 188 278 q 269 221 225 238 l 53 221 l 53 -17 l 61 -17 l 126 -82 l 931 -82 q 1009 -62 972 -82 q 1074 -13 1046 -43 q 1119 53 1103 17 q 1135 126 1135 90 l 1135 285 q 1124 330 1135 308 q 1096 369 1114 351 l 1051 414 q 1006 460 1035 440 q 946 493 978 481 l 1133 493 z "},"T":{"ha":1096,"x_min":53,"x_max":1108,"o":"m 53 796 l 1043 796 l 1043 788 l 1108 722 l 1108 493 l 822 493 l 822 -82 l 408 -82 l 343 -17 l 335 -17 l 335 493 l 126 493 l 61 558 l 53 558 l 53 796 m 69 575 l 351 575 l 351 0 l 740 0 l 740 575 l 1026 575 l 1026 779 l 69 779 l 69 575 z "},"U":{"ha":1147,"x_min":53,"x_max":1160,"o":"m 458 236 q 467 216 463 228 q 488 204 472 204 l 690 204 l 690 779 l 1078 779 l 1078 0 l 250 0 q 186 15 218 0 q 128 54 154 31 q 86 108 103 78 q 69 171 69 139 l 69 779 l 458 779 l 458 236 m 475 796 l 53 796 l 53 171 q 78 90 53 129 q 143 22 104 50 l 183 -18 q 247 -64 211 -46 q 319 -82 283 -82 l 1160 -82 l 1160 722 l 1094 788 l 1094 796 l 674 796 l 674 221 l 540 221 l 540 722 l 475 788 l 475 796 z "},"V":{"ha":1339,"x_min":53,"x_max":1382,"o":"m 747 75 q 730 55 742 68 q 703 29 718 42 q 672 8 689 17 q 642 -1 656 -1 l 69 -1 l 69 778 l 457 778 l 457 313 q 463 308 457 311 q 474 303 469 306 q 484 308 481 303 q 493 319 488 313 l 832 779 l 1288 779 l 747 75 m 1321 796 l 825 796 l 539 407 l 539 721 l 474 786 l 474 794 l 53 794 l 53 -18 l 61 -18 l 126 -83 l 711 -83 q 745 -74 728 -83 q 778 -51 763 -64 q 807 -24 794 -37 q 826 -3 819 -11 l 826 -1 l 1382 722 l 1315 789 l 1321 796 z "},"W":{"ha":1596,"x_min":51,"x_max":1607,"o":"m 1136 392 l 1136 779 l 1525 779 l 1525 0 l 1025 0 q 969 32 1004 0 q 899 105 935 64 q 835 184 864 146 q 799 235 807 222 q 797 239 797 236 l 793 239 q 760 192 789 231 q 695 111 732 154 q 620 34 658 68 q 558 0 582 0 l 68 0 l 68 779 l 457 779 l 457 392 l 779 779 l 810 779 l 1136 392 m 817 796 l 771 796 l 539 515 l 539 722 l 474 788 l 474 796 l 51 796 l 51 -17 l 60 -17 l 125 -82 l 628 -82 q 679 -58 649 -82 q 742 1 710 -33 q 805 72 775 35 q 853 133 835 108 q 915 62 882 97 q 978 4 949 26 l 1006 -22 q 1056 -65 1032 -49 q 1094 -82 1079 -82 l 1607 -82 l 1607 722 l 1542 788 l 1542 796 l 1119 796 l 1119 443 l 885 722 l 846 760 l 817 796 z "},"X":{"ha":1099,"x_min":53,"x_max":1111,"o":"m 69 207 l 193 207 q 233 224 206 207 q 289 267 260 240 q 342 323 318 293 q 372 381 365 353 q 314 461 343 421 q 244 539 285 501 q 212 558 231 551 q 175 569 193 565 q 143 573 157 572 q 125 574 129 574 l 69 574 l 69 779 l 393 779 q 460 763 431 779 q 510 725 489 747 q 548 680 532 703 q 576 643 564 657 q 588 660 578 643 q 619 701 599 678 q 668 747 639 724 q 735 779 697 769 l 1029 779 l 1029 574 l 858 574 q 828 558 847 574 q 790 519 808 542 q 756 472 771 496 q 742 431 742 447 q 764 358 742 397 q 820 284 786 318 q 894 228 854 250 q 968 206 933 206 l 1029 206 l 1029 0 l 707 0 q 651 14 679 0 q 598 48 624 28 q 550 92 572 68 q 511 135 528 115 q 506 142 508 139 q 501 147 504 144 q 448 81 475 107 q 394 38 421 56 q 323 7 361 14 q 244 0 285 0 l 69 0 l 69 207 m 53 -17 l 61 -17 l 126 -82 l 314 -82 q 396 -75 357 -82 q 471 -42 435 -68 q 520 -3 496 -25 q 568 51 544 18 q 576 44 572 47 q 585 38 581 40 l 617 7 q 691 -54 650 -26 q 776 -82 732 -82 l 1111 -82 l 1111 149 l 1046 214 l 1046 222 l 968 222 q 913 236 942 222 q 856 272 883 250 q 824 361 824 319 q 836 399 824 376 q 866 442 849 421 q 901 477 883 463 q 928 492 918 492 l 1111 492 l 1111 722 l 1046 788 l 1046 796 l 731 796 q 678 774 701 788 q 635 743 654 760 q 601 708 615 726 q 576 676 586 690 l 551 703 q 523 735 539 719 q 488 765 507 751 q 444 788 468 779 q 393 796 421 796 l 53 796 l 53 557 l 61 557 l 126 492 l 194 492 q 228 489 200 492 q 283 474 256 486 q 338 403 313 438 l 336 404 q 338 401 338 401 q 339 400 338 403 l 350 383 q 353 379 350 382 q 322 326 344 354 q 275 276 300 299 q 227 238 250 253 q 193 224 204 224 l 53 224 l 53 -17 z "},"Y":{"ha":1129,"x_min":53,"x_max":1142,"o":"m 643 503 q 647 508 644 503 q 653 518 650 513 l 653 796 l 1076 796 l 1076 788 l 1142 722 l 1142 131 q 1129 47 1142 86 q 1094 -20 1117 8 q 1041 -65 1072 -49 q 971 -82 1010 -82 l 133 -82 l 68 -17 l 60 -17 l 60 221 l 251 221 q 183 269 213 238 l 143 310 q 78 377 104 338 q 53 458 53 417 l 53 796 l 475 796 l 475 788 l 540 722 l 540 503 l 643 503 m 669 517 q 659 497 667 508 q 643 486 651 486 l 488 486 q 467 499 472 486 q 458 519 463 513 l 458 779 l 69 779 l 69 458 q 86 396 69 426 q 128 342 103 365 q 186 303 154 318 q 250 288 218 288 l 669 288 l 669 256 q 658 217 669 228 q 619 204 647 207 l 76 204 l 76 0 l 901 0 q 967 15 938 0 q 1017 58 996 31 q 1049 122 1038 85 q 1060 200 1060 158 l 1060 779 l 669 779 l 669 517 z "},"Z":{"ha":1350,"x_min":53,"x_max":1363,"o":"m 1069 172 l 1065 176 l 1069 172 m 1297 222 l 1297 214 l 1363 149 l 1363 -82 l 844 -82 q 753 -58 799 -82 q 671 3 707 -33 l 635 38 q 542 146 572 85 l 367 463 l 367 461 q 358 476 363 468 q 346 493 353 483 l 126 493 l 61 558 l 53 558 l 53 796 l 564 796 q 616 784 589 796 q 669 754 643 772 q 717 713 694 736 q 757 669 740 690 l 786 640 q 844 564 826 600 l 1022 244 q 1026 235 1024 240 q 1032 224 1028 229 q 1039 222 1033 222 l 1297 222 m 1039 206 q 1012 217 1026 206 q 983 245 997 229 q 959 278 969 261 q 944 304 949 294 l 764 628 q 731 675 753 649 q 682 724 710 701 q 624 763 654 747 q 564 779 593 779 l 69 779 l 69 575 l 279 575 q 306 565 292 575 q 333 541 319 556 q 356 511 346 526 q 374 485 367 496 l 557 153 q 594 98 571 125 q 647 49 618 71 q 709 13 676 26 q 775 0 742 0 l 1281 0 l 1281 206 l 1039 206 z "},"[":{"ha":653,"x_min":53,"x_max":665,"o":"m 583 650 l 460 650 l 460 129 l 574 129 l 574 -75 l 69 -75 l 69 854 l 583 854 l 583 650 m 600 871 l 53 871 l 53 -92 l 61 -92 l 126 -157 l 656 -157 l 656 72 l 590 138 l 590 146 l 542 146 l 542 568 l 665 568 l 665 797 l 600 863 l 600 871 z "},"\\":{"ha":1204,"x_min":15,"x_max":1247,"o":"m 693 -17 l 688 -17 l 15 796 l 514 796 l 540 764 l 582 722 l 1247 -82 l 758 -82 l 693 -17 m 1151 0 l 506 779 l 50 779 l 696 0 l 1151 0 z "},"]":{"ha":653,"x_min":53,"x_max":665,"o":"m 53 871 l 600 871 l 600 863 l 665 797 l 665 -157 l 136 -157 l 71 -92 l 63 -92 l 63 146 l 176 146 l 176 568 l 126 568 l 61 633 l 53 633 l 53 871 m 69 650 l 193 650 l 193 129 l 79 129 l 79 -75 l 583 -75 l 583 854 l 69 854 l 69 650 z "},"^":{"ha":1340,"x_min":53,"x_max":1383,"o":"m 764 706 l 797 674 q 802 668 800 671 q 807 663 804 665 l 815 654 l 814 654 q 821 644 817 649 l 826 640 l 1383 -83 l 896 -83 l 831 -18 l 825 -18 l 539 371 l 539 -82 l 126 -82 l 61 -17 l 53 -17 l 53 796 l 643 796 q 674 788 658 796 q 703 769 689 781 q 731 744 718 757 q 754 719 744 731 l 753 719 q 756 717 753 717 l 760 713 l 764 706 m 747 703 q 728 723 740 710 q 703 749 717 736 q 674 770 689 761 q 643 779 658 779 l 69 779 l 69 0 l 457 0 l 457 465 q 464 469 457 467 q 475 475 471 472 q 485 472 482 475 q 492 463 488 469 l 832 -1 l 1289 -1 l 747 703 z "},"_":{"ha":874,"x_min":53,"x_max":886,"o":"m 821 221 l 821 213 l 886 147 l 886 -82 l 126 -82 l 61 -17 l 53 -17 l 53 221 l 821 221 m 69 204 l 69 0 l 804 0 l 804 204 l 69 204 z "},"`":{"ha":2085,"x_min":53,"x_max":2097,"o":"m 1043 788 l 1108 722 l 1108 493 l 822 493 l 822 58 l 1325 714 q 1344 736 1331 722 q 1374 764 1357 750 q 1408 788 1390 778 q 1443 797 1426 797 l 2032 797 l 2032 789 l 2097 724 l 2097 -81 l 1685 -81 l 1619 -15 l 1611 -15 l 1611 303 l 1328 -82 l 842 -82 l 822 -62 l 822 -82 l 408 -82 l 343 -17 l 335 -17 l 335 493 l 126 493 l 61 558 l 53 558 l 53 796 l 1043 796 l 1043 788 m 1253 0 l 1594 464 q 1601 474 1599 471 q 1611 476 1604 476 q 1622 471 1615 474 q 1628 467 1628 468 l 1628 1 l 2015 1 l 2015 781 l 1443 781 q 1413 772 1429 781 q 1381 750 1396 763 q 1355 725 1367 738 q 1338 704 1343 713 l 797 0 l 1253 0 m 1026 779 l 69 779 l 69 575 l 351 575 l 351 0 l 740 0 l 740 575 l 1026 575 l 1026 779 z "},"a":{"ha":1339,"x_min":18,"x_max":1351,"o":"m 31 -18 l 18 -18 l 579 713 q 598 735 585 721 q 628 763 611 749 q 663 786 644 776 q 697 796 681 796 l 1286 796 l 1286 788 l 1351 722 l 1351 -82 l 939 -82 l 874 -17 l 865 -17 l 865 301 l 582 -83 l 96 -83 l 31 -18 m 507 -1 l 849 463 q 856 472 853 469 q 865 475 858 475 q 876 469 869 472 q 882 465 882 467 l 882 0 l 1269 0 l 1269 779 l 697 779 q 667 770 683 779 q 635 749 650 761 q 609 724 621 736 q 592 703 597 711 l 51 -1 l 507 -1 z "},"b":{"ha":1147,"x_min":53,"x_max":1160,"o":"m 61 -17 l 53 -17 l 53 796 l 867 796 q 970 767 926 796 q 1043 697 1014 739 l 1075 667 l 1081 661 q 1139 571 1119 622 q 1158 474 1158 519 q 1147 394 1158 435 q 1108 325 1135 353 q 1149 252 1138 293 q 1160 167 1160 211 q 1149 81 1160 125 q 1111 1 1138 38 q 1042 -58 1085 -35 q 938 -82 1000 -82 l 126 -82 l 61 -17 m 868 0 q 967 22 926 0 q 1032 79 1007 44 q 1067 156 1057 114 q 1078 236 1078 197 q 1066 324 1078 281 q 1021 396 1054 367 q 1064 462 1051 419 q 1076 543 1076 504 q 1063 622 1076 581 q 1022 699 1049 664 q 957 756 996 733 q 867 779 918 779 l 69 779 l 69 0 l 868 0 m 647 293 q 687 283 676 293 q 697 251 697 274 q 686 218 697 232 q 649 204 675 204 l 457 204 l 457 293 l 647 293 m 457 575 l 647 575 q 685 561 674 575 q 696 528 696 547 q 685 495 696 504 q 646 486 675 486 l 457 486 l 457 575 z "},"c":{"ha":1032,"x_min":53,"x_max":1044,"o":"m 963 575 l 488 575 q 466 560 474 575 q 458 533 458 544 l 458 236 q 468 213 460 222 q 488 204 476 204 l 954 204 l 954 0 l 250 0 q 186 15 218 0 q 128 53 154 29 q 86 107 103 76 q 69 171 69 138 l 69 581 q 85 652 69 617 q 126 716 100 688 q 186 762 151 744 q 260 779 221 779 l 963 779 l 963 575 m 979 796 l 260 796 q 179 776 217 796 q 113 726 142 757 q 69 658 85 696 q 53 581 53 619 l 53 171 q 78 87 53 126 q 143 19 104 47 l 182 -18 q 247 -64 210 -46 q 319 -82 283 -82 l 1036 -82 l 1036 147 l 971 213 l 971 221 l 540 221 l 540 464 q 545 483 540 472 q 557 493 550 493 l 1044 493 l 1044 722 l 979 788 l 979 796 z "},"d":{"ha":1138,"x_min":53,"x_max":1150,"o":"m 540 225 l 601 225 q 636 236 624 225 q 654 264 649 247 q 661 301 660 281 q 663 340 663 321 l 663 435 q 662 456 663 444 q 660 478 661 467 l 540 478 l 540 225 m 61 -17 l 53 -17 l 53 796 l 915 796 q 985 771 951 796 q 1044 710 1019 746 l 1081 674 q 1131 604 1111 643 q 1150 529 1150 565 l 1150 83 q 1137 26 1150 56 q 1103 -26 1124 -3 q 1056 -66 1082 -50 q 1003 -82 1029 -82 l 126 -82 l 61 -17 m 933 0 q 982 15 958 0 q 1025 51 1006 29 q 1056 101 1044 74 q 1068 153 1068 128 l 1068 599 q 1055 658 1068 626 q 1020 717 1042 690 q 971 762 999 744 q 915 779 943 779 l 69 779 l 69 0 l 933 0 m 621 560 q 652 547 640 560 q 670 516 664 535 q 678 475 676 497 q 679 435 679 453 l 679 340 q 678 296 679 319 q 669 253 676 272 q 646 221 661 233 q 601 208 631 208 l 458 208 l 458 560 l 621 560 z "},"e":{"ha":1032,"x_min":53,"x_max":1044,"o":"m 963 575 l 488 575 q 465 558 474 575 q 457 531 457 542 q 468 501 457 515 q 497 488 479 488 l 963 488 l 963 289 l 488 289 q 474 276 485 289 q 458 256 463 264 q 458 251 458 254 q 457 246 457 249 q 458 240 457 243 q 458 236 458 238 q 474 216 463 228 q 488 204 485 204 l 963 204 l 963 0 l 250 0 q 186 15 218 0 q 128 53 154 29 q 86 107 103 76 q 69 171 69 138 l 69 581 q 85 652 69 617 q 126 716 100 688 q 186 762 151 744 q 260 779 221 779 l 963 779 l 963 575 m 979 796 l 260 796 q 179 776 217 796 q 113 726 142 757 q 69 658 85 696 q 53 581 53 619 l 53 171 q 78 87 53 126 q 143 19 104 47 l 182 -18 q 247 -64 210 -46 q 319 -82 283 -82 l 1044 -82 l 1044 147 l 985 207 l 1044 207 l 1044 431 l 982 493 l 1044 493 l 1044 722 l 979 788 l 979 796 z "},"f":{"ha":1032,"x_min":53,"x_max":1044,"o":"m 963 575 l 488 575 q 465 558 474 575 q 457 531 457 542 q 468 501 457 515 q 497 488 479 488 l 963 488 l 963 289 l 488 289 q 474 276 485 289 q 458 256 463 264 l 458 0 l 69 0 l 69 581 q 85 652 69 617 q 126 716 100 688 q 186 762 151 744 q 260 779 221 779 l 963 779 l 963 575 m 979 796 l 260 796 q 179 776 217 796 q 113 726 142 757 q 69 658 85 696 q 53 581 53 619 l 53 -17 l 61 -17 l 126 -82 l 540 -82 l 540 182 q 549 198 543 189 q 557 207 556 207 l 1044 207 l 1044 431 l 982 493 l 1044 493 l 1044 722 l 979 788 l 979 796 z "},"g":{"ha":1147,"x_min":53,"x_max":1160,"o":"m 540 221 l 583 221 l 540 264 l 540 221 m 983 493 q 1035 460 1011 479 q 1074 417 1058 440 l 1115 375 q 1147 332 1135 356 q 1160 282 1160 308 l 1160 101 q 1142 33 1160 65 q 1097 -26 1125 0 q 1035 -67 1069 -51 q 967 -82 1000 -82 l 319 -82 q 247 -64 283 -82 q 183 -18 211 -46 l 143 22 q 78 90 104 50 q 53 171 53 129 l 53 581 q 69 658 53 619 q 113 726 85 696 q 179 776 142 757 q 260 796 217 796 l 1090 796 l 1090 788 l 1156 722 l 1156 493 l 983 493 m 1078 351 q 1060 408 1078 381 q 1016 455 1043 435 q 957 487 989 475 q 897 499 925 499 l 536 499 l 536 293 l 690 293 l 690 236 q 678 216 686 228 q 660 204 671 204 l 488 204 q 467 216 472 204 q 458 236 463 228 l 458 531 l 456 531 l 458 533 q 466 560 458 544 q 488 575 474 575 l 1074 575 l 1074 779 l 260 779 q 186 762 221 779 q 126 716 151 744 q 85 652 100 688 q 69 581 69 617 l 69 171 q 86 108 69 139 q 128 54 103 78 q 186 15 154 31 q 250 0 218 0 l 897 0 q 961 15 929 0 q 1019 53 993 29 q 1062 107 1046 76 q 1078 171 1078 138 l 1078 351 z "},"h":{"ha":1106,"x_min":53,"x_max":1118,"o":"m 475 788 l 540 722 l 540 504 l 629 504 l 629 796 l 1053 796 l 1053 788 l 1118 722 l 1118 -82 l 703 -82 l 638 -17 l 629 -17 l 629 207 l 540 207 l 540 -82 l 126 -82 l 61 -17 l 53 -17 l 53 796 l 475 796 l 475 788 m 646 488 l 458 488 l 458 779 l 69 779 l 69 0 l 458 0 l 458 289 l 646 289 l 646 0 l 1036 0 l 1036 779 l 646 779 l 646 488 z "},"i":{"ha":528,"x_min":53,"x_max":540,"o":"m 53 796 l 475 796 l 475 788 l 540 722 l 540 -82 l 126 -82 l 61 -17 l 53 -17 l 53 796 m 69 0 l 458 0 l 458 779 l 69 779 l 69 0 z "},"j":{"ha":1032,"x_min":53,"x_max":1044,"o":"m 963 200 q 952 122 963 158 q 921 58 942 85 q 871 15 900 31 q 804 0 842 0 l 69 0 l 69 204 l 521 204 q 562 217 550 207 q 574 256 574 228 l 574 779 l 963 779 l 963 200 m 126 -82 l 874 -82 q 946 -65 914 -82 q 999 -20 978 -49 q 1033 47 1021 8 q 1044 131 1044 86 l 1044 722 l 979 788 l 979 796 l 557 796 l 557 256 q 549 229 557 236 q 519 221 540 222 l 53 221 l 53 -17 l 61 -17 l 126 -82 z "},"k":{"ha":1099,"x_min":53,"x_max":1111,"o":"m 824 349 q 846 271 824 311 q 907 235 875 247 q 968 222 939 222 l 1046 222 l 1046 214 l 1111 149 l 1111 -82 l 776 -82 q 691 -54 732 -82 q 617 7 650 -26 l 592 32 q 565 54 578 43 q 540 78 551 65 l 540 -82 l 126 -82 l 61 -17 l 53 -17 l 53 796 l 475 796 l 475 788 l 540 722 l 540 683 q 569 714 550 696 q 612 749 588 732 q 667 778 636 765 q 733 796 697 792 l 1046 796 l 1046 788 l 1111 722 l 1111 492 l 967 492 q 925 478 950 492 q 878 442 900 464 q 840 396 856 421 q 824 349 824 371 m 511 135 q 550 92 528 115 q 598 48 572 68 q 651 14 624 28 q 707 0 679 0 l 1029 0 l 1029 206 l 968 206 q 894 224 933 206 q 820 272 854 242 q 764 340 786 301 q 742 418 742 378 q 759 470 742 443 q 801 520 776 497 q 851 558 825 543 q 897 574 878 574 l 1029 574 l 1029 779 l 735 779 q 661 758 694 775 q 603 722 628 742 q 564 685 579 703 q 544 660 549 667 l 544 657 q 494 583 510 625 q 458 499 478 540 l 458 779 l 69 779 l 69 0 l 458 0 l 458 228 l 511 135 z "},"l":{"ha":1032,"x_min":53,"x_max":1044,"o":"m 458 779 l 458 256 q 470 217 458 228 q 511 204 482 207 l 963 204 l 963 0 l 229 0 q 163 15 193 0 q 113 58 133 31 q 81 120 92 85 q 69 197 69 156 l 69 779 l 458 779 m 53 796 l 53 197 q 77 83 53 133 q 144 6 101 32 l 188 -36 q 299 -82 233 -82 l 1044 -82 l 1044 147 l 979 213 l 979 221 l 540 221 l 540 722 l 475 788 l 475 796 l 53 796 z "},"m":{"ha":1596,"x_min":53,"x_max":1608,"o":"m 725 665 q 765 621 744 644 q 806 574 786 597 q 858 640 826 601 q 922 713 889 678 q 985 772 954 747 q 1036 796 1015 796 l 1543 796 l 1543 788 l 1608 722 l 1608 -82 l 1194 -82 l 1129 -17 l 1121 -17 l 1121 193 l 892 -82 l 849 -82 l 783 -17 l 778 -17 l 540 264 l 540 -82 l 126 -82 l 61 -17 l 53 -17 l 53 796 l 569 796 q 599 785 582 796 q 636 758 617 775 q 676 718 656 740 q 715 674 696 696 l 725 665 m 1138 388 l 1138 0 l 1526 0 l 1526 779 l 1036 779 q 998 763 1021 779 q 949 722 975 747 q 899 668 924 697 q 852 613 874 639 q 817 566 831 586 q 800 540 803 546 l 797 540 q 794 544 797 542 q 758 595 786 557 q 694 674 729 633 q 625 747 660 715 q 569 779 590 779 l 69 779 l 69 0 l 458 0 l 458 388 l 785 0 l 815 0 l 1138 388 z "},"n":{"ha":1332,"x_min":53,"x_max":1344,"o":"m 547 796 q 594 783 569 796 q 644 750 619 769 q 690 708 668 731 q 726 667 711 686 l 747 646 q 804 576 788 606 l 860 482 l 860 796 l 1279 796 l 1279 788 l 1344 722 l 1344 -82 l 885 -82 q 807 -61 843 -82 q 740 -10 771 -40 l 711 18 q 650 74 678 42 q 603 135 622 106 l 540 231 l 540 -82 l 126 -82 l 61 -17 l 53 -17 l 53 796 l 547 796 m 876 382 l 724 639 q 692 681 713 657 q 647 727 672 706 q 596 764 622 749 q 547 779 569 779 l 69 779 l 69 0 l 458 0 l 458 388 l 618 144 q 656 95 635 121 q 701 49 676 69 q 755 14 726 28 q 815 0 783 0 l 1263 0 l 1263 779 l 876 779 l 876 382 z "},"o":{"ha":1147,"x_min":53,"x_max":1160,"o":"m 539 221 l 660 221 q 667 228 663 221 q 674 242 671 235 l 674 493 l 557 493 q 544 480 549 490 q 539 461 539 469 l 539 221 m 888 796 q 984 768 940 796 q 1056 699 1028 740 l 1093 661 q 1142 591 1124 631 q 1160 511 1160 551 l 1160 101 q 1142 33 1160 65 q 1097 -26 1125 0 q 1035 -67 1069 -51 q 967 -82 1000 -82 l 319 -82 q 247 -64 283 -82 q 182 -18 210 -46 l 143 19 q 78 87 104 47 q 53 171 53 126 l 53 581 q 69 658 53 619 q 113 726 85 696 q 179 776 142 757 q 260 796 217 796 l 888 796 m 457 531 q 464 557 457 542 q 485 575 471 572 l 660 575 q 683 558 675 575 q 690 531 690 542 l 690 236 q 677 216 686 228 q 660 204 668 204 l 488 204 q 464 217 469 204 q 457 236 458 229 l 457 531 m 260 779 q 186 762 221 779 q 126 716 151 744 q 85 652 100 688 q 69 581 69 617 l 69 171 q 86 107 69 138 q 128 53 103 76 q 186 15 154 29 q 250 0 218 0 l 897 0 q 961 15 929 0 q 1019 53 993 29 q 1062 107 1046 76 q 1078 171 1078 138 l 1078 581 q 1063 652 1078 617 q 1022 716 1047 688 q 961 762 996 744 q 888 779 926 779 l 260 779 z "},"p":{"ha":1147,"x_min":53,"x_max":1160,"o":"m 640 422 q 665 430 654 422 q 682 449 675 438 q 693 475 689 461 q 697 500 697 489 q 694 522 697 510 q 686 547 692 535 q 671 567 681 558 q 649 575 661 575 l 457 575 l 457 422 l 640 422 m 868 779 q 967 751 926 779 q 1032 681 1007 722 q 1067 593 1057 640 q 1078 508 1078 546 q 1067 403 1078 456 q 1031 310 1056 351 q 967 244 1007 269 q 869 218 928 218 l 457 218 l 457 0 l 69 0 l 69 779 l 868 779 m 53 796 l 53 -17 l 61 -17 l 126 -82 l 539 -82 l 539 136 l 939 136 q 1042 163 1000 136 q 1110 233 1085 190 q 1148 331 1136 276 q 1160 439 1160 385 q 1155 494 1160 464 q 1140 555 1150 524 q 1114 615 1131 586 q 1075 667 1097 643 l 1035 706 q 967 770 1008 744 q 868 796 926 796 l 53 796 m 539 493 l 681 493 q 667 457 678 475 q 640 439 657 439 l 539 439 l 539 493 m 674 536 l 653 558 l 672 538 q 674 536 674 538 q 674 536 674 536 z "},"q":{"ha":1147,"x_min":53,"x_max":1256,"o":"m 458 236 q 467 216 463 228 q 488 204 472 204 l 664 204 q 676 216 667 204 q 690 236 686 228 l 690 531 q 683 558 690 542 q 660 575 675 575 l 485 575 q 464 557 471 572 q 457 531 457 542 q 458 513 458 529 l 458 494 l 458 463 l 458 404 l 458 314 l 458 236 m 1174 -207 l 632 -207 q 567 -193 599 -207 q 506 -158 535 -179 q 453 -109 476 -136 q 414 -56 429 -82 l 383 0 l 250 0 q 186 15 218 0 q 128 53 154 29 q 86 107 103 76 q 69 171 69 138 l 69 581 q 85 652 69 617 q 126 716 100 688 q 186 762 151 744 q 260 779 221 779 l 888 779 q 961 762 926 779 q 1022 716 996 744 q 1063 652 1047 688 q 1078 581 1078 617 l 1078 171 q 1062 109 1078 139 q 1021 56 1046 79 q 965 17 996 32 q 904 0 935 1 l 1174 0 l 1174 -207 m 1190 17 l 1131 17 q 1160 101 1160 57 l 1160 511 q 1142 591 1160 551 q 1093 661 1124 631 l 1056 699 q 984 768 1028 740 q 888 796 940 796 l 260 796 q 179 776 217 796 q 113 726 142 757 q 69 658 85 696 q 53 581 53 619 l 53 171 q 78 87 53 126 q 143 19 104 47 l 182 -18 q 247 -64 210 -46 q 319 -82 283 -82 l 410 -82 q 449 -130 426 -106 q 500 -174 472 -154 l 529 -203 q 610 -264 565 -239 q 701 -289 656 -289 l 1256 -289 l 1256 -57 l 1190 8 l 1190 17 m 540 443 q 539 463 540 458 q 544 481 539 471 q 557 493 549 490 l 674 493 l 674 242 q 667 228 671 235 q 664 221 663 221 l 540 221 l 540 443 m 475 236 l 475 239 q 475 236 478 236 z "},"r":{"ha":1179,"x_min":53,"x_max":1267,"o":"m 961 297 l 961 296 l 961 297 m 539 439 l 640 439 q 667 457 657 439 q 681 493 678 475 l 539 493 l 539 439 m 61 -17 l 53 -17 l 53 796 l 882 796 q 988 772 947 796 q 1053 711 1029 747 l 1094 669 q 1146 578 1132 632 q 1160 474 1160 525 q 1153 399 1160 439 q 1131 323 1146 358 q 1092 263 1117 288 q 1032 238 1067 239 l 1032 232 q 1031 226 1032 226 l 1267 -82 l 756 -82 l 690 -17 l 685 -17 l 572 132 q 551 136 561 136 l 549 136 q 540 135 542 133 l 539 136 l 539 -82 l 126 -82 l 61 -17 m 457 0 l 457 208 q 464 213 457 210 q 479 218 471 215 l 482 218 q 527 204 506 218 q 564 171 549 190 l 692 0 l 1172 0 l 951 290 q 950 301 950 292 q 957 319 950 313 q 1013 342 990 319 q 1051 398 1036 364 q 1072 471 1065 432 q 1078 543 1078 510 q 1069 624 1078 582 q 1040 700 1061 665 q 980 757 1018 735 q 882 779 942 779 l 69 779 l 69 0 l 457 0 m 649 575 q 671 567 661 575 q 686 548 681 560 q 694 524 692 536 q 697 501 697 511 q 693 476 697 490 q 682 451 689 463 q 665 431 675 439 q 640 422 654 422 l 457 422 l 457 575 l 649 575 z "},"s":{"ha":1306,"x_min":53,"x_max":1318,"o":"m 61 -17 l 53 -17 l 53 222 l 274 222 q 294 231 283 222 q 317 254 306 240 q 337 283 328 268 q 353 308 346 297 l 533 635 q 565 675 542 649 q 618 728 588 701 q 683 776 649 756 q 749 796 718 796 l 1253 796 l 1253 788 l 1318 722 l 1318 493 l 1103 493 q 1078 483 1092 493 q 1053 460 1065 474 q 1032 432 1042 447 q 1018 407 1022 417 l 836 78 q 797 22 821 50 q 742 -30 772 -7 q 678 -67 713 -53 q 607 -82 644 -82 l 126 -82 l 61 -17 m 538 0 q 605 14 572 0 q 666 50 638 28 q 717 99 694 72 q 756 153 740 126 l 939 485 q 953 511 943 496 q 978 541 964 526 q 1006 565 992 556 q 1033 575 1021 575 l 1236 575 l 1236 779 l 749 779 q 688 760 719 779 q 627 717 656 742 q 577 666 599 692 q 549 628 556 640 l 367 299 q 349 272 360 288 q 325 241 338 256 q 299 216 313 226 q 274 206 286 206 l 69 206 l 69 0 l 538 0 z "},"t":{"ha":1096,"x_min":53,"x_max":1108,"o":"m 1026 575 l 740 575 l 740 0 l 351 0 l 351 575 l 69 575 l 69 779 l 1026 779 l 1026 575 m 1043 796 l 53 796 l 53 558 l 61 558 l 126 493 l 335 493 l 335 -17 l 343 -17 l 408 -82 l 822 -82 l 822 493 l 1108 493 l 1108 722 l 1043 788 l 1043 796 z "},"u":{"ha":1147,"x_min":53,"x_max":1160,"o":"m 458 236 q 467 216 463 228 q 488 204 472 204 l 660 204 q 678 215 671 204 q 690 235 686 226 l 690 779 l 1078 779 l 1078 171 q 1062 107 1078 138 q 1019 53 1046 76 q 961 15 993 29 q 897 0 929 0 l 250 0 q 186 15 218 0 q 128 54 154 31 q 86 108 103 78 q 69 171 69 139 l 69 779 l 458 779 l 458 236 m 475 796 l 53 796 l 53 171 q 78 90 53 129 q 143 22 104 50 l 183 -18 q 247 -64 211 -46 q 319 -82 283 -82 l 967 -82 q 1035 -67 1000 -82 q 1097 -26 1069 -51 q 1142 33 1125 0 q 1160 101 1160 65 l 1160 722 l 1094 788 l 1094 796 l 674 796 l 674 240 q 667 227 671 233 q 660 221 663 221 l 540 221 l 540 722 l 475 788 l 475 796 z "},"v":{"ha":1339,"x_min":18,"x_max":1351,"o":"m 507 779 l 846 319 q 855 308 851 313 q 865 303 858 303 q 876 308 869 306 q 882 313 882 311 l 882 778 l 1269 778 l 1269 -1 l 697 -1 q 666 8 682 -1 q 635 29 650 17 q 609 55 621 42 q 592 75 597 68 l 51 779 l 507 779 m 18 796 l 579 64 q 603 35 586 53 q 643 1 621 17 l 679 -33 q 720 -67 697 -51 q 767 -83 743 -83 l 1351 -83 l 1351 721 l 1286 786 l 1286 794 l 865 794 l 865 338 l 582 722 l 529 774 l 514 796 l 18 796 z "},"w":{"ha":1596,"x_min":53,"x_max":1608,"o":"m 1014 221 q 1017 218 1014 218 l 1014 221 m 475 796 l 475 788 l 540 722 l 540 221 l 575 221 q 579 226 576 221 q 585 235 582 231 l 588 238 l 588 796 l 1011 796 l 1011 788 l 1076 722 l 1076 221 l 1108 221 q 1115 228 1111 221 q 1122 242 1119 235 l 1122 796 l 1543 796 l 1543 788 l 1608 722 l 1608 101 q 1591 33 1608 65 q 1546 -26 1574 0 q 1483 -67 1518 -51 q 1415 -82 1449 -82 l 319 -82 q 247 -64 283 -82 q 183 -18 211 -46 l 143 22 q 78 90 104 50 q 53 171 53 129 l 53 796 l 475 796 m 69 779 l 69 171 q 86 108 69 139 q 128 54 103 78 q 186 15 154 31 q 250 0 218 0 l 1346 0 q 1410 15 1378 0 q 1468 53 1442 29 q 1510 107 1494 76 q 1526 171 1526 138 l 1526 779 l 1139 779 l 1139 236 q 1127 216 1135 228 q 1108 204 1119 204 l 1022 204 q 1002 216 1007 204 q 994 236 997 228 l 994 779 l 604 779 l 604 233 l 603 231 q 592 214 599 224 q 575 204 585 204 l 488 204 q 467 216 472 204 q 458 236 463 228 l 458 779 l 69 779 z "},"x":{"ha":1099,"x_min":53,"x_max":1111,"o":"m 824 361 q 856 272 824 319 q 913 236 883 250 q 968 222 942 222 l 1046 222 l 1046 214 l 1111 149 l 1111 -82 l 776 -82 q 691 -54 732 -82 q 617 7 650 -26 l 585 38 q 576 44 581 40 q 568 51 572 47 q 520 -3 544 18 q 471 -42 496 -25 q 396 -75 435 -68 q 314 -82 357 -82 l 126 -82 l 61 -17 l 53 -17 l 53 224 l 193 224 q 227 238 204 224 q 275 276 250 253 q 322 326 300 299 q 353 379 344 354 q 350 383 350 382 l 339 400 q 338 401 338 403 q 336 404 338 401 l 338 403 q 283 474 313 438 q 228 489 256 486 q 194 492 200 492 l 126 492 l 61 557 l 53 557 l 53 796 l 393 796 q 444 788 421 796 q 488 765 468 779 q 523 735 507 751 q 551 703 539 719 l 576 676 q 601 708 586 690 q 635 743 615 726 q 678 774 654 760 q 731 796 701 788 l 1046 796 l 1046 788 l 1111 722 l 1111 492 l 928 492 q 901 477 918 492 q 866 442 883 463 q 836 399 849 421 q 824 361 824 376 m 244 0 q 323 7 285 0 q 394 38 361 14 q 448 81 421 56 q 501 147 475 107 q 506 142 504 144 q 511 135 508 139 q 550 92 528 115 q 598 48 572 68 q 651 14 624 28 q 707 0 679 0 l 1029 0 l 1029 206 l 968 206 q 894 228 933 206 q 820 284 854 250 q 764 358 786 318 q 742 431 742 397 q 756 472 742 447 q 790 519 771 496 q 828 558 808 542 q 858 574 847 574 l 1029 574 l 1029 779 l 735 779 q 668 747 697 769 q 619 701 639 724 q 588 660 599 678 q 576 643 578 643 q 548 680 564 657 q 510 725 532 703 q 460 763 489 747 q 393 779 431 779 l 69 779 l 69 574 l 125 574 q 143 573 129 574 q 175 569 157 572 q 212 558 193 565 q 244 539 231 551 q 314 461 285 501 q 372 381 343 421 q 342 323 365 353 q 289 267 318 293 q 233 224 260 240 q 193 207 206 207 l 69 207 l 69 0 l 244 0 z "},"y":{"ha":1099,"x_min":53,"x_max":1111,"o":"m 888 574 q 851 552 875 568 q 802 515 826 536 q 760 468 778 493 q 742 419 742 443 l 742 0 l 353 0 l 353 394 q 309 470 339 442 q 247 528 279 499 q 210 553 229 544 q 173 567 190 563 q 142 572 156 571 q 125 574 129 574 l 69 574 l 69 779 l 383 779 q 450 763 421 779 q 501 723 479 746 q 540 676 524 700 q 571 639 557 653 q 583 657 572 639 q 612 699 593 675 q 659 745 631 722 q 725 779 688 768 l 1029 779 l 1029 574 l 888 574 m 126 492 l 194 492 q 208 491 197 492 q 234 486 219 490 q 266 474 249 482 q 300 454 283 467 q 336 389 325 425 l 336 -17 l 344 -17 l 410 -82 l 824 -82 l 824 350 q 840 393 824 371 q 879 435 857 415 q 924 469 901 454 q 960 492 947 485 l 1111 492 l 1111 722 l 1046 788 l 1046 796 l 721 796 q 667 772 692 788 q 624 738 643 756 q 592 703 606 721 q 569 671 578 685 l 544 697 q 478 764 517 732 q 383 796 440 796 l 53 796 l 53 557 l 61 557 l 126 492 z "},"z":{"ha":1304,"x_min":53,"x_max":1317,"o":"m 769 0 q 703 14 736 0 q 640 50 669 28 q 588 99 611 72 q 550 153 564 126 l 367 485 q 349 511 360 496 q 326 541 339 526 q 299 565 313 556 q 271 575 285 575 l 69 575 l 69 779 l 557 779 q 618 760 586 779 q 678 717 650 742 q 727 666 706 692 q 757 628 749 640 l 936 304 q 952 278 942 294 q 976 245 963 261 q 1003 217 989 229 q 1032 206 1018 206 l 1235 206 l 1235 0 l 769 0 m 1017 242 l 1014 243 l 839 560 q 815 592 832 571 q 775 636 799 613 l 749 661 q 709 706 732 682 q 661 749 686 729 q 609 783 636 769 q 557 796 582 796 l 53 796 l 53 558 l 61 558 l 126 493 l 339 493 q 351 476 346 483 q 360 461 356 468 l 360 463 l 535 146 q 631 36 565 86 l 664 4 q 746 -57 700 -32 q 839 -82 792 -82 l 1317 -82 l 1317 149 l 1251 214 l 1251 222 l 1032 222 l 1026 222 q 1017 242 1019 235 m 371 476 l 369 478 q 371 476 371 478 z "},"{":{"ha":2121,"x_min":53,"x_max":2133,"o":"m 914 222 l 1089 222 q 1110 231 1099 222 q 1132 254 1121 240 q 1152 283 1143 268 q 1168 308 1161 297 l 1269 493 l 1103 493 q 1078 483 1092 493 q 1053 460 1065 474 q 1032 432 1042 447 q 1018 407 1022 417 l 914 222 m 1318 579 l 1349 635 q 1380 675 1357 649 q 1433 728 1403 701 q 1499 776 1464 756 q 1564 796 1533 796 l 2068 796 l 2068 788 l 2133 722 l 2133 493 l 1918 493 q 1894 483 1907 493 q 1869 460 1881 474 q 1847 432 1857 447 q 1833 407 1838 417 l 1651 78 q 1612 22 1636 50 q 1558 -30 1588 -7 q 1494 -67 1528 -53 q 1422 -82 1460 -82 l 942 -82 l 876 -17 l 868 -17 l 868 135 l 836 78 q 797 22 821 50 q 742 -30 772 -7 q 678 -67 713 -53 q 607 -82 644 -82 l 126 -82 l 61 -17 l 53 -17 l 53 222 l 274 222 q 294 231 283 222 q 317 254 306 240 q 337 283 328 268 q 353 308 346 297 l 533 635 q 565 675 542 649 q 618 728 588 701 q 683 776 649 756 q 749 796 718 796 l 1253 796 l 1253 788 l 1318 722 l 1318 579 m 1353 0 q 1420 14 1388 0 q 1481 50 1453 28 q 1533 99 1510 72 q 1571 153 1556 126 l 1754 485 q 1769 511 1758 496 q 1793 541 1779 526 q 1822 565 1807 556 q 1849 575 1836 575 l 2051 575 l 2051 779 l 1564 779 q 1503 760 1535 779 q 1442 717 1471 742 q 1392 666 1414 692 q 1364 628 1371 640 l 1182 299 q 1164 272 1175 288 q 1140 241 1153 256 q 1115 216 1128 226 q 1089 206 1101 206 l 885 206 l 885 0 l 1353 0 m 538 0 q 605 14 572 0 q 666 50 638 28 q 717 99 694 72 q 756 153 740 126 l 939 485 q 953 511 943 496 q 978 541 964 526 q 1006 565 992 556 q 1033 575 1021 575 l 1236 575 l 1236 779 l 749 779 q 688 760 719 779 q 627 717 656 742 q 577 666 599 692 q 549 628 556 640 l 367 299 q 349 272 360 288 q 325 241 338 256 q 299 216 313 226 q 274 206 286 206 l 69 206 l 69 0 l 538 0 z "},"|":{"ha":528,"x_min":53,"x_max":540,"o":"m 458 -235 l 69 -235 l 69 1014 l 458 1014 l 458 -235 m 475 1031 l 53 1031 l 53 -251 l 61 -251 l 126 -317 l 540 -317 l 540 957 l 475 1022 l 475 1031 z "},"}":{"ha":2190,"x_min":53,"x_max":2203,"o":"m 1318 567 l 1431 714 q 1449 736 1436 722 q 1479 764 1463 750 q 1514 788 1496 778 q 1549 797 1532 797 l 2138 797 l 2138 789 l 2203 724 l 2203 -81 l 1790 -81 l 1725 -15 l 1717 -15 l 1717 303 l 1433 -82 l 947 -82 l 882 -17 l 869 -17 l 1261 493 l 1103 493 q 1078 483 1092 493 q 1053 460 1065 474 q 1032 432 1042 447 q 1018 407 1022 417 l 836 78 q 797 22 821 50 q 742 -30 772 -7 q 678 -67 713 -53 q 607 -82 644 -82 l 126 -82 l 61 -17 l 53 -17 l 53 222 l 274 222 q 294 231 283 222 q 317 254 306 240 q 337 283 328 268 q 353 308 346 297 l 533 635 q 565 675 542 649 q 618 728 588 701 q 683 776 649 756 q 749 796 718 796 l 1253 796 l 1253 788 l 1318 722 l 1318 567 m 1358 0 l 1700 464 q 1707 474 1704 471 q 1717 476 1710 476 q 1727 471 1721 474 q 1733 467 1733 468 l 1733 1 l 2121 1 l 2121 781 l 1549 781 q 1518 772 1535 781 q 1487 750 1501 763 q 1460 725 1472 738 q 1443 704 1449 713 l 903 0 l 1358 0 m 538 0 q 605 14 572 0 q 666 50 638 28 q 717 99 694 72 q 756 153 740 126 l 939 485 q 953 511 943 496 q 978 541 964 526 q 1006 565 992 556 q 1033 575 1021 575 l 1236 575 l 1236 779 l 749 779 q 688 760 719 779 q 627 717 656 742 q 577 666 599 692 q 549 628 556 640 l 367 299 q 349 272 360 288 q 325 241 338 256 q 299 216 313 226 q 274 206 286 206 l 69 206 l 69 0 l 538 0 z "},"~":{"ha":2092,"x_min":53,"x_max":2104,"o":"m 1043 788 l 1108 722 l 1108 493 l 822 493 l 822 -82 l 408 -82 l 343 -17 l 335 -17 l 335 493 l 126 493 l 61 558 l 53 558 l 53 796 l 1043 796 l 1043 788 m 847 -17 l 839 -17 l 839 222 l 1060 222 q 1079 231 1068 222 q 1101 253 1090 240 q 1121 280 1111 265 q 1138 306 1131 294 l 1139 308 l 1319 635 q 1351 675 1328 649 q 1404 728 1374 701 q 1469 776 1435 756 q 1535 796 1504 796 l 2039 796 l 2039 788 l 2104 722 l 2104 493 l 1889 493 q 1865 483 1878 493 q 1840 460 1851 474 q 1818 432 1828 447 q 1804 407 1808 417 l 1622 78 q 1583 22 1607 50 q 1528 -30 1558 -7 q 1465 -67 1499 -53 q 1393 -82 1431 -82 l 913 -82 l 847 -17 m 1324 0 q 1391 14 1358 0 q 1452 50 1424 28 q 1503 99 1481 72 q 1542 153 1526 126 l 1725 485 q 1740 511 1729 496 q 1764 541 1750 526 q 1792 565 1778 556 q 1819 575 1807 575 l 2022 575 l 2022 779 l 1535 779 q 1474 760 1506 779 q 1413 717 1442 742 q 1363 666 1385 692 q 1335 628 1342 640 l 1153 299 q 1135 272 1146 288 q 1111 241 1124 256 q 1085 216 1099 226 q 1060 206 1072 206 l 856 206 l 856 0 l 1324 0 m 1026 779 l 69 779 l 69 575 l 351 575 l 351 0 l 740 0 l 740 575 l 1026 575 l 1026 779 z "},"":{"ha":328,"x_min":0,"x_max":0,"o":""},"":{"ha":1176,"x_min":53,"x_max":1189,"o":"m 53 515 l 217 515 l 217 581 q 233 658 217 619 q 277 726 249 696 q 343 776 306 757 q 424 796 381 796 l 1124 796 l 1124 788 l 1189 722 l 1189 493 l 904 493 l 956 442 l 956 328 l 936 328 l 956 308 l 956 221 l 1115 221 l 1115 213 l 1181 147 l 1181 -82 l 483 -82 q 410 -64 447 -82 q 346 -18 374 -46 l 307 19 q 242 87 268 47 q 217 171 217 126 l 217 194 l 126 194 l 61 260 l 53 260 l 53 382 l 72 382 l 61 393 l 53 393 l 53 515 m 69 410 l 233 410 l 233 365 l 69 365 l 69 276 l 233 276 l 233 171 q 250 107 233 138 q 292 53 267 76 q 350 15 318 29 q 414 0 382 0 l 1099 0 l 1099 204 l 651 204 q 632 213 640 204 q 622 236 624 222 l 622 276 l 874 276 l 874 365 l 622 365 l 622 410 l 874 410 l 874 499 l 622 499 l 622 533 q 630 560 622 544 q 651 575 638 575 l 1107 575 l 1107 779 l 424 779 q 350 762 385 779 q 290 716 315 744 q 249 652 264 688 q 233 581 233 617 l 233 499 l 69 499 l 69 410 z "},"":{"ha":465,"x_min":53,"x_max":478,"o":"m 53 128 q 67 185 53 158 q 106 231 82 211 q 163 261 131 250 q 233 272 196 272 q 330 249 286 272 q 396 190 374 226 l 439 147 l 438 147 l 440 146 q 478 58 478 108 l 478 -85 q 464 -140 478 -114 q 426 -184 450 -165 q 371 -214 403 -203 q 303 -225 339 -225 q 224 -210 261 -225 q 164 -172 188 -196 l 119 -128 q 71 -79 89 -108 q 53 -15 53 -50 l 53 128 m 69 -15 q 83 -66 69 -43 q 118 -106 96 -89 q 170 -133 140 -124 q 233 -143 200 -143 q 297 -133 267 -143 q 348 -106 326 -124 q 383 -66 369 -89 q 396 -15 396 -43 l 396 128 q 383 178 396 154 q 348 219 369 201 q 297 246 326 236 q 233 256 267 256 q 170 246 200 256 q 118 219 140 236 q 83 178 96 201 q 69 128 69 154 l 69 -15 z "},"":{"ha":1147,"x_min":53,"x_max":1160,"o":"m 475 540 q 475 543 478 543 l 475 540 m 157 14 q 81 96 110 46 q 53 199 53 146 l 53 608 q 71 676 53 642 q 117 736 89 710 q 181 779 146 763 q 250 796 217 796 l 897 796 q 989 769 943 796 q 1064 700 1035 742 l 1104 660 q 1144 603 1129 635 q 1160 539 1160 572 l 1160 358 q 1128 278 1160 314 q 1051 221 1096 242 l 1090 221 l 1090 213 l 1156 147 l 1156 -82 l 329 -82 q 255 -65 289 -82 q 193 -21 221 -49 l 157 14 m 660 575 q 678 563 671 575 q 690 543 686 551 l 690 486 l 458 486 l 458 543 q 467 563 463 551 q 488 575 472 575 l 660 575 m 1078 608 q 1062 672 1078 642 q 1019 726 1046 703 q 961 765 993 750 q 897 779 929 779 l 250 779 q 186 764 218 779 q 128 725 154 749 q 86 670 103 701 q 69 608 69 639 l 69 199 q 85 127 69 163 q 126 63 100 92 q 186 17 151 35 q 260 0 221 0 l 1074 0 l 1074 204 l 488 204 q 466 219 474 204 q 458 246 458 235 l 456 249 l 458 249 l 458 281 l 897 281 q 957 292 925 281 q 1016 324 989 304 q 1060 372 1043 344 q 1078 428 1078 399 l 1078 608 z "},"":{"ha":831,"x_min":53,"x_max":843,"o":"m 53 128 q 67 185 53 158 q 106 231 82 211 q 163 261 131 250 q 233 272 196 272 q 330 249 286 272 q 396 190 374 226 l 422 163 q 486 242 438 211 q 599 272 535 272 q 695 249 651 272 q 761 190 739 226 l 806 146 q 843 58 843 108 l 843 -85 q 829 -140 843 -114 q 792 -184 815 -165 q 736 -214 768 -203 q 668 -225 704 -225 q 590 -210 626 -225 q 529 -172 553 -196 l 485 -128 l 472 -119 q 410 -195 457 -165 q 303 -225 364 -225 q 224 -210 261 -225 q 164 -172 188 -196 l 119 -128 q 71 -79 89 -108 q 53 -15 53 -50 l 53 128 m 69 -15 q 83 -66 69 -43 q 118 -106 96 -89 q 170 -133 140 -124 q 233 -143 200 -143 q 297 -133 267 -143 q 348 -106 326 -124 q 383 -66 369 -89 q 396 -15 396 -43 l 396 128 q 383 178 396 154 q 348 219 369 201 q 297 246 326 236 q 233 256 267 256 q 170 246 200 256 q 118 219 140 236 q 83 178 96 201 q 69 128 69 154 l 69 -15 m 435 -15 q 448 -66 435 -43 q 483 -106 461 -89 q 535 -133 506 -124 q 599 -143 565 -143 q 662 -133 632 -143 q 713 -106 692 -124 q 748 -66 735 -89 q 761 -15 761 -43 l 761 128 q 748 178 761 154 q 713 219 735 201 q 662 246 692 236 q 599 256 632 256 q 535 246 565 256 q 483 219 506 236 q 448 178 461 201 q 435 128 435 154 l 435 -15 z "},"":{"ha":1190,"x_min":53,"x_max":1203,"o":"m 53 128 q 67 185 53 158 q 106 231 82 211 q 163 261 131 250 q 233 272 196 272 q 331 249 288 272 q 396 189 375 226 l 421 164 q 485 242 436 211 q 596 272 533 272 q 694 249 650 272 q 758 189 738 226 l 783 164 q 847 242 799 211 q 958 272 896 272 q 1055 249 1011 272 q 1121 190 1099 226 l 1165 146 q 1203 58 1203 108 q 1189 3 1203 29 q 1151 -41 1175 -22 q 1096 -71 1128 -60 q 1028 -82 1064 -82 q 949 -67 986 -82 q 889 -29 913 -53 l 842 17 q 838 19 839 19 q 833 22 836 19 q 772 -52 819 -22 q 665 -82 725 -82 q 587 -67 624 -82 q 526 -29 550 -53 l 479 17 q 475 19 476 19 q 471 22 474 19 q 410 -52 457 -22 q 303 -82 363 -82 q 224 -67 261 -82 q 164 -29 188 -53 l 119 15 q 71 63 89 35 q 53 128 53 92 m 69 128 q 83 77 69 100 q 118 37 96 54 q 170 10 140 19 q 233 0 200 0 q 297 10 267 0 q 348 37 326 19 q 383 77 369 54 q 396 128 396 100 q 383 178 396 154 q 348 219 369 201 q 297 246 326 236 q 233 256 267 256 q 170 246 200 256 q 118 219 140 236 q 83 178 96 201 q 69 128 69 154 m 432 128 q 445 77 432 100 q 481 37 458 54 q 533 10 503 19 q 596 0 563 0 q 659 10 629 0 q 710 37 689 19 q 745 77 732 54 q 758 128 758 100 q 745 178 758 154 q 710 219 732 201 q 659 246 689 236 q 596 256 629 256 q 533 246 563 256 q 481 219 503 236 q 445 178 458 201 q 432 128 432 154 m 794 128 q 808 77 794 100 q 843 37 821 54 q 895 10 865 19 q 958 0 925 0 q 1022 10 992 0 q 1073 37 1051 19 q 1108 77 1094 54 q 1121 128 1121 100 q 1108 178 1121 154 q 1073 219 1094 201 q 1022 246 1051 236 q 958 256 992 256 q 895 246 925 256 q 843 219 865 236 q 808 178 821 201 q 794 128 794 154 z "},"":{"ha":664,"x_min":53,"x_max":676,"o":"m 543 796 l 543 788 l 608 722 l 608 646 l 611 646 l 611 638 l 676 572 l 676 349 l 608 349 l 608 -82 l 194 -82 l 129 -17 l 121 -17 l 121 354 l 61 414 l 53 414 l 53 646 l 121 646 l 121 796 l 543 796 m 138 779 l 138 629 l 69 629 l 69 431 l 138 431 l 138 0 l 526 0 l 526 431 l 594 431 l 594 629 l 526 629 l 526 779 l 138 779 z "},"":{"ha":664,"x_min":53,"x_max":676,"o":"m 543 796 l 543 788 l 608 722 l 608 646 l 611 646 l 611 638 l 676 572 l 676 349 l 619 349 l 676 292 l 676 68 l 608 68 l 608 -82 l 194 -82 l 129 -17 l 121 -17 l 121 74 l 61 133 l 53 133 l 53 365 l 110 365 l 61 414 l 53 414 l 53 646 l 121 646 l 121 796 l 543 796 m 138 779 l 138 629 l 69 629 l 69 431 l 138 431 l 138 349 l 69 349 l 69 150 l 138 150 l 138 0 l 526 0 l 526 150 l 594 150 l 594 349 l 526 349 l 526 431 l 594 431 l 594 629 l 526 629 l 526 779 l 138 779 z "},"":{"ha":700,"x_min":18,"x_max":743,"o":"m 31 531 l 18 531 l 221 794 l 481 794 l 499 771 l 549 721 l 743 465 l 478 465 l 413 531 l 407 531 l 361 465 l 96 465 l 31 531 m 350 636 l 414 547 l 649 547 l 474 778 l 228 778 l 51 547 l 286 547 l 350 636 z "},"":{"ha":1885,"x_min":53,"x_max":1897,"o":"m 1535 154 q 1542 146 1535 146 l 1585 146 q 1593 154 1590 146 l 1593 228 q 1591 235 1593 231 q 1585 239 1589 239 l 1542 239 q 1535 228 1535 236 l 1535 154 m 1721 389 q 1758 380 1740 389 q 1788 357 1775 371 q 1808 326 1800 343 q 1815 290 1815 308 l 1815 85 q 1807 53 1815 68 q 1786 26 1799 38 q 1758 7 1774 14 q 1725 0 1742 0 l 1401 0 q 1370 7 1386 0 q 1341 26 1354 14 q 1319 53 1328 38 q 1311 85 1311 68 l 1311 290 q 1319 326 1311 308 q 1340 357 1326 343 q 1370 380 1353 371 q 1407 389 1388 389 l 1721 389 m 1193 389 q 1230 380 1213 389 q 1260 357 1247 371 q 1280 326 1272 343 q 1288 290 1288 308 l 1288 85 q 1279 53 1288 68 q 1258 26 1271 38 q 1230 7 1246 14 q 1197 0 1214 0 l 874 0 q 842 7 858 0 q 813 26 826 14 q 792 53 800 38 q 783 85 783 68 l 783 288 l 522 0 l 128 0 l 481 389 l 160 389 q 128 396 144 389 q 99 415 113 403 q 78 442 86 426 q 69 474 69 457 l 69 679 q 77 715 69 697 q 98 746 85 732 q 128 769 111 760 q 165 778 146 778 l 479 778 q 516 769 499 778 q 546 746 533 760 q 566 715 558 732 q 574 679 574 697 l 574 490 l 836 779 l 1229 779 l 875 389 l 1193 389 m 1007 154 q 1014 146 1007 146 l 1057 146 q 1065 154 1063 146 l 1065 228 q 1063 235 1065 231 q 1057 239 1061 239 l 1014 239 q 1007 228 1007 236 l 1007 154 m 293 543 q 300 535 293 535 l 343 535 q 351 543 349 535 l 351 617 q 349 624 351 619 q 343 628 347 628 l 300 628 q 293 617 293 625 l 293 543 m 1721 406 l 1407 406 q 1344 383 1371 406 q 1303 331 1317 361 l 1288 346 q 1247 388 1272 371 q 1193 406 1222 406 l 1039 406 l 1328 722 l 1261 789 l 1268 796 l 829 796 l 656 604 l 656 610 q 621 689 656 654 l 572 736 q 533 778 557 761 q 479 794 508 794 l 165 794 q 122 784 142 794 q 86 757 101 774 q 62 720 71 740 q 53 679 53 700 l 53 474 q 68 425 53 447 q 106 389 83 403 l 156 340 q 229 307 189 307 l 383 307 l 89 -17 l 103 -17 l 168 -82 l 597 -82 l 767 103 l 767 85 q 782 37 767 58 q 819 0 797 15 l 869 -49 q 943 -82 903 -82 l 1267 -82 q 1324 -62 1296 -82 q 1363 -14 1351 -43 l 1397 -49 q 1471 -82 1431 -82 l 1794 -82 q 1831 -74 1813 -82 q 1865 -53 1850 -67 q 1888 -22 1879 -39 q 1897 15 1897 -4 l 1897 221 q 1863 300 1897 265 l 1814 347 q 1774 389 1799 372 q 1721 406 1750 406 z "},"":{"ha":1122,"x_min":53,"x_max":1135,"o":"m 507 1117 l 522 1096 l 569 1047 l 621 1117 l 896 1117 l 890 1110 l 957 1043 l 767 796 l 1068 796 l 1068 788 l 1133 722 l 1133 493 l 946 493 q 1006 460 978 481 q 1051 414 1035 440 l 1096 369 q 1124 330 1114 351 q 1135 285 1135 308 l 1135 126 q 1119 53 1135 90 q 1074 -13 1103 17 q 1009 -62 1046 -43 q 931 -82 972 -82 l 126 -82 l 61 -17 l 53 -17 l 53 221 l 269 221 q 188 278 225 238 l 154 311 q 83 382 113 339 q 53 468 53 425 l 53 589 q 69 665 53 628 q 113 732 85 703 q 179 778 142 761 q 260 796 217 796 l 496 796 l 439 853 l 433 853 l 232 1117 l 507 1117 m 564 1011 l 500 1100 l 265 1100 l 440 869 l 686 869 l 863 1100 l 628 1100 l 564 1011 m 1053 354 q 1035 408 1053 383 q 992 451 1018 433 q 934 480 965 469 q 875 490 903 490 l 458 490 l 458 533 q 466 560 458 544 q 488 575 474 575 l 1051 575 l 1051 779 l 260 779 q 186 763 221 779 q 126 720 151 747 q 85 659 100 693 q 69 589 69 625 l 69 468 q 88 405 69 436 q 133 349 106 374 q 191 308 160 324 q 250 292 222 292 l 663 292 l 663 246 q 655 219 663 235 q 633 204 647 204 l 69 204 l 69 0 l 861 0 q 935 18 900 0 q 996 65 969 36 q 1038 128 1022 93 q 1053 196 1053 163 l 1053 354 z "},"":{"ha":478,"x_min":29,"x_max":513,"o":"m 426 293 l 286 153 l 51 388 l 286 621 l 426 481 l 333 388 l 426 293 m 449 481 l 286 643 l 29 388 l 286 131 l 289 133 l 356 67 l 513 224 l 446 290 l 449 293 l 421 319 l 513 411 l 446 478 l 449 481 z "},"":{"ha":1738,"x_min":53,"x_max":1750,"o":"m 540 221 l 758 221 l 758 493 l 557 493 q 545 483 550 493 q 540 464 540 472 l 540 221 m 1685 796 l 1685 788 l 1750 722 l 1750 493 l 1688 493 l 1750 431 l 1750 207 l 1690 207 l 1750 147 l 1750 -82 l 319 -82 q 247 -64 283 -82 q 182 -18 210 -46 l 143 19 q 78 87 104 47 q 53 171 53 126 l 53 581 q 69 658 53 619 q 113 726 85 696 q 179 776 142 757 q 260 796 217 796 l 1685 796 m 775 204 l 488 204 q 468 213 476 204 q 458 236 460 222 l 458 533 q 466 560 458 544 q 488 575 474 575 l 775 575 l 775 204 m 260 779 q 186 762 221 779 q 126 716 151 744 q 85 652 100 688 q 69 581 69 617 l 69 171 q 86 107 69 138 q 128 53 103 76 q 186 15 154 29 q 250 0 218 0 l 1668 0 l 1668 204 l 1193 204 q 1179 216 1190 204 q 1164 236 1168 228 q 1163 240 1164 238 q 1163 246 1163 243 q 1163 251 1163 249 q 1164 256 1164 254 q 1179 276 1168 264 q 1193 289 1190 289 l 1668 289 l 1668 488 l 1203 488 q 1174 501 1185 488 q 1163 531 1163 515 q 1171 558 1163 542 q 1193 575 1179 575 l 1668 575 l 1668 779 l 260 779 z "},"":{"ha":2121,"x_min":53,"x_max":2133,"o":"m 768 0 q 702 14 735 0 q 640 50 669 28 q 588 99 611 72 q 550 153 564 126 l 367 485 q 352 511 363 496 q 328 541 342 526 q 299 565 314 556 q 272 575 285 575 l 69 575 l 69 779 l 557 779 q 618 760 586 779 q 678 717 650 742 q 728 666 707 692 q 757 628 750 640 l 939 299 q 957 272 946 288 q 981 241 968 256 q 1006 216 993 226 q 1032 206 1019 206 l 1236 206 l 1236 0 l 768 0 m 1583 0 q 1517 14 1550 0 q 1456 50 1485 28 q 1403 99 1426 72 q 1365 153 1379 126 l 1182 485 q 1167 511 1178 496 q 1143 541 1157 526 q 1115 565 1129 556 q 1088 575 1100 575 l 885 575 l 885 779 l 1372 779 q 1433 760 1401 779 q 1494 717 1465 742 q 1544 666 1522 692 q 1572 628 1565 640 l 1754 299 q 1772 272 1761 288 q 1796 241 1783 256 q 1822 216 1808 226 q 1847 206 1835 206 l 2051 206 l 2051 0 l 1583 0 m 1835 236 l 1833 238 l 1653 564 q 1597 631 1639 586 l 1575 651 q 1538 694 1561 669 q 1487 742 1515 719 q 1428 780 1458 764 q 1372 796 1399 796 l 868 796 l 868 558 l 876 558 l 942 493 l 1157 493 l 1158 493 q 1163 483 1161 488 q 1168 475 1165 478 l 1350 146 q 1446 36 1381 86 l 1479 4 q 1561 -57 1515 -32 q 1653 -82 1607 -82 l 2133 -82 l 2133 149 l 2068 214 l 2068 222 l 1847 222 l 1843 222 q 1838 230 1840 226 q 1835 236 1836 233 m 1019 236 l 1018 238 l 838 564 q 782 631 824 586 l 760 651 q 723 694 746 669 q 672 742 700 719 q 613 780 643 764 q 557 796 583 796 l 53 796 l 53 558 l 61 558 l 126 493 l 342 493 l 343 493 q 348 483 346 488 q 353 475 350 478 l 535 146 q 631 36 565 86 l 664 4 q 746 -57 700 -32 q 838 -82 792 -82 l 1318 -82 l 1318 149 l 1253 214 l 1253 222 l 1032 222 l 1028 222 q 1023 230 1025 226 q 1019 236 1021 233 m 1192 474 l 1190 475 q 1192 474 1192 475 m 376 474 l 375 475 q 376 474 376 475 z "},"":{"ha":443,"x_min":53,"x_max":456,"o":"m 53 653 q 66 709 53 683 q 102 754 79 735 q 156 785 125 774 q 222 796 186 796 q 313 773 272 796 q 374 714 354 750 l 417 672 q 445 632 435 654 q 456 583 456 610 l 456 443 q 442 388 456 414 q 407 344 429 363 q 355 315 385 325 q 292 304 325 304 q 221 317 253 304 q 165 354 189 331 l 125 394 q 72 444 92 414 q 53 513 53 475 l 53 653 m 69 513 q 81 463 69 486 q 114 423 93 440 q 163 396 135 406 q 222 386 190 386 q 281 396 253 386 q 329 423 308 406 q 362 463 350 440 q 374 513 374 486 l 374 653 q 362 702 374 679 q 329 742 350 725 q 281 769 308 760 q 222 779 253 779 q 163 769 190 779 q 114 742 135 760 q 81 702 93 725 q 69 653 69 679 l 69 513 z "},"":{"ha":443,"x_min":53,"x_max":456,"o":"m 53 653 q 66 709 53 683 q 102 754 79 735 q 156 785 125 774 q 222 796 186 796 q 313 773 272 796 q 374 714 354 750 l 417 672 q 445 632 435 654 q 456 583 456 610 l 456 443 q 442 388 456 414 q 407 344 429 363 q 355 315 385 325 q 292 304 325 304 q 221 317 253 304 q 165 354 189 331 l 125 394 q 72 444 92 414 q 53 513 53 475 l 53 653 m 69 513 q 81 463 69 486 q 114 423 93 440 q 163 396 135 406 q 222 386 190 386 q 281 396 253 386 q 329 423 308 406 q 362 463 350 440 q 374 513 374 486 l 374 653 q 362 702 374 679 q 329 742 350 725 q 281 769 308 760 q 222 779 253 779 q 163 769 190 779 q 114 742 135 760 q 81 702 93 725 q 69 653 69 679 l 69 513 z "},"":{"ha":756,"x_min":53,"x_max":768,"o":"m 53 651 q 99 753 53 713 q 215 794 146 794 q 301 773 263 794 q 358 717 339 751 l 385 690 q 441 766 399 736 q 542 796 483 796 q 626 775 589 796 q 685 719 664 754 l 729 675 q 768 583 768 636 l 768 443 q 756 388 768 414 q 722 344 743 363 q 672 315 700 325 q 611 304 643 304 q 544 317 575 304 q 492 351 514 329 l 446 396 l 444 396 q 435 403 440 400 q 380 331 422 358 q 285 303 338 303 q 218 315 249 303 q 165 350 188 328 l 122 393 q 72 443 90 413 q 53 511 53 474 l 53 651 m 69 511 q 81 462 69 485 q 112 422 92 439 q 158 394 132 404 q 215 385 185 385 q 271 394 244 385 q 317 422 297 404 q 349 462 338 439 q 360 511 360 485 l 360 651 q 349 701 360 678 q 317 741 338 724 q 271 768 297 758 q 215 778 244 778 q 158 768 185 778 q 112 741 132 758 q 81 701 92 724 q 69 651 69 678 l 69 511 m 396 513 q 407 463 396 486 q 438 423 418 440 q 485 396 458 406 q 542 386 511 386 q 597 396 571 386 q 644 423 624 406 q 675 463 664 440 q 686 513 686 486 l 686 653 q 675 702 686 679 q 644 742 664 725 q 597 769 624 760 q 542 779 571 779 q 485 769 511 779 q 438 742 458 760 q 407 702 418 725 q 396 653 396 679 l 396 513 z "},"":{"ha":756,"x_min":53,"x_max":768,"o":"m 53 651 q 99 753 53 713 q 215 794 146 794 q 301 773 263 794 q 358 717 339 751 l 385 690 q 441 766 399 736 q 542 796 483 796 q 626 775 589 796 q 685 719 664 754 l 729 675 q 768 583 768 636 l 768 443 q 756 388 768 414 q 722 344 743 363 q 672 315 700 325 q 611 304 643 304 q 544 317 575 304 q 492 351 514 329 l 446 396 l 444 396 q 435 403 440 400 q 380 331 422 358 q 285 303 338 303 q 218 315 249 303 q 165 350 188 328 l 122 393 q 72 443 90 413 q 53 511 53 474 l 53 651 m 69 511 q 81 462 69 485 q 112 422 92 439 q 158 394 132 404 q 215 385 185 385 q 271 394 244 385 q 317 422 297 404 q 349 462 338 439 q 360 511 360 485 l 360 651 q 349 701 360 678 q 317 741 338 724 q 271 768 297 758 q 215 778 244 778 q 158 768 185 778 q 112 741 132 758 q 81 701 92 724 q 69 651 69 678 l 69 511 m 396 513 q 407 463 396 486 q 438 423 418 440 q 485 396 458 406 q 542 386 511 386 q 597 396 571 386 q 644 423 624 406 q 675 463 664 440 q 686 513 686 486 l 686 653 q 675 702 686 679 q 644 742 664 725 q 597 769 624 760 q 542 779 571 779 q 485 769 511 779 q 438 742 458 760 q 407 702 418 725 q 396 653 396 679 l 396 513 z "},"":{"ha":1147,"x_min":53,"x_max":1160,"o":"m 888 796 q 984 768 940 796 q 1056 699 1028 740 l 1093 661 q 1142 591 1124 631 q 1160 511 1160 551 l 1160 101 q 1142 33 1160 65 q 1097 -26 1125 0 q 1035 -67 1069 -51 q 967 -82 1000 -82 l 319 -82 q 247 -64 283 -82 q 182 -18 210 -46 l 143 19 q 78 87 104 47 q 53 171 53 126 l 53 581 q 69 658 53 619 q 113 726 85 696 q 179 776 142 757 q 260 796 217 796 l 888 796 m 260 779 q 186 762 221 779 q 126 716 151 744 q 85 652 100 688 q 69 581 69 617 l 69 171 q 86 107 69 138 q 128 53 103 76 q 186 15 154 29 q 250 0 218 0 l 897 0 q 961 15 929 0 q 1019 53 993 29 q 1062 107 1046 76 q 1078 171 1078 138 l 1078 581 q 1063 652 1078 617 q 1022 716 1047 688 q 961 762 996 744 q 888 779 926 779 l 260 779 z "},"":{"ha":604,"x_min":53,"x_max":617,"o":"m 535 488 l 535 289 l 69 289 l 69 488 l 535 488 m 53 504 l 53 272 l 61 272 l 126 207 l 617 207 l 617 431 l 551 496 l 551 504 l 53 504 z "},"":{"ha":690,"x_min":53,"x_max":703,"o":"m 621 488 l 621 289 l 69 289 l 69 488 l 621 488 m 53 504 l 53 272 l 61 272 l 126 207 l 703 207 l 703 431 l 638 496 l 638 504 l 53 504 z "},"":{"ha":796,"x_min":18,"x_max":839,"o":"m 568 549 l 414 549 l 349 636 l 286 549 l 51 549 l 228 779 l 382 779 l 447 692 l 510 779 l 744 779 l 568 549 m 778 796 l 503 796 l 453 726 l 406 774 l 389 796 l 221 796 l 18 532 l 31 532 l 96 467 l 361 467 l 407 532 l 413 532 l 478 467 l 643 467 l 839 722 l 772 789 l 778 796 z "},"":{"ha":2226,"x_min":53,"x_max":2239,"o":"m 674 536 q 674 536 674 536 q 672 538 674 538 l 653 558 l 674 536 m 539 439 l 640 439 q 667 457 657 439 q 681 493 678 475 l 539 493 l 539 439 m 1160 439 q 1147 324 1160 381 q 1104 222 1133 267 l 1194 222 q 1215 231 1204 222 q 1238 254 1226 240 q 1258 283 1249 268 q 1274 308 1267 297 l 1454 635 q 1485 675 1463 649 q 1539 728 1508 701 q 1604 776 1569 756 q 1669 796 1639 796 l 2174 796 l 2174 788 l 2239 722 l 2239 493 l 2024 493 q 1999 483 2013 493 q 1974 460 1986 474 q 1953 432 1963 447 q 1939 407 1943 417 l 1757 78 q 1717 22 1742 50 q 1663 -30 1693 -7 q 1599 -67 1633 -53 q 1528 -82 1565 -82 l 1047 -82 l 982 -17 l 974 -17 l 974 138 q 957 136 965 136 q 939 136 949 136 l 539 136 l 539 -82 l 126 -82 l 61 -17 l 53 -17 l 53 796 l 868 796 q 967 770 926 796 q 1035 706 1008 744 l 1075 667 q 1114 615 1097 643 q 1140 555 1131 586 q 1155 494 1150 524 q 1160 439 1160 464 m 1458 0 q 1526 14 1493 0 q 1587 50 1558 28 q 1638 99 1615 72 q 1676 153 1661 126 l 1860 485 q 1874 511 1864 496 q 1899 541 1885 526 q 1927 565 1913 556 q 1954 575 1942 575 l 2157 575 l 2157 779 l 1669 779 q 1608 760 1640 779 q 1548 717 1576 742 q 1498 666 1519 692 q 1469 628 1476 640 l 1288 299 q 1269 272 1281 288 q 1246 241 1258 256 q 1220 216 1233 226 q 1194 206 1207 206 l 990 206 l 990 0 l 1458 0 m 457 0 l 457 218 l 869 218 q 967 244 928 218 q 1031 310 1007 269 q 1067 403 1056 351 q 1078 508 1078 456 q 1067 593 1078 546 q 1032 681 1057 640 q 967 751 1007 722 q 868 779 926 779 l 69 779 l 69 0 l 457 0 m 649 575 q 671 567 661 575 q 686 547 681 558 q 694 522 692 535 q 697 500 697 510 q 693 475 697 489 q 682 449 689 461 q 665 430 675 438 q 640 422 654 422 l 457 422 l 457 575 l 649 575 z "},"":{"ha":1306,"x_min":53,"x_max":1318,"o":"m 599 1117 l 614 1096 l 661 1047 l 713 1117 l 988 1117 l 982 1110 l 1049 1043 l 858 796 l 1253 796 l 1253 788 l 1318 722 l 1318 493 l 1103 493 q 1078 483 1092 493 q 1053 460 1065 474 q 1032 432 1042 447 q 1018 407 1022 417 l 836 76 q 797 21 821 49 q 742 -30 772 -7 q 677 -67 711 -53 q 607 -82 643 -82 l 126 -82 l 61 -17 l 53 -17 l 53 222 l 274 222 q 294 231 283 222 q 317 254 306 240 q 337 283 328 268 q 353 308 346 297 l 533 635 q 556 668 539 647 q 598 712 574 689 q 650 756 622 735 q 707 788 678 776 l 596 788 l 531 853 l 525 853 l 324 1117 l 599 1117 m 656 1011 l 592 1100 l 357 1100 l 532 869 l 778 869 l 954 1100 l 719 1100 l 656 1011 m 538 0 q 603 14 571 0 q 665 50 636 28 q 717 99 694 72 q 756 153 740 126 l 939 485 q 953 511 943 496 q 978 541 964 526 q 1006 565 992 556 q 1033 575 1021 575 l 1236 575 l 1236 779 l 749 779 q 687 760 719 779 q 626 717 654 742 q 576 667 597 692 q 549 628 556 642 l 367 299 q 349 272 360 288 q 325 241 338 256 q 299 216 313 226 q 274 206 286 206 l 69 206 l 69 0 l 538 0 z "},"":{"ha":478,"x_min":29,"x_max":513,"o":"m 122 388 l 29 481 l 192 643 l 449 388 l 446 385 l 513 318 l 261 67 l 194 133 l 192 131 l 29 293 l 122 388 m 51 293 l 192 153 l 426 388 l 192 621 l 51 481 l 144 388 l 51 293 z "},"":{"ha":1738,"x_min":53,"x_max":1750,"o":"m 540 221 l 758 221 l 758 493 l 557 493 q 545 483 550 493 q 540 464 540 472 l 540 221 m 1685 796 l 1685 788 l 1750 722 l 1750 493 l 1688 493 l 1750 431 l 1750 207 l 1690 207 l 1750 147 l 1750 -82 l 319 -82 q 247 -64 283 -82 q 182 -18 210 -46 l 143 19 q 78 87 104 47 q 53 171 53 126 l 53 581 q 69 658 53 619 q 113 726 85 696 q 179 776 142 757 q 260 796 217 796 l 1685 796 m 775 204 l 488 204 q 468 213 476 204 q 458 236 460 222 l 458 533 q 466 560 458 544 q 488 575 474 575 l 775 575 l 775 204 m 260 779 q 186 762 221 779 q 126 716 151 744 q 85 652 100 688 q 69 581 69 617 l 69 171 q 86 107 69 138 q 128 53 103 76 q 186 15 154 29 q 250 0 218 0 l 1668 0 l 1668 204 l 1193 204 q 1179 216 1190 204 q 1164 236 1168 228 q 1163 240 1164 238 q 1163 246 1163 243 q 1163 251 1163 249 q 1164 256 1164 254 q 1179 276 1168 264 q 1193 289 1190 289 l 1668 289 l 1668 488 l 1203 488 q 1174 501 1185 488 q 1163 531 1163 515 q 1171 558 1163 542 q 1193 575 1179 575 l 1668 575 l 1668 779 l 260 779 z "},"":{"ha":1306,"x_min":53,"x_max":1318,"o":"m 650 1011 l 714 1100 l 949 1100 l 774 869 l 528 869 l 351 1100 l 586 1100 l 650 1011 m 768 0 q 702 14 735 0 q 640 50 669 28 q 588 99 611 72 q 550 153 564 126 l 367 485 q 352 511 363 496 q 328 541 342 526 q 299 565 314 556 q 272 575 285 575 l 69 575 l 69 779 l 557 779 q 619 760 586 779 q 680 717 651 742 q 729 667 708 692 q 757 628 750 642 l 939 299 q 957 272 946 288 q 981 241 968 256 q 1006 216 993 226 q 1032 206 1019 206 l 1236 206 l 1236 0 l 768 0 m 593 1117 l 318 1117 l 521 853 l 526 853 l 588 790 q 572 794 581 793 q 557 796 564 796 l 53 796 l 53 558 l 61 558 l 126 493 l 342 493 l 343 493 q 348 483 346 488 q 353 475 350 478 l 535 146 q 631 36 565 86 l 664 4 q 746 -57 700 -32 q 838 -82 792 -82 l 1318 -82 l 1318 149 l 1253 214 l 1253 222 l 1032 222 l 1028 222 q 1023 230 1025 226 q 1019 236 1021 233 l 1018 238 l 838 564 q 816 594 831 575 q 781 635 801 614 l 767 647 q 771 644 769 644 l 756 660 q 726 694 743 675 q 688 730 708 713 q 644 763 667 747 q 599 788 621 779 l 849 788 l 1043 1043 l 976 1110 l 982 1117 l 707 1117 l 656 1047 l 608 1096 l 593 1117 m 376 474 l 375 475 q 376 474 376 475 z "},"":{"ha":1129,"x_min":53,"x_max":1142,"o":"m 643 503 q 647 508 644 503 q 653 518 650 513 l 653 796 l 742 796 q 681 832 704 807 l 633 878 l 613 894 q 566 821 604 850 q 475 789 528 792 l 475 788 l 540 722 l 540 503 l 643 503 m 244 985 q 256 1035 244 1011 q 288 1076 268 1058 q 336 1104 308 1094 q 397 1114 364 1114 q 479 1094 443 1114 q 533 1043 515 1075 l 574 1003 q 623 1083 582 1051 q 725 1114 664 1114 q 807 1094 771 1114 q 861 1043 843 1075 l 908 997 q 943 915 943 963 q 916 840 943 872 q 846 796 889 808 l 1076 796 l 1076 788 l 1142 722 l 1142 131 q 1129 47 1142 86 q 1094 -20 1117 8 q 1041 -65 1072 -49 q 971 -82 1010 -82 l 133 -82 l 68 -17 l 60 -17 l 60 221 l 251 221 q 183 269 213 238 l 143 310 q 78 377 104 338 q 53 458 53 417 l 53 796 l 414 796 q 353 832 376 807 l 306 878 q 261 923 278 896 q 244 985 244 950 m 861 985 q 822 1065 861 1032 q 725 1097 783 1097 q 628 1065 667 1097 q 589 985 589 1032 q 628 903 589 936 q 725 871 668 871 q 822 903 782 871 q 861 985 861 936 m 261 985 q 301 903 261 936 q 397 871 340 871 q 494 903 454 871 q 533 985 533 936 q 494 1065 533 1032 q 397 1097 456 1097 q 300 1065 339 1097 q 261 985 261 1032 m 669 517 q 659 497 667 508 q 643 486 651 486 l 488 486 q 467 499 472 486 q 458 519 463 513 l 458 779 l 69 779 l 69 458 q 86 396 69 426 q 128 342 103 365 q 186 303 154 318 q 250 288 218 288 l 669 288 l 669 256 q 658 217 669 228 q 619 204 647 207 l 76 204 l 76 0 l 901 0 q 967 15 938 0 q 1017 58 996 31 q 1049 122 1038 85 q 1060 200 1060 158 l 1060 779 l 669 779 l 669 517 z "},"":{"ha":528,"x_min":53,"x_max":540,"o":"m 153 538 q 103 586 121 557 q 85 651 85 615 q 99 708 85 682 q 137 754 113 735 q 194 785 161 774 q 264 796 226 796 q 360 774 317 796 q 426 715 404 751 l 471 671 l 469 671 l 472 669 q 510 582 510 632 q 492 519 510 547 q 442 471 474 490 l 443 469 l 507 407 l 540 275 l 540 -82 l 126 -82 l 61 -17 l 53 -17 l 53 346 l 89 481 l 211 481 q 196 494 200 489 l 153 538 m 428 651 q 415 701 428 678 q 379 742 401 725 q 327 769 357 760 q 264 779 297 779 q 201 769 231 779 q 149 742 171 760 q 115 701 128 725 q 101 651 101 678 q 115 601 101 624 q 149 560 128 578 q 201 533 171 543 q 264 524 231 524 q 327 533 297 524 q 379 560 357 543 q 415 601 401 578 q 428 651 428 624 m 458 342 l 428 464 l 101 464 l 69 342 l 69 0 l 458 0 l 458 342 z "},"":{"ha":1122,"x_min":53,"x_max":1135,"o":"m 1053 40 l 792 40 l 792 -83 l 481 -83 l 481 40 l 261 40 q 188 58 222 40 q 126 105 153 76 q 85 168 100 133 q 69 236 69 203 l 69 553 q 85 623 69 589 q 126 684 100 657 q 186 727 151 711 q 260 743 221 743 l 478 743 l 478 876 l 789 876 l 789 743 l 1051 743 l 1051 539 l 488 539 q 467 531 475 539 q 460 511 460 522 l 460 275 q 468 269 465 274 q 473 258 471 264 q 478 249 475 253 q 489 244 482 244 l 1053 244 l 1053 40 m 1069 261 l 542 261 l 542 442 q 557 457 542 457 l 1133 457 l 1133 686 l 1068 751 l 1068 760 l 871 760 l 871 819 l 806 885 l 806 893 l 461 893 l 461 760 l 260 760 q 179 742 217 760 q 113 696 142 725 q 69 629 85 667 q 53 553 53 592 l 53 236 q 81 138 53 188 q 157 57 110 89 l 194 19 q 256 -25 222 -8 q 331 -42 290 -42 l 464 -42 l 464 -100 l 472 -100 l 538 -165 l 874 -165 l 874 -42 l 1135 -42 l 1135 188 l 1069 253 l 1069 261 z "},"":{"ha":1051,"x_min":53,"x_max":1064,"o":"m 53 504 l 194 504 q 193 524 193 515 q 193 543 193 533 q 208 628 193 583 q 251 710 222 672 q 322 772 279 747 q 419 796 364 796 l 740 796 l 740 788 l 806 722 l 806 503 l 849 503 l 849 494 l 914 429 l 914 221 l 999 221 l 999 213 l 1064 147 l 1064 -82 l 126 -82 l 61 -17 l 53 -17 l 53 221 l 113 221 l 61 272 l 53 272 l 53 504 m 69 289 l 213 289 q 208 236 208 261 l 208 219 q 210 204 208 206 l 69 204 l 69 0 l 982 0 l 982 204 l 638 204 q 600 218 611 204 q 589 251 589 232 q 599 283 589 274 q 639 293 610 293 l 832 293 l 832 486 l 640 486 q 601 495 611 486 q 590 528 590 504 q 601 561 590 547 q 639 575 613 575 l 724 575 l 724 779 l 419 779 q 329 756 368 779 q 264 699 290 733 q 224 622 238 664 q 210 543 210 581 q 211 515 210 529 q 215 488 213 501 l 69 488 l 69 289 z "},"":{"ha":1204,"x_min":14,"x_max":1247,"o":"m 544 513 q 499 493 518 513 q 481 451 481 474 l 481 338 q 500 301 481 318 q 540 285 519 285 l 671 285 q 712 301 693 285 q 731 338 731 318 l 731 451 q 712 493 731 474 q 668 513 693 513 l 544 513 m 372 390 l 50 779 l 506 779 l 600 665 l 694 779 l 1150 779 l 828 390 l 1151 0 l 696 0 l 600 115 l 504 0 l 49 0 l 372 390 m 14 -17 l 26 -17 l 92 -82 l 581 -82 l 660 15 l 688 -17 l 693 -17 l 758 -82 l 1247 -82 l 914 321 l 1246 722 l 1179 789 l 1185 796 l 686 796 l 603 696 l 582 722 l 540 764 l 514 796 l 15 796 l 350 390 l 14 -17 m 563 382 q 578 415 563 400 q 614 431 593 431 l 714 431 l 714 338 q 700 313 714 324 q 671 301 686 301 l 563 301 l 563 382 z "},"":{"ha":1099,"x_min":53,"x_max":1111,"o":"m 126 418 l 325 418 q 293 460 313 439 q 231 487 261 482 q 194 492 201 492 l 126 492 l 61 557 l 53 557 l 53 796 l 383 796 q 478 764 440 796 q 544 697 517 732 l 569 671 q 592 703 578 685 q 624 738 606 721 q 667 772 643 756 q 721 796 692 788 l 1046 796 l 1046 788 l 1111 722 l 1111 492 l 960 492 q 913 463 943 483 q 860 418 883 443 l 964 418 l 964 410 l 1029 344 l 1029 231 l 964 231 l 964 228 l 1029 163 l 1029 49 l 824 49 l 824 -82 l 410 -82 l 344 -17 l 336 -17 l 336 49 l 200 49 l 135 114 l 126 114 l 126 236 l 194 236 l 135 296 l 126 296 l 126 418 m 143 313 l 353 313 l 353 219 l 143 219 l 143 131 l 353 131 l 353 0 l 742 0 l 742 131 l 947 131 l 947 219 l 742 219 l 742 313 l 947 313 l 947 401 l 742 401 l 742 419 q 760 468 742 443 q 802 515 778 493 q 851 552 826 536 q 888 574 875 568 l 1029 574 l 1029 779 l 725 779 q 659 745 688 768 q 612 699 631 722 q 583 657 593 675 q 571 639 572 639 q 540 676 557 653 q 501 723 524 700 q 450 763 479 746 q 383 779 421 779 l 69 779 l 69 574 l 125 574 q 142 572 129 574 q 173 567 156 571 q 210 553 190 563 q 247 528 229 544 q 306 473 278 500 q 350 401 335 446 l 143 401 l 143 313 z "},"":{"ha":528,"x_min":53,"x_max":540,"o":"m 458 -164 l 69 -164 l 69 951 l 458 951 l 458 -164 m 475 968 l 53 968 l 53 -181 l 61 -181 l 126 -246 l 540 -246 l 540 894 l 475 960 l 475 968 z "},"":{"ha":1204,"x_min":14,"x_max":1246,"o":"m 544 513 q 499 493 518 513 q 481 451 481 474 l 481 338 q 500 301 481 318 q 540 285 519 285 l 671 285 q 712 301 693 285 q 731 338 731 318 l 731 451 q 712 493 731 474 q 668 513 693 513 l 544 513 m 694 779 l 1150 779 l 504 0 l 49 0 l 694 779 m 14 -17 l 26 -17 l 92 -82 l 581 -82 l 1246 722 l 1179 789 l 1185 796 l 686 796 l 14 -17 m 563 382 q 578 415 563 400 q 614 431 593 431 l 714 431 l 714 338 q 700 313 714 324 q 671 301 686 301 l 563 301 l 563 382 z "},"":{"ha":725,"x_min":46,"x_max":744,"o":"m 351 665 l 378 638 q 376 639 378 639 q 376 639 376 639 l 351 665 m 46 669 q 58 719 46 696 q 90 761 69 743 q 138 789 110 779 q 199 799 165 799 q 281 779 244 799 q 335 728 317 760 l 375 688 q 424 767 383 736 q 526 799 465 799 q 608 779 572 799 q 663 728 644 760 l 710 682 q 744 600 744 647 q 701 510 744 546 q 596 474 658 474 q 531 485 561 474 q 482 517 501 497 l 435 563 l 414 579 q 365 503 406 532 q 268 474 325 474 q 203 485 233 474 q 154 517 174 497 l 107 563 q 63 608 79 581 q 46 669 46 635 m 663 669 q 624 749 663 717 q 526 782 585 782 q 429 749 468 782 q 390 669 390 717 q 430 588 390 621 q 526 556 469 556 q 623 588 583 556 q 663 669 663 621 m 63 669 q 102 588 63 621 q 199 556 142 556 q 295 588 256 556 q 335 669 335 621 q 296 749 335 717 q 199 782 257 782 q 101 749 140 782 q 63 669 63 717 z "},"":{"ha":433,"x_min":46,"x_max":453,"o":"m 324 747 q 322 754 322 750 q 319 761 321 758 l 308 764 l 324 747 m 217 890 q 299 869 261 890 q 357 818 333 850 l 357 821 q 360 815 358 818 q 363 810 361 813 l 406 768 q 429 736 419 753 l 431 735 q 453 650 453 699 q 431 568 453 604 l 429 568 q 368 506 408 529 q 331 496 347 500 q 306 489 315 492 l 289 485 q 196 510 242 485 q 169 531 183 517 l 125 574 q 93 600 107 586 q 68 636 79 614 l 68 635 q 46 719 46 671 q 51 763 46 743 q 68 804 57 783 q 135 869 90 846 q 217 890 172 890 m 267 696 q 215 657 257 657 q 164 719 164 657 q 178 768 164 751 q 218 785 193 785 q 264 753 249 785 l 288 758 q 218 807 272 807 q 158 785 181 807 q 136 719 136 763 q 158 655 136 678 q 217 632 181 632 q 265 647 244 632 q 292 689 285 663 l 267 696 m 217 849 q 248 845 232 849 q 279 832 264 842 q 309 810 297 822 q 328 785 321 799 q 344 719 344 753 q 328 657 344 688 q 281 610 307 624 q 217 593 249 593 q 153 610 183 593 q 106 657 119 631 q 89 719 89 688 q 106 785 89 753 q 154 833 124 817 q 217 849 185 849 m 217 874 q 142 854 178 874 q 83 797 103 833 q 68 759 74 778 q 63 719 63 740 q 83 644 63 679 q 108 611 94 625 q 140 586 122 597 q 217 567 176 567 q 293 586 215 567 q 326 611 313 597 q 350 644 340 625 q 371 719 371 679 q 350 797 371 761 q 292 854 331 833 q 217 874 256 874 z "},"":{"ha":643,"x_min":53,"x_max":656,"o":"m 368 590 l 274 590 l 274 485 l 69 485 l 69 783 q 78 817 69 800 q 100 846 86 833 q 131 866 114 858 q 164 874 147 874 l 478 874 q 512 866 494 874 q 543 845 529 858 q 565 816 557 832 q 574 783 574 800 l 574 485 l 368 485 l 368 590 m 281 760 q 274 751 275 760 l 274 700 l 368 700 l 368 756 q 364 760 368 760 l 281 760 m 126 403 l 356 403 l 356 468 l 360 468 l 425 403 l 656 403 l 656 714 q 647 749 656 732 q 624 781 639 765 l 578 825 q 534 872 563 853 q 478 890 506 890 l 164 890 q 125 881 144 890 q 90 858 106 872 q 63 824 74 843 q 53 783 53 804 l 53 468 l 61 468 l 126 403 z "},"":{"ha":836,"x_min":29,"x_max":871,"o":"m 426 293 l 286 153 l 51 388 l 286 621 l 426 481 l 333 388 l 426 293 m 785 293 l 644 153 l 410 388 l 644 621 l 785 481 l 692 388 l 785 293 m 807 481 l 644 643 l 461 461 l 446 478 l 449 481 l 286 643 l 29 388 l 286 131 l 289 133 l 356 67 l 513 224 l 446 290 l 449 293 l 421 319 l 438 336 l 644 131 l 647 133 l 714 67 l 871 224 l 804 290 l 807 293 l 779 319 l 871 411 l 804 478 l 807 481 z "},"":{"ha":604,"x_min":53,"x_max":617,"o":"m 535 154 l 336 154 l 336 289 l 69 289 l 69 488 l 535 488 l 535 154 m 551 504 l 53 504 l 53 272 l 61 272 l 126 207 l 319 207 l 319 138 l 328 138 l 393 72 l 617 72 l 617 431 l 551 496 l 551 504 z "},"":{"ha":549,"x_min":53,"x_max":561,"o":"m 479 488 l 479 289 l 69 289 l 69 488 l 479 488 m 53 504 l 53 272 l 61 272 l 126 207 l 561 207 l 561 431 l 496 496 l 496 504 l 53 504 z "},"":{"ha":433,"x_min":46,"x_max":453,"o":"m 217 890 q 299 869 261 890 q 357 818 333 850 l 357 821 q 360 815 358 818 q 363 810 361 813 l 406 768 q 429 736 419 753 l 431 735 q 453 650 453 699 q 431 568 453 604 l 429 568 q 368 506 408 529 q 331 496 347 500 q 306 489 315 492 l 289 485 q 196 510 242 485 q 169 531 183 517 l 125 574 q 93 600 107 586 q 68 636 79 614 l 68 635 q 46 719 46 671 q 51 763 46 743 q 68 804 57 783 q 135 869 90 846 q 217 890 172 890 m 176 778 l 206 778 q 233 776 232 778 q 249 753 249 769 q 240 735 249 742 q 208 728 232 728 l 176 728 l 176 778 m 176 636 l 176 706 l 192 706 q 213 700 207 706 q 242 661 222 694 l 256 636 l 289 636 l 268 668 q 249 695 257 686 q 229 710 242 704 q 264 724 251 711 q 276 756 276 738 q 268 781 276 769 q 249 796 264 789 q 206 801 239 801 l 150 801 l 150 636 l 176 636 m 217 849 q 248 845 232 849 q 279 832 264 842 q 309 810 297 822 q 328 785 321 799 q 344 719 344 753 q 328 657 344 688 q 281 610 307 624 q 217 593 249 593 q 153 610 183 593 q 106 657 119 631 q 89 719 89 688 q 106 785 89 753 q 154 833 124 817 q 217 849 185 849 m 217 874 q 142 854 178 874 q 83 797 103 833 q 68 759 74 778 q 63 719 63 740 q 83 644 63 679 q 108 611 94 625 q 140 586 122 597 q 217 567 176 567 q 293 586 215 567 q 326 611 313 597 q 350 644 340 625 q 371 719 371 679 q 350 797 371 761 q 292 854 331 833 q 217 874 256 874 z "},"":{"ha":874,"x_min":53,"x_max":886,"o":"m 821 794 l 821 786 l 886 721 l 886 492 l 126 492 l 61 557 l 53 557 l 53 794 l 821 794 m 69 778 l 69 574 l 804 574 l 804 778 l 69 778 z "},"":{"ha":397,"x_min":46,"x_max":417,"o":"m 150 667 q 164 645 150 654 q 197 636 178 636 q 231 645 217 636 q 244 667 244 654 q 231 688 244 679 q 197 696 217 696 q 164 688 178 696 q 150 667 150 679 m 63 667 q 101 747 63 714 q 199 779 140 779 q 296 747 257 779 q 335 667 335 714 q 295 585 335 618 q 199 553 256 553 q 102 585 142 553 q 63 667 63 618 m 46 667 q 63 605 46 632 q 107 560 79 578 l 154 514 q 203 483 174 494 q 268 471 233 471 q 374 507 331 471 q 417 597 417 543 q 382 679 417 644 l 335 725 q 281 776 317 757 q 199 796 244 796 q 138 786 165 796 q 90 758 110 776 q 58 717 69 740 q 46 667 46 693 z "},"":{"ha":604,"x_min":53,"x_max":618,"o":"m 536 0 l 71 0 l 71 199 l 536 199 l 536 0 m 535 582 l 535 383 l 401 383 l 401 249 l 203 249 l 203 383 l 69 383 l 69 582 l 203 582 l 203 714 l 401 714 l 401 582 l 535 582 m 553 215 l 483 215 l 483 301 l 617 301 l 617 525 l 551 590 l 551 599 l 483 599 l 483 657 l 418 722 l 418 731 l 186 731 l 186 599 l 53 599 l 53 367 l 61 367 l 126 301 l 186 301 l 186 232 l 194 232 l 211 215 l 54 215 l 54 -17 l 63 -17 l 128 -82 l 618 -82 l 618 142 l 553 207 l 553 215 z "},"":{"ha":631,"x_min":53,"x_max":643,"o":"m 61 468 l 53 468 l 53 663 q 82 721 53 696 l 63 743 l 54 743 l 54 890 l 461 890 q 522 873 494 890 q 564 828 549 856 l 610 782 q 643 706 643 749 l 643 647 q 633 610 643 628 q 607 578 622 593 l 643 542 l 643 403 l 126 403 l 61 468 m 561 485 l 561 599 l 275 599 l 275 625 l 465 625 q 496 633 479 625 q 527 654 513 642 q 551 683 542 667 q 561 717 561 700 l 561 775 q 553 811 561 793 q 531 843 544 829 q 500 865 518 857 q 461 874 482 874 l 71 874 l 71 760 l 351 760 q 356 756 354 760 q 357 749 357 751 l 357 735 l 163 735 q 131 729 147 735 q 101 715 114 724 q 78 692 88 706 q 69 663 69 679 l 69 485 l 561 485 z "},"":{"ha":601,"x_min":53,"x_max":614,"o":"m 314 733 q 331 746 331 733 q 315 760 331 760 l 69 760 l 69 874 l 421 874 q 468 862 447 874 q 503 833 489 850 q 524 794 517 815 q 531 753 531 772 q 525 714 531 733 q 507 682 519 694 q 527 646 522 667 q 532 606 532 625 q 526 564 532 585 q 508 525 521 543 q 473 496 494 507 q 421 485 451 485 l 69 485 l 69 599 l 315 599 q 332 613 332 599 q 315 625 332 625 l 69 625 l 69 733 l 314 733 m 53 468 l 61 468 l 126 403 l 490 403 q 549 415 525 403 q 587 447 572 428 q 608 490 601 467 q 614 536 614 514 q 610 575 614 556 q 592 613 606 594 q 608 646 603 628 q 613 683 613 664 q 602 735 613 708 q 571 783 592 763 l 525 828 q 483 872 510 854 q 421 890 457 890 l 53 890 l 53 468 z "},"":{"ha":1204,"x_min":14,"x_max":1247,"o":"m 660 15 l 581 -82 l 92 -82 l 26 -17 l 14 -17 l 350 390 l 15 796 l 514 796 l 540 764 l 582 722 l 603 696 l 686 796 l 1185 796 l 1179 789 l 1246 722 l 914 321 l 1247 -82 l 758 -82 l 693 -17 l 688 -17 l 660 15 m 600 115 l 696 0 l 1151 0 l 828 390 l 1150 779 l 694 779 l 600 665 l 506 779 l 50 779 l 372 390 l 49 0 l 504 0 l 600 115 z "},"":{"ha":1129,"x_min":51,"x_max":1140,"o":"m 458 517 q 469 497 461 508 q 485 486 476 486 l 640 486 q 660 499 656 486 q 669 519 665 513 l 669 779 l 1058 779 l 1058 458 q 1042 396 1058 426 q 999 342 1025 365 q 941 303 974 318 q 878 288 908 288 l 458 288 l 458 256 q 469 217 458 228 q 508 204 481 207 l 1051 204 l 1051 0 l 226 0 q 161 15 190 0 q 111 58 132 31 q 79 122 90 85 q 68 200 68 158 l 68 779 l 458 779 l 458 517 m 475 796 l 51 796 l 51 200 q 76 83 51 133 q 144 6 100 32 l 186 -36 q 296 -82 232 -82 l 1133 -82 l 1133 147 l 1068 213 l 1068 221 l 1013 221 q 1060 250 1038 232 q 1101 290 1083 268 q 1130 338 1119 313 q 1140 389 1140 364 l 1140 722 l 1075 788 l 1075 796 l 653 796 l 653 522 q 651 517 651 519 q 640 503 646 503 l 540 503 l 540 722 l 475 788 l 475 796 z "},"":{"ha":1393,"x_min":53,"x_max":1406,"o":"m 392 475 q 390 476 392 476 l 392 475 m 1340 222 l 1340 214 l 1406 149 l 1406 -82 l 851 -82 q 760 -57 806 -82 q 678 4 714 -32 l 644 36 q 549 146 579 86 l 368 478 q 363 485 365 481 q 358 493 361 489 l 126 493 l 61 558 l 53 558 l 53 796 l 574 796 q 626 784 599 796 q 678 753 653 772 q 726 713 704 735 q 765 668 749 690 l 793 642 q 853 564 835 600 l 1032 243 l 1035 242 q 1040 233 1036 238 q 1046 222 1043 228 l 1049 222 l 1340 222 m 1049 206 q 1022 217 1036 206 q 994 245 1007 229 q 970 278 981 261 q 954 304 960 294 l 772 628 q 740 675 761 649 q 691 724 718 701 q 633 763 664 747 q 574 779 603 779 l 69 779 l 69 575 l 289 575 q 315 565 301 575 q 342 541 329 556 q 367 511 356 526 q 383 485 378 496 l 564 153 q 601 99 578 126 q 654 50 625 72 q 716 14 683 28 q 782 0 749 0 l 1324 0 l 1324 206 l 1049 206 z "},"":{"ha":465,"x_min":51,"x_max":476,"o":"m 51 410 q 66 467 51 440 q 105 513 81 493 q 162 543 129 532 q 232 554 194 554 q 328 531 285 554 q 394 472 372 508 l 439 428 q 476 340 476 390 q 463 285 476 311 q 425 241 449 260 q 369 211 401 222 q 301 200 338 200 q 223 215 260 200 q 163 253 186 229 l 118 297 q 69 345 88 317 q 51 410 51 374 m 68 410 q 81 359 68 382 q 117 319 94 336 q 169 292 139 301 q 232 282 199 282 q 295 292 265 282 q 347 319 325 301 q 381 359 368 336 q 394 410 394 382 q 381 460 394 436 q 347 501 368 483 q 295 528 325 518 q 232 538 265 538 q 169 528 199 538 q 117 501 139 518 q 81 460 94 483 q 68 410 68 436 z "},"":{"ha":326,"x_min":-60,"x_max":339,"o":"m 274 8 l 339 -57 l 339 -300 l 14 -300 l -51 -235 l -60 -235 l -60 -42 l 56 -42 l 56 17 l 274 17 l 274 8 m 257 0 l 72 0 l 72 -58 l -43 -58 l -43 -218 l 257 -218 l 257 0 z "},"":{"ha":411,"x_min":53,"x_max":424,"o":"m 358 881 l 424 815 l 424 401 l 200 401 l 135 467 l 126 467 l 126 676 l 61 742 l 53 742 l 53 889 l 358 889 l 358 881 m 342 872 l 69 872 l 69 758 l 143 758 l 143 483 l 342 483 l 342 872 z "},"":{"ha":643,"x_min":53,"x_max":656,"o":"m 479 890 q 533 874 508 890 q 572 832 557 857 l 621 785 q 656 706 656 750 l 656 500 q 647 463 656 481 q 623 432 638 446 q 590 410 608 418 q 553 403 571 403 l 229 403 q 156 436 189 403 l 106 485 q 68 521 83 499 q 53 569 53 543 l 53 775 q 62 816 53 796 q 86 853 71 836 q 122 880 101 869 q 165 890 142 890 l 479 890 m 165 874 q 128 865 146 874 q 98 842 111 856 q 77 810 85 828 q 69 775 69 793 l 69 569 q 78 538 69 553 q 99 510 86 522 q 128 492 113 499 q 160 485 144 485 l 483 485 q 516 492 500 485 q 544 510 532 499 q 565 538 557 522 q 574 569 574 553 l 574 775 q 566 810 574 793 q 546 842 558 828 q 516 865 533 856 q 479 874 499 874 l 165 874 m 293 713 q 300 724 293 721 l 343 724 q 349 719 347 724 q 351 713 351 715 l 351 639 q 343 631 349 631 l 300 631 q 293 639 293 631 l 293 713 z "},"":{"ha":836,"x_min":29,"x_max":871,"o":"m 122 388 l 29 481 l 192 643 l 449 388 l 446 385 l 461 368 l 481 388 l 388 481 l 550 643 l 807 388 l 804 385 l 871 318 l 619 67 l 553 133 l 550 131 l 438 243 l 261 67 l 194 133 l 192 131 l 29 293 l 122 388 m 410 293 l 550 153 l 785 388 l 550 621 l 410 481 l 503 388 l 410 293 m 51 293 l 192 153 l 426 388 l 192 621 l 51 481 l 144 388 l 51 293 z "},"":{"ha":1313,"x_min":13,"x_max":1325,"o":"m 815 349 q 839 373 821 357 q 874 389 857 389 l 1160 389 l 1160 165 l 1243 165 l 1243 53 l 1160 53 l 1160 0 l 954 0 l 954 53 l 642 53 l 642 132 l 815 350 l 815 349 m 954 165 l 954 226 l 908 165 l 954 165 m 406 390 l 253 390 l 253 665 l 179 665 l 179 779 l 451 779 l 451 440 l 760 779 l 1153 779 l 446 0 l 51 0 l 406 390 m 13 -17 l 26 -17 l 92 -82 l 521 -82 l 628 36 l 633 36 l 699 -29 l 958 -29 l 1011 -82 l 1242 -82 l 1242 -29 l 1325 -29 l 1325 108 l 1260 174 l 1260 182 l 1242 182 l 1242 332 l 1176 397 l 1176 406 l 963 406 l 1251 722 l 1185 789 l 1192 796 l 753 796 l 533 554 l 533 722 l 468 788 l 468 796 l 163 796 l 163 649 l 171 649 l 236 583 l 236 374 l 244 374 l 308 308 l 13 -17 z "},"":{"ha":1317,"x_min":13,"x_max":1329,"o":"m 963 406 l 1147 406 q 1208 388 1181 406 q 1250 343 1235 371 l 1296 297 q 1329 221 1329 264 l 1329 163 q 1319 126 1329 143 q 1293 93 1308 108 l 1329 57 l 1329 -82 l 813 -82 l 747 -17 l 739 -17 l 739 157 l 521 -82 l 92 -82 l 26 -17 l 13 -17 l 308 308 l 244 374 l 236 374 l 236 583 l 171 649 l 163 649 l 163 796 l 468 796 l 468 788 l 533 722 l 533 554 l 753 796 l 1192 796 l 1185 789 l 1251 722 l 963 406 m 757 343 l 757 275 l 1038 275 q 1042 271 1040 275 q 1043 264 1043 267 l 1043 250 l 849 250 q 817 244 833 250 q 787 230 800 239 q 765 208 774 221 q 756 178 756 194 l 756 0 l 1247 0 l 1247 114 l 961 114 l 961 140 l 1151 140 q 1182 149 1165 140 q 1213 169 1199 157 q 1238 199 1228 182 q 1247 232 1247 215 l 1247 290 q 1239 326 1247 308 q 1217 358 1231 344 q 1186 381 1204 372 q 1147 389 1168 389 l 799 389 l 1153 779 l 760 779 l 451 440 l 451 779 l 179 779 l 179 665 l 253 665 l 253 390 l 406 390 l 51 0 l 446 0 l 757 343 z "},"":{"ha":1364,"x_min":53,"x_max":1376,"o":"m 421 796 q 483 778 457 796 q 525 733 510 760 l 571 689 q 602 641 592 668 q 613 589 613 614 l 613 586 l 804 796 l 1243 796 l 1236 789 l 1303 722 l 1014 406 l 1228 406 l 1228 397 l 1293 332 l 1293 182 l 1311 182 l 1311 174 l 1376 108 l 1376 -29 l 1293 -29 l 1293 -82 l 1063 -82 l 1010 -29 l 750 -29 l 685 36 l 679 36 l 572 -82 l 143 -82 l 78 -17 l 64 -17 l 360 308 l 126 308 l 61 374 l 53 374 l 53 796 l 421 796 m 1006 226 l 1006 165 l 960 165 l 1006 226 m 693 132 l 693 53 l 1006 53 l 1006 0 l 1211 0 l 1211 53 l 1294 53 l 1294 165 l 1211 165 l 1211 389 l 925 389 q 890 373 908 389 q 867 349 872 357 l 867 350 l 693 132 m 69 639 l 69 531 l 315 531 q 332 518 332 531 q 315 504 332 504 l 69 504 l 69 390 l 421 390 q 438 392 428 390 q 464 397 449 394 l 103 0 l 497 0 l 1204 779 l 811 779 l 524 464 q 532 511 532 486 q 527 551 532 531 q 507 588 522 572 q 525 619 519 600 q 531 658 531 639 q 524 699 531 678 q 503 738 517 721 q 468 767 489 756 q 421 779 447 779 l 69 779 l 69 665 l 315 665 q 331 651 331 665 q 314 639 331 639 l 69 639 z "},"":{"ha":1122,"x_min":53,"x_max":1133,"o":"m 667 499 l 628 538 q 578 586 596 557 q 560 651 560 615 q 574 708 560 682 q 612 754 588 735 q 669 785 636 774 q 739 796 701 796 q 835 774 792 796 q 901 715 879 751 l 947 669 q 985 582 985 632 q 970 524 985 550 q 929 479 956 499 l 985 425 l 985 356 q 948 274 985 310 q 865 221 911 238 l 1068 221 l 1068 213 l 1133 147 l 1133 -82 l 329 -82 q 253 -66 289 -82 q 189 -22 217 -50 l 149 18 q 78 93 104 47 q 53 190 53 139 l 53 311 q 72 378 53 344 q 122 439 92 413 q 186 482 151 465 q 250 499 221 499 l 667 499 m 903 651 q 890 701 903 678 q 854 742 876 725 q 802 769 832 760 q 739 779 772 779 q 676 769 706 779 q 624 742 646 760 q 590 701 603 725 q 576 651 576 678 q 590 601 576 624 q 624 560 603 578 q 676 533 646 543 q 739 524 706 524 q 802 533 772 524 q 854 560 832 543 q 890 601 876 578 q 903 651 903 624 m 250 482 q 191 467 222 482 q 133 428 160 451 q 88 373 106 404 q 69 311 69 342 l 69 190 q 85 120 69 154 q 126 59 100 86 q 186 16 151 32 q 260 0 221 0 l 1051 0 l 1051 204 l 488 204 q 466 219 474 204 q 458 246 458 235 l 458 289 l 725 289 q 784 299 753 289 q 842 328 815 310 q 885 371 868 346 q 903 425 903 396 l 903 482 l 250 482 z "},"":{"ha":1147,"x_min":53,"x_max":1160,"o":"m 557 493 q 546 486 550 493 q 539 472 542 479 l 539 435 l 672 435 l 672 493 l 557 493 m 628 1072 l 678 1024 q 683 1017 682 1019 l 733 949 l 738 944 q 755 919 749 931 q 761 892 761 908 l 761 876 q 758 844 761 857 q 738 815 754 832 q 710 796 722 801 l 897 796 q 987 768 942 796 q 1061 700 1032 740 l 1101 660 q 1144 601 1128 633 q 1160 538 1160 569 l 1160 -82 l 746 -82 l 681 -17 l 672 -17 l 672 138 l 539 138 l 539 -82 l 126 -82 l 61 -17 l 53 -17 l 53 607 q 71 677 53 643 q 117 738 89 711 q 181 780 146 764 q 250 796 217 796 l 618 796 q 601 810 610 800 l 553 858 q 538 867 544 861 q 525 881 532 874 l 460 957 l 457 960 q 444 978 449 971 q 440 1006 440 986 q 483 1100 440 1058 l 483 1099 q 515 1117 500 1114 q 550 1119 531 1119 q 617 1089 593 1119 l 628 1072 m 1078 607 q 1062 669 1078 638 q 1019 724 1046 700 q 961 764 993 749 q 897 779 929 779 l 250 779 q 186 765 218 779 q 128 726 154 750 q 86 671 103 701 q 69 607 69 640 l 69 0 l 457 0 l 457 219 l 689 219 l 689 0 l 1078 0 l 1078 607 m 457 544 q 469 564 461 553 q 488 575 476 575 l 660 575 q 681 563 676 575 q 689 543 685 551 l 689 418 l 457 418 l 457 543 l 457 544 m 604 1079 q 550 1103 585 1103 q 517 1099 532 1103 q 488 1081 503 1096 q 464 1046 471 1065 q 457 1006 457 1026 q 463 981 457 990 q 478 961 468 972 l 538 892 q 593 867 558 867 q 660 894 628 867 q 676 919 674 908 q 679 946 679 931 l 679 961 q 674 985 679 975 q 658 1006 668 994 l 604 1079 z "},"":{"ha":1147,"x_min":53,"x_max":1160,"o":"m 557 493 q 546 486 550 493 q 539 472 542 479 l 539 435 l 672 435 l 672 493 l 557 493 m 451 961 q 460 992 451 978 q 483 1025 468 1006 l 531 1089 q 597 1119 553 1119 q 631 1117 617 1119 q 664 1099 646 1114 l 664 1100 q 678 1084 671 1092 q 689 1068 685 1076 l 740 1018 q 772 936 772 985 q 768 910 772 918 q 757 893 764 903 l 747 883 l 749 883 l 689 814 q 678 803 683 808 q 668 796 674 799 l 897 796 q 987 768 942 796 q 1061 700 1032 740 l 1101 660 q 1144 601 1128 633 q 1160 538 1160 569 l 1160 -82 l 746 -82 l 681 -17 l 672 -17 l 672 138 l 539 138 l 539 -82 l 126 -82 l 61 -17 l 53 -17 l 53 607 q 71 677 53 643 q 117 738 89 711 q 181 780 146 764 q 250 796 217 796 l 575 796 q 549 815 563 801 l 497 865 q 476 882 486 871 q 455 913 458 900 q 451 946 451 926 l 451 961 m 1078 607 q 1062 669 1078 638 q 1019 724 1046 700 q 961 764 993 749 q 897 779 929 779 l 250 779 q 186 765 218 779 q 128 726 154 750 q 86 671 103 701 q 69 607 69 640 l 69 0 l 457 0 l 457 219 l 689 219 l 689 0 l 1078 0 l 1078 607 m 457 544 q 469 564 461 553 q 488 575 476 575 l 660 575 q 681 563 676 575 q 689 543 685 551 l 689 418 l 457 418 l 457 543 l 457 544 m 489 1006 q 474 985 479 994 q 468 961 468 975 l 468 946 q 471 919 468 931 q 488 894 474 908 q 554 867 519 867 q 610 892 589 867 l 669 961 q 685 981 679 972 q 690 1006 690 990 q 683 1046 690 1026 q 660 1081 676 1065 q 630 1099 644 1096 q 597 1103 615 1103 q 543 1079 563 1103 l 489 1006 z "},"":{"ha":1147,"x_min":53,"x_max":1160,"o":"m 590 796 l 693 796 l 636 853 l 631 853 l 590 796 m 557 493 q 546 486 550 493 q 539 472 542 479 l 539 435 l 672 435 l 672 493 l 557 493 m 946 788 q 1009 753 979 776 q 1061 700 1039 729 l 1101 660 q 1144 601 1128 633 q 1160 538 1160 569 l 1160 -82 l 746 -82 l 681 -17 l 672 -17 l 672 138 l 539 138 l 539 -82 l 126 -82 l 61 -17 l 53 -17 l 53 607 q 71 677 53 643 q 117 738 89 711 q 181 780 146 764 q 250 796 217 796 l 311 796 l 254 853 l 242 853 l 444 1117 l 704 1117 l 722 1093 l 772 1043 l 967 788 l 946 788 m 1078 607 q 1062 669 1078 638 q 1019 724 1046 700 q 961 764 993 749 q 897 779 929 779 l 250 779 q 186 765 218 779 q 128 726 154 750 q 86 671 103 701 q 69 607 69 640 l 69 0 l 457 0 l 457 219 l 689 219 l 689 0 l 1078 0 l 1078 607 m 457 544 q 469 564 461 553 q 488 575 476 575 l 660 575 q 681 563 676 575 q 689 543 685 551 l 689 418 l 457 418 l 457 543 l 457 544 m 574 958 l 638 869 l 872 869 l 697 1100 l 451 1100 l 275 869 l 510 869 l 574 958 z "},"":{"ha":1147,"x_min":53,"x_max":1160,"o":"m 543 796 l 646 796 l 589 853 l 583 853 l 543 796 m 557 493 q 546 486 550 493 q 539 472 542 479 l 539 435 l 672 435 l 672 493 l 557 493 m 949 1110 l 1015 1043 l 825 796 l 897 796 q 987 768 942 796 q 1061 700 1032 740 l 1101 660 q 1144 601 1128 633 q 1160 538 1160 569 l 1160 -82 l 746 -82 l 681 -17 l 672 -17 l 672 138 l 539 138 l 539 -82 l 126 -82 l 61 -17 l 53 -17 l 53 607 q 71 677 53 643 q 117 738 89 711 q 181 780 146 764 q 250 796 217 796 l 264 796 l 207 853 l 194 853 l 397 1117 l 565 1117 l 582 1094 l 629 1047 l 679 1117 l 954 1117 l 949 1110 m 1078 607 q 1062 669 1078 638 q 1019 724 1046 700 q 961 764 993 749 q 897 779 929 779 l 250 779 q 186 765 218 779 q 128 726 154 750 q 86 671 103 701 q 69 607 69 640 l 69 0 l 457 0 l 457 219 l 689 219 l 689 0 l 1078 0 l 1078 607 m 457 544 q 469 564 461 553 q 488 575 476 575 l 660 575 q 681 563 676 575 q 689 543 685 551 l 689 418 l 457 418 l 457 543 l 457 544 m 921 1100 l 686 1100 l 624 1013 l 558 1100 l 404 1100 l 228 869 l 463 869 l 525 957 l 590 869 l 744 869 l 921 1100 z "},"":{"ha":1147,"x_min":53,"x_max":1160,"o":"m 557 493 q 546 486 550 493 q 539 472 542 479 l 539 435 l 672 435 l 672 493 l 557 493 m 646 878 l 625 894 q 592 833 618 858 q 529 796 567 807 l 754 796 q 693 832 717 807 l 646 878 m 257 985 q 269 1035 257 1011 q 301 1076 281 1058 q 349 1104 321 1094 q 410 1114 376 1114 q 492 1094 456 1114 q 546 1043 528 1075 l 586 1003 q 635 1083 594 1051 q 738 1114 676 1114 q 819 1094 783 1114 q 874 1043 856 1075 l 921 997 q 956 915 956 963 q 928 840 956 872 q 858 796 901 808 l 897 796 q 987 768 942 796 q 1061 700 1032 740 l 1101 660 q 1144 601 1128 633 q 1160 538 1160 569 l 1160 -82 l 746 -82 l 681 -17 l 672 -17 l 672 138 l 539 138 l 539 -82 l 126 -82 l 61 -17 l 53 -17 l 53 607 q 71 677 53 643 q 117 738 89 711 q 181 780 146 764 q 250 796 217 796 l 426 796 q 365 832 389 807 l 318 878 q 274 923 290 896 q 257 985 257 950 m 1078 607 q 1062 669 1078 638 q 1019 724 1046 700 q 961 764 993 749 q 897 779 929 779 l 250 779 q 186 765 218 779 q 128 726 154 750 q 86 671 103 701 q 69 607 69 640 l 69 0 l 457 0 l 457 219 l 689 219 l 689 0 l 1078 0 l 1078 607 m 457 544 q 469 564 461 553 q 488 575 476 575 l 660 575 q 681 563 676 575 q 689 543 685 551 l 689 418 l 457 418 l 457 543 l 457 544 m 874 985 q 835 1065 874 1032 q 738 1097 796 1097 q 640 1065 679 1097 q 601 985 601 1032 q 641 903 601 936 q 738 871 681 871 q 834 903 794 871 q 874 985 874 936 m 274 985 q 313 903 274 936 q 410 871 353 871 q 506 903 467 871 q 546 985 546 936 q 507 1065 546 1032 q 410 1097 468 1097 q 313 1065 351 1097 q 274 985 274 1032 z "},"":{"ha":1147,"x_min":53,"x_max":1160,"o":"m 557 493 q 546 486 550 493 q 539 472 542 479 l 539 435 l 672 435 l 672 493 l 557 493 m 422 985 q 434 1035 422 1011 q 466 1076 446 1058 q 514 1104 486 1094 q 575 1114 542 1114 q 657 1094 621 1114 q 711 1043 693 1075 l 758 997 q 793 915 793 963 q 766 840 793 872 q 696 796 739 808 l 897 796 q 987 768 942 796 q 1061 700 1032 740 l 1101 660 q 1144 601 1128 633 q 1160 538 1160 569 l 1160 -82 l 746 -82 l 681 -17 l 672 -17 l 672 138 l 539 138 l 539 -82 l 126 -82 l 61 -17 l 53 -17 l 53 607 q 71 677 53 643 q 117 738 89 711 q 181 780 146 764 q 250 796 217 796 l 592 796 q 531 832 554 807 l 483 878 q 439 923 456 896 q 422 985 422 950 m 1078 607 q 1062 669 1078 638 q 1019 724 1046 700 q 961 764 993 749 q 897 779 929 779 l 250 779 q 186 765 218 779 q 128 726 154 750 q 86 671 103 701 q 69 607 69 640 l 69 0 l 457 0 l 457 219 l 689 219 l 689 0 l 1078 0 l 1078 607 m 457 544 q 469 564 461 553 q 488 575 476 575 l 660 575 q 681 563 676 575 q 689 543 685 551 l 689 418 l 457 418 l 457 543 l 457 544 m 439 985 q 478 903 439 936 q 575 871 518 871 q 672 903 632 871 q 711 985 711 936 q 672 1065 711 1032 q 575 1097 633 1097 q 478 1065 517 1097 q 439 985 439 1032 m 526 985 q 540 1006 526 997 q 574 1014 554 1014 q 607 1006 593 1014 q 621 985 621 997 q 607 963 621 972 q 574 954 593 954 q 540 963 554 954 q 526 985 526 972 z "},"":{"ha":1965,"x_min":53,"x_max":1978,"o":"m 689 418 l 689 543 q 681 563 685 551 q 660 575 676 575 l 488 575 q 469 564 476 575 q 457 544 461 553 l 457 418 l 689 418 m 689 0 l 689 219 l 457 219 l 457 0 l 69 0 l 69 607 q 86 671 69 640 q 128 726 103 701 q 186 765 154 750 q 250 779 218 779 l 897 779 q 977 756 938 779 q 1043 697 1017 732 q 1108 756 1069 733 q 1193 779 1147 779 l 1896 779 l 1896 575 l 1421 575 q 1399 558 1407 575 q 1390 531 1390 542 q 1401 501 1390 515 q 1431 488 1413 488 l 1896 488 l 1896 289 l 1421 289 q 1407 276 1418 289 q 1392 256 1396 264 q 1391 251 1392 254 q 1390 246 1390 249 q 1391 240 1390 243 q 1392 236 1392 238 q 1407 216 1396 228 q 1421 204 1418 204 l 1896 204 l 1896 0 l 1183 0 q 1078 39 1125 0 l 1078 0 l 689 0 m 126 -82 l 539 -82 l 539 138 l 672 138 l 672 -17 l 681 -17 l 746 -82 l 1160 -82 l 1160 -56 q 1253 -82 1204 -82 l 1978 -82 l 1978 147 l 1918 207 l 1978 207 l 1978 431 l 1915 493 l 1978 493 l 1978 722 l 1913 788 l 1913 796 l 1193 796 q 1110 776 1149 796 q 1042 722 1072 756 q 974 775 1013 754 q 897 796 936 796 l 250 796 q 181 780 217 796 q 117 738 146 764 q 71 677 89 711 q 53 607 53 643 l 53 -17 l 61 -17 l 126 -82 m 557 493 l 672 493 l 672 435 l 539 435 l 539 472 q 546 486 542 479 q 557 493 550 493 z "},"":{"ha":1032,"x_min":53,"x_max":1044,"o":"m 540 221 l 971 221 l 971 213 l 1036 147 l 1036 -82 l 763 -82 l 763 -300 l 438 -300 l 372 -235 l 364 -235 l 364 -82 l 319 -82 q 247 -64 283 -82 q 182 -18 210 -46 l 143 19 q 78 87 104 47 q 53 171 53 126 l 53 581 q 69 658 53 619 q 113 726 85 696 q 179 776 142 757 q 260 796 217 796 l 979 796 l 979 788 l 1044 722 l 1044 493 l 557 493 q 545 483 550 493 q 540 464 540 472 l 540 221 m 681 0 l 954 0 l 954 204 l 488 204 q 468 213 476 204 q 458 236 460 222 l 458 533 q 466 560 458 544 q 488 575 474 575 l 963 575 l 963 779 l 260 779 q 186 762 221 779 q 126 716 151 744 q 85 652 100 688 q 69 581 69 617 l 69 171 q 86 107 69 138 q 128 53 103 76 q 186 15 154 29 q 250 0 218 0 l 496 0 l 496 -58 l 381 -58 l 381 -218 l 681 -218 l 681 0 z "},"":{"ha":1032,"x_min":53,"x_max":1044,"o":"m 551 153 q 556 149 553 149 l 551 153 m 558 796 q 542 810 550 800 l 493 858 q 478 867 485 861 q 465 881 472 874 l 400 957 l 397 960 q 385 978 389 971 q 381 1006 381 986 q 424 1100 381 1058 l 424 1099 q 456 1117 440 1114 q 490 1119 471 1119 q 557 1089 533 1119 l 568 1072 l 618 1024 q 624 1017 622 1019 l 674 949 l 678 944 q 695 919 689 931 q 701 892 701 908 l 701 876 q 698 844 701 857 q 678 815 694 832 q 650 796 663 801 l 979 796 l 979 788 l 1044 722 l 1044 493 l 982 493 l 1044 431 l 1044 207 l 985 207 l 1044 147 l 1044 -82 l 319 -82 q 247 -64 283 -82 q 182 -18 210 -46 l 143 19 q 78 87 104 47 q 53 171 53 126 l 53 581 q 69 658 53 619 q 113 726 85 696 q 179 776 142 757 q 260 796 217 796 l 558 796 m 544 1079 q 490 1103 525 1103 q 458 1099 472 1103 q 428 1081 443 1096 q 404 1046 411 1065 q 397 1006 397 1026 q 403 981 397 990 q 418 961 408 972 l 478 892 q 533 867 499 867 q 600 894 568 867 q 617 919 614 908 q 619 946 619 931 l 619 961 q 614 985 619 975 q 599 1006 608 994 l 544 1079 m 260 779 q 186 762 221 779 q 126 716 151 744 q 85 652 100 688 q 69 581 69 617 l 69 171 q 86 107 69 138 q 128 53 103 76 q 186 15 154 29 q 250 0 218 0 l 963 0 l 963 204 l 488 204 q 474 216 485 204 q 458 236 463 228 q 458 240 458 238 q 457 246 457 243 q 458 251 457 249 q 458 256 458 254 q 474 276 463 264 q 488 289 485 289 l 963 289 l 963 488 l 497 488 q 468 501 479 488 q 457 531 457 515 q 465 558 457 542 q 488 575 474 575 l 963 575 l 963 779 l 260 779 z "},"":{"ha":1032,"x_min":53,"x_max":1044,"o":"m 551 153 q 556 149 553 149 l 551 153 m 564 796 q 538 815 551 801 l 486 865 q 465 882 475 871 q 444 913 447 900 q 440 946 440 926 l 440 961 q 449 992 440 978 q 472 1025 457 1006 l 519 1089 q 586 1119 542 1119 q 620 1117 606 1119 q 653 1099 635 1114 l 653 1100 q 667 1084 660 1092 q 678 1068 674 1076 l 729 1018 q 761 936 761 985 q 757 910 761 918 q 746 893 753 903 l 736 883 l 738 883 l 678 814 q 667 803 672 808 q 657 796 663 799 l 979 796 l 979 788 l 1044 722 l 1044 493 l 982 493 l 1044 431 l 1044 207 l 985 207 l 1044 147 l 1044 -82 l 319 -82 q 247 -64 283 -82 q 182 -18 210 -46 l 143 19 q 78 87 104 47 q 53 171 53 126 l 53 581 q 69 658 53 619 q 113 726 85 696 q 179 776 142 757 q 260 796 217 796 l 564 796 m 478 1006 q 463 985 468 994 q 457 961 457 975 l 457 946 q 460 919 457 931 q 476 894 463 908 q 543 867 508 867 q 599 892 578 867 l 658 961 q 674 981 668 972 q 679 1006 679 990 q 672 1046 679 1026 q 649 1081 665 1065 q 619 1099 633 1096 q 586 1103 604 1103 q 532 1079 551 1103 l 478 1006 m 260 779 q 186 762 221 779 q 126 716 151 744 q 85 652 100 688 q 69 581 69 617 l 69 171 q 86 107 69 138 q 128 53 103 76 q 186 15 154 29 q 250 0 218 0 l 963 0 l 963 204 l 488 204 q 474 216 485 204 q 458 236 463 228 q 458 240 458 238 q 457 246 457 243 q 458 251 457 249 q 458 256 458 254 q 474 276 463 264 q 488 289 485 289 l 963 289 l 963 488 l 497 488 q 468 501 479 488 q 457 531 457 515 q 465 558 457 542 q 488 575 474 575 l 963 575 l 963 779 l 260 779 z "},"":{"ha":1032,"x_min":53,"x_max":1044,"o":"m 551 153 q 556 149 553 149 l 551 153 m 538 796 l 640 796 l 583 853 l 578 853 l 538 796 m 143 19 q 78 87 104 47 q 53 171 53 126 l 53 581 q 69 656 53 618 q 113 726 85 694 q 178 776 140 757 q 258 796 215 796 l 201 853 l 189 853 l 392 1117 l 651 1117 l 669 1093 l 719 1043 l 906 796 l 979 796 l 979 788 l 1044 722 l 1044 493 l 982 493 l 1044 431 l 1044 207 l 985 207 l 1044 147 l 1044 -82 l 319 -82 q 247 -64 283 -82 q 182 -18 210 -46 l 143 19 m 521 958 l 585 869 l 819 869 l 644 1100 l 399 1100 l 222 869 l 457 869 l 521 958 m 260 779 q 186 762 221 779 q 126 716 151 744 q 85 652 100 688 q 69 581 69 617 l 69 171 q 86 107 69 138 q 128 53 103 76 q 186 15 154 29 q 250 0 218 0 l 963 0 l 963 204 l 488 204 q 474 216 485 204 q 458 236 463 228 q 458 240 458 238 q 457 246 457 243 q 458 251 457 249 q 458 256 458 254 q 474 276 463 264 q 488 289 485 289 l 963 289 l 963 488 l 497 488 q 468 501 479 488 q 457 531 457 515 q 465 558 457 542 q 488 575 474 575 l 963 575 l 963 779 l 260 779 z "},"":{"ha":1032,"x_min":53,"x_max":1044,"o":"m 593 878 l 572 894 q 540 833 565 858 q 476 796 514 807 l 701 796 q 640 832 664 807 l 593 878 m 374 796 q 313 832 336 807 l 265 878 q 221 923 238 896 q 204 985 204 950 q 216 1035 204 1011 q 248 1076 228 1058 q 296 1104 268 1094 q 357 1114 324 1114 q 439 1094 403 1114 q 493 1043 475 1075 l 533 1003 q 583 1083 542 1051 q 685 1114 624 1114 q 767 1094 731 1114 q 821 1043 803 1075 l 868 997 q 903 915 903 963 q 876 840 903 872 q 806 796 849 808 l 979 796 l 979 788 l 1044 722 l 1044 493 l 982 493 l 1044 431 l 1044 207 l 985 207 l 1044 147 l 1044 -82 l 319 -82 q 247 -64 283 -82 q 182 -18 210 -46 l 143 19 q 78 87 104 47 q 53 171 53 126 l 53 581 q 69 658 53 619 q 113 726 85 696 q 179 776 142 757 q 260 796 217 796 l 374 796 m 821 985 q 782 1065 821 1032 q 685 1097 743 1097 q 588 1065 626 1097 q 549 985 549 1032 q 588 903 549 936 q 685 871 628 871 q 781 903 742 871 q 821 985 821 936 m 221 985 q 260 903 221 936 q 357 871 300 871 q 453 903 414 871 q 493 985 493 936 q 454 1065 493 1032 q 357 1097 415 1097 q 260 1065 299 1097 q 221 985 221 1032 m 260 779 q 186 762 221 779 q 126 716 151 744 q 85 652 100 688 q 69 581 69 617 l 69 171 q 86 107 69 138 q 128 53 103 76 q 186 15 154 29 q 250 0 218 0 l 963 0 l 963 204 l 488 204 q 474 216 485 204 q 458 236 463 228 q 458 240 458 238 q 457 246 457 243 q 458 251 457 249 q 458 256 458 254 q 474 276 463 264 q 488 289 485 289 l 963 289 l 963 488 l 497 488 q 468 501 479 488 q 457 531 457 515 q 465 558 457 542 q 488 575 474 575 l 963 575 l 963 779 l 260 779 z "},"":{"ha":1222,"x_min":53,"x_max":1235,"o":"m 154 779 l 1000 779 q 1056 762 1028 779 q 1105 717 1083 744 q 1140 658 1126 690 q 1153 599 1153 626 l 1153 153 q 1141 101 1153 128 q 1110 51 1129 74 q 1067 15 1090 29 q 1018 0 1043 0 l 154 0 l 154 289 l 69 289 l 69 488 l 154 488 l 154 779 m 686 208 q 731 221 715 208 q 753 253 746 233 q 763 296 761 272 q 764 340 764 319 l 764 435 q 763 475 764 453 q 755 516 761 497 q 737 547 749 535 q 706 560 725 560 l 543 560 l 543 488 l 619 488 l 619 289 l 543 289 l 543 208 l 686 208 m 53 272 l 61 272 l 126 207 l 138 207 l 138 -17 l 146 -17 l 211 -82 l 1088 -82 q 1140 -66 1114 -82 q 1188 -26 1167 -50 q 1222 26 1208 -3 q 1235 83 1235 56 l 1235 529 q 1215 604 1235 565 q 1165 674 1196 643 l 1129 710 q 1070 771 1104 746 q 1000 796 1036 796 l 138 796 l 138 504 l 53 504 l 53 272 m 701 431 l 654 478 l 744 478 q 747 456 746 467 q 747 435 747 444 l 747 340 q 747 305 747 324 q 741 270 746 286 q 727 242 736 254 q 701 226 718 231 l 701 431 z "},"":{"ha":1147,"x_min":53,"x_max":1160,"o":"m 744 869 l 590 869 l 525 957 l 463 869 l 228 869 l 404 1100 l 558 1100 l 624 1013 l 686 1100 l 921 1100 l 744 869 m 689 543 q 680 563 685 551 q 660 575 675 575 l 457 575 l 457 0 l 69 0 l 69 779 l 897 779 q 960 764 928 779 q 1019 725 993 749 q 1061 670 1044 701 q 1078 608 1078 639 l 1078 0 l 689 0 l 689 543 m 954 1117 l 679 1117 l 629 1047 l 582 1094 l 565 1117 l 397 1117 l 194 853 l 207 853 l 264 796 l 53 796 l 53 -17 l 61 -17 l 126 -82 l 539 -82 l 539 493 l 672 493 l 672 -17 l 681 -17 l 746 -82 l 1160 -82 l 1160 539 q 1144 602 1160 571 q 1103 658 1128 633 l 1061 699 q 987 768 1032 740 q 897 796 942 796 l 825 796 l 1015 1043 l 949 1110 l 954 1117 m 583 853 l 589 853 l 646 796 l 543 796 l 583 853 z "},"":{"ha":1147,"x_min":53,"x_max":1160,"o":"m 539 221 l 660 221 q 667 228 663 221 q 674 242 671 235 l 674 493 l 557 493 q 544 480 549 490 q 539 461 539 469 l 539 221 m 618 796 q 601 810 610 800 l 553 858 q 538 867 544 861 q 525 881 532 874 l 460 957 l 457 960 q 444 978 449 971 q 440 1006 440 986 q 483 1100 440 1058 l 483 1099 q 515 1117 500 1114 q 550 1119 531 1119 q 617 1089 593 1119 l 628 1072 l 678 1024 q 683 1017 682 1019 l 733 949 l 738 944 q 755 919 749 931 q 761 892 761 908 l 761 876 q 758 844 761 857 q 738 815 754 832 q 710 796 722 801 l 888 796 q 984 768 940 796 q 1056 699 1028 740 l 1093 661 q 1142 591 1124 631 q 1160 511 1160 551 l 1160 101 q 1142 33 1160 65 q 1097 -26 1125 0 q 1035 -67 1069 -51 q 967 -82 1000 -82 l 319 -82 q 247 -64 283 -82 q 182 -18 210 -46 l 143 19 q 78 87 104 47 q 53 171 53 126 l 53 581 q 69 658 53 619 q 113 726 85 696 q 179 776 142 757 q 260 796 217 796 l 618 796 m 604 1079 q 550 1103 585 1103 q 517 1099 532 1103 q 488 1081 503 1096 q 464 1046 471 1065 q 457 1006 457 1026 q 463 981 457 990 q 478 961 468 972 l 538 892 q 593 867 558 867 q 660 894 628 867 q 676 919 674 908 q 679 946 679 931 l 679 961 q 674 985 679 975 q 658 1006 668 994 l 604 1079 m 457 531 q 464 557 457 542 q 485 575 471 572 l 660 575 q 683 558 675 575 q 690 531 690 542 l 690 236 q 677 216 686 228 q 660 204 668 204 l 488 204 q 464 217 469 204 q 457 236 458 229 l 457 531 m 260 779 q 186 762 221 779 q 126 716 151 744 q 85 652 100 688 q 69 581 69 617 l 69 171 q 86 107 69 138 q 128 53 103 76 q 186 15 154 29 q 250 0 218 0 l 897 0 q 961 15 929 0 q 1019 53 993 29 q 1062 107 1046 76 q 1078 171 1078 138 l 1078 581 q 1063 652 1078 617 q 1022 716 1047 688 q 961 762 996 744 q 888 779 926 779 l 260 779 z "},"":{"ha":1147,"x_min":53,"x_max":1160,"o":"m 539 221 l 660 221 q 667 228 663 221 q 674 242 671 235 l 674 493 l 557 493 q 544 480 549 490 q 539 461 539 469 l 539 221 m 575 796 q 549 815 563 801 l 497 865 q 476 882 486 871 q 455 913 458 900 q 451 946 451 926 l 451 961 q 460 992 451 978 q 483 1025 468 1006 l 531 1089 q 597 1119 553 1119 q 631 1117 617 1119 q 664 1099 646 1114 l 664 1100 q 678 1084 671 1092 q 689 1068 685 1076 l 740 1018 q 772 936 772 985 q 768 910 772 918 q 757 893 764 903 l 747 883 l 749 883 l 689 814 q 678 803 683 808 q 668 796 674 799 l 888 796 q 984 768 940 796 q 1056 699 1028 740 l 1093 661 q 1142 591 1124 631 q 1160 511 1160 551 l 1160 101 q 1142 33 1160 65 q 1097 -26 1125 0 q 1035 -67 1069 -51 q 967 -82 1000 -82 l 319 -82 q 247 -64 283 -82 q 182 -18 210 -46 l 143 19 q 78 87 104 47 q 53 171 53 126 l 53 581 q 69 658 53 619 q 113 726 85 696 q 179 776 142 757 q 260 796 217 796 l 575 796 m 489 1006 q 474 985 479 994 q 468 961 468 975 l 468 946 q 471 919 468 931 q 488 894 474 908 q 554 867 519 867 q 610 892 589 867 l 669 961 q 685 981 679 972 q 690 1006 690 990 q 683 1046 690 1026 q 660 1081 676 1065 q 630 1099 644 1096 q 597 1103 615 1103 q 543 1079 563 1103 l 489 1006 m 457 531 q 464 557 457 542 q 485 575 471 572 l 660 575 q 683 558 675 575 q 690 531 690 542 l 690 236 q 677 216 686 228 q 660 204 668 204 l 488 204 q 464 217 469 204 q 457 236 458 229 l 457 531 m 260 779 q 186 762 221 779 q 126 716 151 744 q 85 652 100 688 q 69 581 69 617 l 69 171 q 86 107 69 138 q 128 53 103 76 q 186 15 154 29 q 250 0 218 0 l 897 0 q 961 15 929 0 q 1019 53 993 29 q 1062 107 1046 76 q 1078 171 1078 138 l 1078 581 q 1063 652 1078 617 q 1022 716 1047 688 q 961 762 996 744 q 888 779 926 779 l 260 779 z "},"":{"ha":1147,"x_min":53,"x_max":1160,"o":"m 590 796 l 693 796 l 636 853 l 631 853 l 590 796 m 539 221 l 660 221 q 667 228 663 221 q 674 242 671 235 l 674 493 l 557 493 q 544 480 549 490 q 539 461 539 469 l 539 221 m 311 796 l 254 853 l 242 853 l 444 1117 l 704 1117 l 722 1093 l 772 1043 l 967 788 l 940 788 q 1006 753 976 776 q 1056 699 1035 729 l 1093 661 q 1142 591 1124 631 q 1160 511 1160 551 l 1160 101 q 1142 33 1160 65 q 1097 -26 1125 0 q 1035 -67 1069 -51 q 967 -82 1000 -82 l 319 -82 q 247 -64 283 -82 q 182 -18 210 -46 l 143 19 q 78 87 104 47 q 53 171 53 126 l 53 581 q 69 658 53 619 q 113 726 85 696 q 179 776 142 757 q 260 796 217 796 l 311 796 m 574 958 l 638 869 l 872 869 l 697 1100 l 451 1100 l 275 869 l 510 869 l 574 958 m 457 531 q 464 557 457 542 q 485 575 471 572 l 660 575 q 683 558 675 575 q 690 531 690 542 l 690 236 q 677 216 686 228 q 660 204 668 204 l 488 204 q 464 217 469 204 q 457 236 458 229 l 457 531 m 260 779 q 186 762 221 779 q 126 716 151 744 q 85 652 100 688 q 69 581 69 617 l 69 171 q 86 107 69 138 q 128 53 103 76 q 186 15 154 29 q 250 0 218 0 l 897 0 q 961 15 929 0 q 1019 53 993 29 q 1062 107 1046 76 q 1078 171 1078 138 l 1078 581 q 1063 652 1078 617 q 1022 716 1047 688 q 961 762 996 744 q 888 779 926 779 l 260 779 z "},"":{"ha":1147,"x_min":53,"x_max":1160,"o":"m 888 779 q 961 762 926 779 q 1022 716 996 744 q 1063 652 1047 688 q 1078 581 1078 617 l 1078 171 q 1062 107 1078 138 q 1019 53 1046 76 q 961 15 993 29 q 897 0 929 0 l 250 0 q 186 15 218 0 q 128 53 154 29 q 86 107 103 76 q 69 171 69 138 l 69 581 q 85 652 69 617 q 126 716 100 688 q 186 762 151 744 q 260 779 221 779 l 888 779 m 744 869 l 590 869 l 525 957 l 463 869 l 228 869 l 404 1100 l 558 1100 l 624 1013 l 686 1100 l 921 1100 l 744 869 m 457 236 q 464 217 458 229 q 488 204 469 204 l 660 204 q 677 216 668 204 q 690 236 686 228 l 690 531 q 683 558 690 542 q 660 575 675 575 l 485 575 q 464 557 471 572 q 457 531 457 542 l 457 236 m 888 796 l 825 796 l 1015 1043 l 949 1110 l 954 1117 l 679 1117 l 629 1047 l 582 1094 l 565 1117 l 397 1117 l 194 853 l 207 853 l 264 796 l 260 796 q 179 776 217 796 q 113 726 142 757 q 69 658 85 696 q 53 581 53 619 l 53 171 q 78 87 53 126 q 143 19 104 47 l 182 -18 q 247 -64 210 -46 q 319 -82 283 -82 l 967 -82 q 1035 -67 1000 -82 q 1097 -26 1069 -51 q 1142 33 1125 0 q 1160 101 1160 65 l 1160 511 q 1142 591 1160 551 q 1093 661 1124 631 l 1056 699 q 984 768 1028 740 q 888 796 940 796 m 539 461 q 544 480 539 469 q 557 493 549 490 l 674 493 l 674 242 q 667 228 671 235 q 660 221 663 221 l 539 221 l 539 461 m 583 853 l 589 853 l 646 796 l 543 796 l 583 853 z "},"":{"ha":1147,"x_min":53,"x_max":1160,"o":"m 646 878 l 625 894 q 592 833 618 858 q 529 796 567 807 l 754 796 q 693 832 717 807 l 646 878 m 539 221 l 660 221 q 667 228 663 221 q 674 242 671 235 l 674 493 l 557 493 q 544 480 549 490 q 539 461 539 469 l 539 221 m 426 796 q 365 832 389 807 l 318 878 q 274 923 290 896 q 257 985 257 950 q 269 1035 257 1011 q 301 1076 281 1058 q 349 1104 321 1094 q 410 1114 376 1114 q 492 1094 456 1114 q 546 1043 528 1075 l 586 1003 q 635 1083 594 1051 q 738 1114 676 1114 q 819 1094 783 1114 q 874 1043 856 1075 l 921 997 q 956 915 956 963 q 928 840 956 872 q 858 796 901 808 l 888 796 q 984 768 940 796 q 1056 699 1028 740 l 1093 661 q 1142 591 1124 631 q 1160 511 1160 551 l 1160 101 q 1142 33 1160 65 q 1097 -26 1125 0 q 1035 -67 1069 -51 q 967 -82 1000 -82 l 319 -82 q 247 -64 283 -82 q 182 -18 210 -46 l 143 19 q 78 87 104 47 q 53 171 53 126 l 53 581 q 69 658 53 619 q 113 726 85 696 q 179 776 142 757 q 260 796 217 796 l 426 796 m 874 985 q 835 1065 874 1032 q 738 1097 796 1097 q 640 1065 679 1097 q 601 985 601 1032 q 641 903 601 936 q 738 871 681 871 q 834 903 794 871 q 874 985 874 936 m 274 985 q 313 903 274 936 q 410 871 353 871 q 506 903 467 871 q 546 985 546 936 q 507 1065 546 1032 q 410 1097 468 1097 q 313 1065 351 1097 q 274 985 274 1032 m 457 531 q 464 557 457 542 q 485 575 471 572 l 660 575 q 683 558 675 575 q 690 531 690 542 l 690 236 q 677 216 686 228 q 660 204 668 204 l 488 204 q 464 217 469 204 q 457 236 458 229 l 457 531 m 260 779 q 186 762 221 779 q 126 716 151 744 q 85 652 100 688 q 69 581 69 617 l 69 171 q 86 107 69 138 q 128 53 103 76 q 186 15 154 29 q 250 0 218 0 l 897 0 q 961 15 929 0 q 1019 53 993 29 q 1062 107 1046 76 q 1078 171 1078 138 l 1078 581 q 1063 652 1078 617 q 1022 716 1047 688 q 961 762 996 744 q 888 779 926 779 l 260 779 z "},"":{"ha":608,"x_min":47,"x_max":625,"o":"m 539 293 l 399 153 l 304 247 l 210 151 l 69 292 l 164 388 l 69 482 l 211 622 l 304 528 l 399 621 l 539 481 l 446 388 l 539 293 m 561 481 l 399 643 l 304 550 l 211 644 l 47 482 l 142 388 l 47 292 l 210 129 l 213 132 l 279 65 l 371 158 l 399 131 l 401 133 l 468 67 l 625 224 l 558 290 l 561 293 l 533 319 l 625 411 l 558 478 l 561 481 z "},"":{"ha":1147,"x_min":53,"x_max":1160,"o":"m 888 796 q 984 768 940 796 q 1056 699 1028 740 l 1093 661 q 1142 591 1124 631 q 1160 511 1160 551 l 1160 101 q 1142 33 1160 65 q 1097 -26 1125 0 q 1035 -67 1069 -51 q 967 -82 1000 -82 l 319 -82 q 247 -64 283 -82 q 182 -18 210 -46 l 143 19 q 78 87 104 47 q 53 171 53 126 l 53 581 q 69 658 53 619 q 113 726 85 696 q 179 776 142 757 q 260 796 217 796 l 888 796 m 457 411 l 457 531 q 464 557 457 542 q 485 575 471 572 l 622 575 l 457 411 m 690 236 q 677 216 686 228 q 660 204 668 204 l 518 204 l 690 367 l 690 236 m 260 779 q 186 762 221 779 q 126 716 151 744 q 85 652 100 688 q 69 581 69 617 l 69 171 q 86 107 69 138 q 128 53 103 76 q 186 15 154 29 q 250 0 218 0 l 897 0 q 961 15 929 0 q 1019 53 993 29 q 1062 107 1046 76 q 1078 171 1078 138 l 1078 581 q 1063 652 1078 617 q 1022 716 1047 688 q 961 762 996 744 q 888 779 926 779 l 260 779 z "},"":{"ha":1147,"x_min":53,"x_max":1160,"o":"m 458 236 q 467 216 463 228 q 488 204 472 204 l 690 204 l 690 779 l 1078 779 l 1078 0 l 250 0 q 186 15 218 0 q 128 54 154 31 q 86 108 103 78 q 69 171 69 139 l 69 779 l 458 779 l 458 236 m 658 1006 q 674 985 668 994 q 679 961 679 975 l 679 946 q 676 919 679 931 q 660 894 674 908 q 593 867 628 867 q 538 892 558 867 l 478 961 q 463 981 468 972 q 457 1006 457 990 q 464 1046 457 1026 q 488 1081 471 1065 q 517 1099 503 1096 q 550 1103 532 1103 q 604 1079 585 1103 l 658 1006 m 475 796 l 53 796 l 53 171 q 78 90 53 129 q 143 22 104 50 l 183 -18 q 247 -64 211 -46 q 319 -82 283 -82 l 1160 -82 l 1160 722 l 1094 788 l 1094 796 l 710 796 q 738 815 722 801 q 758 844 754 832 q 761 876 761 857 l 761 892 q 755 919 761 908 q 738 944 749 931 l 733 949 l 683 1017 q 678 1024 682 1019 l 628 1072 l 617 1089 q 550 1119 593 1119 q 515 1117 531 1119 q 483 1099 500 1114 l 483 1100 q 440 1006 440 1058 q 444 978 440 986 q 457 960 449 971 l 460 957 l 525 881 q 538 867 532 874 q 553 858 544 861 l 601 810 q 663 785 624 785 l 674 785 l 674 221 l 540 221 l 540 722 l 475 788 l 475 796 z "},"":{"ha":1147,"x_min":53,"x_max":1160,"o":"m 458 236 q 467 216 463 228 q 488 204 472 204 l 690 204 l 690 779 l 1078 779 l 1078 0 l 250 0 q 186 15 218 0 q 128 54 154 31 q 86 108 103 78 q 69 171 69 139 l 69 779 l 458 779 l 458 236 m 543 1079 q 597 1103 563 1103 q 630 1099 615 1103 q 660 1081 644 1096 q 683 1046 676 1065 q 690 1006 690 1026 q 685 981 690 990 q 669 961 679 972 l 610 892 q 554 867 589 867 q 488 894 519 867 q 471 919 474 908 q 468 946 468 931 l 468 961 q 474 985 468 975 q 489 1006 479 994 l 543 1079 m 475 796 l 53 796 l 53 171 q 78 90 53 129 q 143 22 104 50 l 183 -18 q 247 -64 211 -46 q 319 -82 283 -82 l 1160 -82 l 1160 722 l 1094 788 l 1094 796 l 674 796 l 674 221 l 540 221 l 540 722 l 475 788 l 475 796 m 451 961 l 451 946 q 455 913 451 926 q 476 882 458 900 q 497 865 486 871 l 549 815 q 624 785 583 785 q 689 814 664 785 l 749 883 l 747 883 l 757 893 q 768 910 764 903 q 772 936 772 918 q 740 1018 772 985 l 689 1068 q 678 1084 685 1076 q 664 1100 671 1092 l 664 1099 q 631 1117 646 1114 q 597 1119 617 1119 q 529 1089 553 1119 l 529 1086 l 483 1025 q 460 992 468 1006 q 451 961 451 978 z "},"":{"ha":1147,"x_min":53,"x_max":1160,"o":"m 458 236 q 467 216 463 228 q 488 204 472 204 l 690 204 l 690 779 l 1078 779 l 1078 0 l 250 0 q 186 15 218 0 q 128 54 154 31 q 86 108 103 78 q 69 171 69 139 l 69 779 l 458 779 l 458 236 m 451 1100 l 697 1100 l 872 869 l 638 869 l 574 958 l 510 869 l 275 869 l 451 1100 m 242 853 l 254 853 l 311 796 l 53 796 l 53 171 q 78 90 53 129 q 143 22 104 50 l 183 -18 q 247 -64 211 -46 q 319 -82 283 -82 l 1160 -82 l 1160 722 l 1094 788 l 1094 796 l 958 796 l 772 1043 l 722 1093 l 704 1117 l 444 1117 l 242 853 m 540 722 l 475 788 l 585 788 l 631 853 l 636 853 l 693 796 l 674 796 l 674 221 l 540 221 l 540 722 z "},"":{"ha":1147,"x_min":53,"x_max":1160,"o":"m 458 236 q 467 216 463 228 q 488 204 472 204 l 690 204 l 690 779 l 1078 779 l 1078 0 l 250 0 q 186 15 218 0 q 128 54 154 31 q 86 108 103 78 q 69 171 69 139 l 69 779 l 458 779 l 458 236 m 274 985 q 313 1065 274 1032 q 410 1097 351 1097 q 507 1065 468 1097 q 546 985 546 1032 q 506 903 546 936 q 410 871 467 871 q 313 903 353 871 q 274 985 274 936 m 874 985 q 834 903 874 936 q 738 871 794 871 q 641 903 681 871 q 601 985 601 936 q 640 1065 601 1032 q 738 1097 679 1097 q 835 1065 796 1097 q 874 985 874 1032 m 257 985 q 274 923 257 950 q 318 878 290 896 l 365 832 q 426 796 389 807 l 53 796 l 53 171 q 78 90 53 129 q 143 22 104 50 l 183 -18 q 247 -64 211 -46 q 319 -82 283 -82 l 1160 -82 l 1160 722 l 1094 788 l 1094 796 l 858 796 q 928 840 901 808 q 956 915 956 872 q 921 997 956 963 l 874 1043 q 819 1094 856 1075 q 738 1114 783 1114 q 635 1083 676 1114 q 586 1003 594 1051 l 546 1043 q 492 1094 528 1075 q 410 1114 456 1114 q 349 1104 376 1114 q 301 1076 321 1094 q 269 1035 281 1058 q 257 985 257 1011 m 540 722 l 475 788 l 475 789 l 479 789 q 576 818 536 789 q 625 894 617 847 l 646 878 l 693 832 q 754 796 717 807 l 674 796 l 674 221 l 540 221 l 540 722 z "},"":{"ha":1129,"x_min":53,"x_max":1142,"o":"m 526 1079 q 581 1103 546 1103 q 613 1099 599 1103 q 643 1081 628 1096 q 667 1046 660 1065 q 674 1006 674 1026 q 668 981 674 990 q 653 961 663 972 l 593 892 q 538 867 572 867 q 471 894 503 867 q 454 919 457 908 q 451 946 451 931 l 451 961 q 457 985 451 975 q 472 1006 463 994 l 526 1079 m 1060 200 q 1049 122 1060 158 q 1017 58 1038 85 q 967 15 996 31 q 901 0 938 0 l 76 0 l 76 204 l 619 204 q 658 217 647 207 q 669 256 669 228 l 669 288 l 250 288 q 186 303 218 288 q 128 342 154 318 q 86 396 103 365 q 69 458 69 426 l 69 779 l 458 779 l 458 519 q 467 499 463 513 q 488 486 472 486 l 643 486 q 659 497 651 486 q 669 517 667 508 l 669 779 l 1060 779 l 1060 200 m 1076 796 l 653 796 l 653 518 q 647 508 650 513 q 643 503 644 503 l 540 503 l 540 722 l 475 788 l 475 796 l 53 796 l 53 458 q 78 377 53 417 q 143 310 104 338 l 183 269 q 251 221 213 238 l 60 221 l 60 -17 l 68 -17 l 133 -82 l 971 -82 q 1041 -65 1010 -82 q 1094 -20 1072 -49 q 1129 47 1117 8 q 1142 131 1142 86 l 1142 722 l 1076 788 l 1076 796 m 435 961 l 435 946 q 438 913 435 926 q 460 882 442 900 q 481 865 469 871 l 532 815 q 607 785 567 785 q 672 814 647 785 l 732 883 l 731 883 l 740 893 q 751 910 747 903 q 756 936 756 918 q 724 1018 756 985 l 672 1068 q 661 1084 668 1076 q 647 1100 654 1092 l 647 1099 q 615 1117 629 1114 q 581 1119 600 1119 q 513 1089 536 1119 l 513 1086 l 467 1025 q 443 992 451 1006 q 435 961 435 978 z "},"":{"ha":1147,"x_min":53,"x_max":1160,"o":"m 674 431 q 674 431 674 431 q 672 432 674 432 l 653 453 l 674 431 m 540 333 l 640 333 q 667 351 657 333 q 681 388 678 369 l 540 388 l 540 333 m 53 796 l 475 796 l 475 788 l 540 722 l 540 690 l 868 690 q 967 665 926 690 q 1035 600 1008 639 l 1071 564 l 1067 568 l 1075 561 q 1114 509 1097 538 q 1140 449 1131 481 q 1155 388 1150 418 q 1160 333 1160 358 q 1148 225 1160 279 q 1110 128 1136 171 q 1042 58 1085 85 q 939 31 1000 31 l 540 31 l 540 -82 l 126 -82 l 61 -17 l 53 -17 l 53 796 m 649 469 q 671 461 661 469 q 686 441 681 453 q 694 417 692 429 q 697 394 697 404 q 693 369 697 383 q 682 344 689 356 q 665 324 675 332 q 640 317 654 317 l 458 317 l 458 469 l 649 469 m 69 0 l 458 0 l 458 113 l 869 113 q 967 138 928 113 q 1031 205 1007 164 q 1067 298 1056 246 q 1078 403 1078 350 q 1067 488 1078 440 q 1032 576 1057 535 q 967 645 1007 617 q 868 674 926 674 l 458 674 l 458 779 l 69 779 l 69 0 z "},"":{"ha":1063,"x_min":53,"x_max":1075,"o":"m 540 221 l 564 221 l 569 221 l 540 251 l 540 221 m 61 -208 l 53 -208 l 53 796 l 782 796 q 885 767 842 796 q 958 697 929 739 l 990 667 l 996 661 q 1054 571 1035 622 q 1074 474 1074 519 q 1062 394 1074 435 q 1024 325 1050 353 q 1064 252 1053 293 q 1075 167 1075 211 q 1064 81 1075 125 q 1026 1 1053 38 q 958 -58 1000 -35 q 853 -82 915 -82 l 581 -82 l 540 -42 l 540 -274 l 126 -274 l 61 -208 m 524 486 l 524 293 l 563 293 q 602 283 592 293 q 613 251 613 274 q 601 218 613 232 q 564 204 590 204 l 524 204 l 524 0 l 783 0 q 882 22 842 0 q 947 79 922 44 q 983 156 972 114 q 993 236 993 197 q 981 324 993 281 q 936 396 969 367 q 979 462 967 419 q 992 543 992 504 q 978 622 992 581 q 938 699 964 664 q 872 756 911 733 q 782 779 833 779 l 69 779 l 69 -192 l 458 -192 l 458 575 l 563 575 q 600 561 589 575 q 611 528 611 547 q 601 495 611 504 q 561 486 590 486 l 524 486 z "},"":{"ha":1339,"x_min":18,"x_max":1351,"o":"m 963 1072 l 1013 1024 q 1018 1017 1017 1019 l 1068 949 l 1072 944 q 1090 919 1083 931 q 1096 892 1096 908 l 1096 876 q 1092 844 1096 857 q 1072 815 1089 832 q 1044 796 1057 801 l 1286 796 l 1286 788 l 1351 722 l 1351 -82 l 939 -82 l 874 -17 l 865 -17 l 865 301 l 582 -83 l 96 -83 l 31 -18 l 18 -18 l 579 713 q 598 735 585 721 q 628 763 611 749 q 663 786 644 776 q 697 796 681 796 l 953 796 q 936 810 944 800 l 888 858 q 873 867 879 861 q 860 881 867 874 l 794 957 l 792 960 q 779 978 783 971 q 775 1006 775 986 q 818 1100 775 1058 l 818 1099 q 850 1117 835 1114 q 885 1119 865 1119 q 951 1089 928 1119 l 963 1072 m 939 1079 q 885 1103 919 1103 q 852 1099 867 1103 q 822 1081 838 1096 q 799 1046 806 1065 q 792 1006 792 1026 q 797 981 792 990 q 813 961 803 972 l 872 892 q 928 867 893 867 q 994 894 963 867 q 1011 919 1008 908 q 1014 946 1014 931 l 1014 961 q 1008 985 1014 975 q 993 1006 1003 994 l 939 1079 m 507 -1 l 849 463 q 856 472 853 469 q 865 475 858 475 q 876 469 869 472 q 882 465 882 467 l 882 0 l 1269 0 l 1269 779 l 697 779 q 667 770 683 779 q 635 749 650 761 q 609 724 621 736 q 592 703 597 711 l 51 -1 l 507 -1 z "},"":{"ha":1339,"x_min":18,"x_max":1351,"o":"m 815 961 q 824 992 815 978 q 847 1025 832 1006 l 894 1089 q 961 1119 917 1119 q 995 1117 981 1119 q 1028 1099 1010 1114 l 1028 1100 q 1042 1084 1035 1092 q 1053 1068 1049 1076 l 1104 1018 q 1136 936 1136 985 q 1132 910 1136 918 q 1121 893 1128 903 l 1111 883 l 1113 883 l 1053 814 q 1042 803 1047 808 q 1032 796 1038 799 l 1286 796 l 1286 788 l 1351 722 l 1351 -82 l 939 -82 l 874 -17 l 865 -17 l 865 301 l 582 -83 l 96 -83 l 31 -18 l 18 -18 l 579 713 q 598 735 585 721 q 628 763 611 749 q 663 786 644 776 q 697 796 681 796 l 939 796 q 913 815 926 801 l 861 865 q 840 882 850 871 q 819 913 822 900 q 815 946 815 926 l 815 961 m 853 1006 q 838 985 843 994 q 832 961 832 975 l 832 946 q 835 919 832 931 q 851 894 838 908 q 918 867 883 867 q 974 892 953 867 l 1033 961 q 1049 981 1043 972 q 1054 1006 1054 990 q 1047 1046 1054 1026 q 1024 1081 1040 1065 q 994 1099 1008 1096 q 961 1103 979 1103 q 907 1079 926 1103 l 853 1006 m 507 -1 l 849 463 q 856 472 853 469 q 865 475 858 475 q 876 469 869 472 q 882 465 882 467 l 882 0 l 1269 0 l 1269 779 l 697 779 q 667 770 683 779 q 635 749 650 761 q 609 724 621 736 q 592 703 597 711 l 51 -1 l 507 -1 z "},"":{"ha":1339,"x_min":18,"x_max":1351,"o":"m 944 796 l 1047 796 l 990 853 l 985 853 l 944 796 m 31 -18 l 18 -18 l 579 713 q 593 730 583 719 q 615 752 603 740 q 642 774 628 764 q 671 790 656 783 l 608 853 l 596 853 l 799 1117 l 1058 1117 l 1076 1093 l 1126 1043 l 1321 788 l 1286 788 l 1351 722 l 1351 -82 l 939 -82 l 874 -17 l 865 -17 l 865 301 l 582 -83 l 96 -83 l 31 -18 m 928 958 l 992 869 l 1226 869 l 1051 1100 l 806 1100 l 629 869 l 864 869 l 928 958 m 507 -1 l 849 463 q 856 472 853 469 q 865 475 858 475 q 876 469 869 472 q 882 465 882 467 l 882 0 l 1269 0 l 1269 779 l 697 779 q 667 770 683 779 q 635 749 650 761 q 609 724 621 736 q 592 703 597 711 l 51 -1 l 507 -1 z "},"":{"ha":1339,"x_min":18,"x_max":1351,"o":"m 1057 869 l 903 869 l 838 957 l 775 869 l 540 869 l 717 1100 l 871 1100 l 936 1013 l 999 1100 l 1233 1100 l 1057 869 m 592 703 q 609 724 597 711 q 635 749 621 736 q 667 770 650 761 q 697 779 683 779 l 1269 779 l 1269 0 l 882 0 l 882 465 q 876 469 882 467 q 865 475 869 472 q 856 472 858 475 q 849 463 853 469 l 507 -1 l 51 -1 l 592 703 m 1267 1117 l 992 1117 l 942 1047 l 894 1094 l 878 1117 l 710 1117 l 507 853 l 519 853 l 585 788 l 665 788 q 613 749 638 774 q 579 713 588 725 l 18 -18 l 31 -18 l 96 -83 l 582 -83 l 865 301 l 865 -17 l 874 -17 l 939 -82 l 1351 -82 l 1351 722 l 1286 788 l 1286 796 l 1138 796 l 1328 1043 l 1261 1110 l 1267 1117 m 896 853 l 901 853 l 958 796 l 856 796 l 896 853 z "},"":{"ha":1339,"x_min":18,"x_max":1351,"o":"m 1019 878 l 999 894 q 966 833 992 858 q 903 796 940 807 l 1128 796 q 1067 832 1090 807 l 1019 878 m 631 985 q 642 1035 631 1011 q 674 1076 654 1058 q 722 1104 694 1094 q 783 1114 750 1114 q 865 1094 829 1114 q 919 1043 901 1075 l 960 1003 q 1009 1083 968 1051 q 1111 1114 1050 1114 q 1193 1094 1157 1114 q 1247 1043 1229 1075 l 1294 997 q 1329 915 1329 963 q 1302 840 1329 872 q 1232 796 1275 808 l 1286 796 l 1286 788 l 1351 722 l 1351 -82 l 939 -82 l 874 -17 l 865 -17 l 865 301 l 582 -83 l 96 -83 l 31 -18 l 18 -18 l 579 713 q 598 735 585 721 q 628 763 611 749 q 663 786 644 776 q 697 796 681 796 l 800 796 q 739 832 763 807 l 692 878 q 647 923 664 896 q 631 985 631 950 m 1247 985 q 1208 1065 1247 1032 q 1111 1097 1169 1097 q 1014 1065 1053 1097 q 975 985 975 1032 q 1015 903 975 936 q 1111 871 1054 871 q 1208 903 1168 871 q 1247 985 1247 936 m 647 985 q 687 903 647 936 q 783 871 726 871 q 880 903 840 871 q 919 985 919 936 q 881 1065 919 1032 q 783 1097 842 1097 q 686 1065 725 1097 q 647 985 647 1032 m 507 -1 l 849 463 q 856 472 853 469 q 865 475 858 475 q 876 469 869 472 q 882 465 882 467 l 882 0 l 1269 0 l 1269 779 l 697 779 q 667 770 683 779 q 635 749 650 761 q 609 724 621 736 q 592 703 597 711 l 51 -1 l 507 -1 z "},"":{"ha":1339,"x_min":18,"x_max":1351,"o":"m 885 985 q 899 963 885 972 q 932 954 913 954 q 965 963 951 954 q 979 985 979 972 q 965 1006 979 997 q 932 1014 951 1014 q 899 1006 913 1014 q 885 985 885 997 m 797 985 q 836 1065 797 1032 q 933 1097 875 1097 q 1031 1065 992 1097 q 1069 985 1069 1032 q 1030 903 1069 936 q 933 871 990 871 q 837 903 876 871 q 797 985 797 936 m 592 703 q 609 724 597 711 q 635 749 621 736 q 667 770 650 761 q 697 779 683 779 l 1269 779 l 1269 0 l 882 0 l 882 465 q 876 469 882 467 q 865 475 869 472 q 856 472 858 475 q 849 463 853 469 l 507 -1 l 51 -1 l 592 703 m 781 985 q 797 923 781 950 q 842 878 814 896 l 889 832 q 950 796 913 807 l 697 796 q 663 786 681 796 q 628 763 644 776 q 598 735 611 749 q 579 713 585 721 l 18 -18 l 31 -18 l 96 -83 l 582 -83 l 865 301 l 865 -17 l 874 -17 l 939 -82 l 1351 -82 l 1351 722 l 1286 788 l 1286 796 l 1054 796 q 1124 840 1097 808 q 1151 915 1151 872 q 1117 997 1151 963 l 1069 1043 q 1015 1094 1051 1075 q 933 1114 979 1114 q 872 1104 900 1114 q 824 1076 844 1094 q 792 1035 804 1058 q 781 985 781 1011 z "},"":{"ha":1849,"x_min":18,"x_max":1861,"o":"m 1368 153 q 1372 149 1369 149 l 1368 153 m 31 -18 l 18 -18 l 579 713 q 598 735 585 721 q 628 763 611 749 q 663 786 644 776 q 697 796 681 796 l 1796 796 l 1796 788 l 1861 722 l 1861 493 l 1799 493 l 1861 431 l 1861 207 l 1801 207 l 1861 147 l 1861 -82 l 939 -82 l 874 -17 l 865 -17 l 865 301 l 582 -83 l 96 -83 l 31 -18 m 507 -1 l 849 463 q 856 472 853 469 q 865 475 858 475 q 876 469 869 472 q 882 465 882 467 l 882 0 l 1779 0 l 1779 204 l 1304 204 q 1290 216 1301 204 q 1275 236 1279 228 q 1274 240 1275 238 q 1274 246 1274 243 q 1274 251 1274 249 q 1275 256 1275 254 q 1290 276 1279 264 q 1304 289 1301 289 l 1779 289 l 1779 488 l 1314 488 q 1285 501 1296 488 q 1274 531 1274 515 q 1282 558 1274 542 q 1304 575 1290 575 l 1779 575 l 1779 779 l 697 779 q 667 770 683 779 q 635 749 650 761 q 609 724 621 736 q 592 703 597 711 l 51 -1 l 507 -1 z "},"":{"ha":1032,"x_min":53,"x_max":1044,"o":"m 540 221 l 971 221 l 971 213 l 1036 147 l 1036 -82 l 763 -82 l 763 -300 l 438 -300 l 372 -235 l 364 -235 l 364 -82 l 319 -82 q 247 -64 283 -82 q 182 -18 210 -46 l 143 19 q 78 87 104 47 q 53 171 53 126 l 53 581 q 69 658 53 619 q 113 726 85 696 q 179 776 142 757 q 260 796 217 796 l 979 796 l 979 788 l 1044 722 l 1044 493 l 557 493 q 545 483 550 493 q 540 464 540 472 l 540 221 m 681 0 l 954 0 l 954 204 l 488 204 q 468 213 476 204 q 458 236 460 222 l 458 533 q 466 560 458 544 q 488 575 474 575 l 963 575 l 963 779 l 260 779 q 186 762 221 779 q 126 716 151 744 q 85 652 100 688 q 69 581 69 617 l 69 171 q 86 107 69 138 q 128 53 103 76 q 186 15 154 29 q 250 0 218 0 l 496 0 l 496 -58 l 381 -58 l 381 -218 l 681 -218 l 681 0 z "},"":{"ha":1032,"x_min":53,"x_max":1044,"o":"m 551 153 q 556 149 553 149 l 551 153 m 558 796 q 542 810 550 800 l 493 858 q 478 867 485 861 q 465 881 472 874 l 400 957 l 397 960 q 385 978 389 971 q 381 1006 381 986 q 424 1100 381 1058 l 424 1099 q 456 1117 440 1114 q 490 1119 471 1119 q 557 1089 533 1119 l 568 1072 l 618 1024 q 624 1017 622 1019 l 674 949 l 678 944 q 695 919 689 931 q 701 892 701 908 l 701 876 q 698 844 701 857 q 678 815 694 832 q 650 796 663 801 l 979 796 l 979 788 l 1044 722 l 1044 493 l 982 493 l 1044 431 l 1044 207 l 985 207 l 1044 147 l 1044 -82 l 319 -82 q 247 -64 283 -82 q 182 -18 210 -46 l 143 19 q 78 87 104 47 q 53 171 53 126 l 53 581 q 69 658 53 619 q 113 726 85 696 q 179 776 142 757 q 260 796 217 796 l 558 796 m 544 1079 q 490 1103 525 1103 q 458 1099 472 1103 q 428 1081 443 1096 q 404 1046 411 1065 q 397 1006 397 1026 q 403 981 397 990 q 418 961 408 972 l 478 892 q 533 867 499 867 q 600 894 568 867 q 617 919 614 908 q 619 946 619 931 l 619 961 q 614 985 619 975 q 599 1006 608 994 l 544 1079 m 260 779 q 186 762 221 779 q 126 716 151 744 q 85 652 100 688 q 69 581 69 617 l 69 171 q 86 107 69 138 q 128 53 103 76 q 186 15 154 29 q 250 0 218 0 l 963 0 l 963 204 l 488 204 q 474 216 485 204 q 458 236 463 228 q 458 240 458 238 q 457 246 457 243 q 458 251 457 249 q 458 256 458 254 q 474 276 463 264 q 488 289 485 289 l 963 289 l 963 488 l 497 488 q 468 501 479 488 q 457 531 457 515 q 465 558 457 542 q 488 575 474 575 l 963 575 l 963 779 l 260 779 z "},"":{"ha":1032,"x_min":53,"x_max":1044,"o":"m 551 153 q 556 149 553 149 l 551 153 m 564 796 q 538 815 551 801 l 486 865 q 465 882 475 871 q 444 913 447 900 q 440 946 440 926 l 440 961 q 449 992 440 978 q 472 1025 457 1006 l 519 1089 q 586 1119 542 1119 q 620 1117 606 1119 q 653 1099 635 1114 l 653 1100 q 667 1084 660 1092 q 678 1068 674 1076 l 729 1018 q 761 936 761 985 q 757 910 761 918 q 746 893 753 903 l 736 883 l 738 883 l 678 814 q 667 803 672 808 q 657 796 663 799 l 979 796 l 979 788 l 1044 722 l 1044 493 l 982 493 l 1044 431 l 1044 207 l 985 207 l 1044 147 l 1044 -82 l 319 -82 q 247 -64 283 -82 q 182 -18 210 -46 l 143 19 q 78 87 104 47 q 53 171 53 126 l 53 581 q 69 658 53 619 q 113 726 85 696 q 179 776 142 757 q 260 796 217 796 l 564 796 m 478 1006 q 463 985 468 994 q 457 961 457 975 l 457 946 q 460 919 457 931 q 476 894 463 908 q 543 867 508 867 q 599 892 578 867 l 658 961 q 674 981 668 972 q 679 1006 679 990 q 672 1046 679 1026 q 649 1081 665 1065 q 619 1099 633 1096 q 586 1103 604 1103 q 532 1079 551 1103 l 478 1006 m 260 779 q 186 762 221 779 q 126 716 151 744 q 85 652 100 688 q 69 581 69 617 l 69 171 q 86 107 69 138 q 128 53 103 76 q 186 15 154 29 q 250 0 218 0 l 963 0 l 963 204 l 488 204 q 474 216 485 204 q 458 236 463 228 q 458 240 458 238 q 457 246 457 243 q 458 251 457 249 q 458 256 458 254 q 474 276 463 264 q 488 289 485 289 l 963 289 l 963 488 l 497 488 q 468 501 479 488 q 457 531 457 515 q 465 558 457 542 q 488 575 474 575 l 963 575 l 963 779 l 260 779 z "},"":{"ha":1032,"x_min":53,"x_max":1044,"o":"m 551 153 q 556 149 553 149 l 551 153 m 538 796 l 640 796 l 583 853 l 578 853 l 538 796 m 143 19 q 78 87 104 47 q 53 171 53 126 l 53 581 q 69 656 53 618 q 113 726 85 694 q 178 776 140 757 q 258 796 215 796 l 201 853 l 189 853 l 392 1117 l 651 1117 l 669 1093 l 719 1043 l 906 796 l 979 796 l 979 788 l 1044 722 l 1044 493 l 982 493 l 1044 431 l 1044 207 l 985 207 l 1044 147 l 1044 -82 l 319 -82 q 247 -64 283 -82 q 182 -18 210 -46 l 143 19 m 521 958 l 585 869 l 819 869 l 644 1100 l 399 1100 l 222 869 l 457 869 l 521 958 m 260 779 q 186 762 221 779 q 126 716 151 744 q 85 652 100 688 q 69 581 69 617 l 69 171 q 86 107 69 138 q 128 53 103 76 q 186 15 154 29 q 250 0 218 0 l 963 0 l 963 204 l 488 204 q 474 216 485 204 q 458 236 463 228 q 458 240 458 238 q 457 246 457 243 q 458 251 457 249 q 458 256 458 254 q 474 276 463 264 q 488 289 485 289 l 963 289 l 963 488 l 497 488 q 468 501 479 488 q 457 531 457 515 q 465 558 457 542 q 488 575 474 575 l 963 575 l 963 779 l 260 779 z "},"":{"ha":1032,"x_min":53,"x_max":1044,"o":"m 593 878 l 572 894 q 540 833 565 858 q 476 796 514 807 l 701 796 q 640 832 664 807 l 593 878 m 374 796 q 313 832 336 807 l 265 878 q 221 923 238 896 q 204 985 204 950 q 216 1035 204 1011 q 248 1076 228 1058 q 296 1104 268 1094 q 357 1114 324 1114 q 439 1094 403 1114 q 493 1043 475 1075 l 533 1003 q 583 1083 542 1051 q 685 1114 624 1114 q 767 1094 731 1114 q 821 1043 803 1075 l 868 997 q 903 915 903 963 q 876 840 903 872 q 806 796 849 808 l 979 796 l 979 788 l 1044 722 l 1044 493 l 982 493 l 1044 431 l 1044 207 l 985 207 l 1044 147 l 1044 -82 l 319 -82 q 247 -64 283 -82 q 182 -18 210 -46 l 143 19 q 78 87 104 47 q 53 171 53 126 l 53 581 q 69 658 53 619 q 113 726 85 696 q 179 776 142 757 q 260 796 217 796 l 374 796 m 821 985 q 782 1065 821 1032 q 685 1097 743 1097 q 588 1065 626 1097 q 549 985 549 1032 q 588 903 549 936 q 685 871 628 871 q 781 903 742 871 q 821 985 821 936 m 221 985 q 260 903 221 936 q 357 871 300 871 q 453 903 414 871 q 493 985 493 936 q 454 1065 493 1032 q 357 1097 415 1097 q 260 1065 299 1097 q 221 985 221 1032 m 260 779 q 186 762 221 779 q 126 716 151 744 q 85 652 100 688 q 69 581 69 617 l 69 171 q 86 107 69 138 q 128 53 103 76 q 186 15 154 29 q 250 0 218 0 l 963 0 l 963 204 l 488 204 q 474 216 485 204 q 458 236 463 228 q 458 240 458 238 q 457 246 457 243 q 458 251 457 249 q 458 256 458 254 q 474 276 463 264 q 488 289 485 289 l 963 289 l 963 488 l 497 488 q 468 501 479 488 q 457 531 457 515 q 465 558 457 542 q 488 575 474 575 l 963 575 l 963 779 l 260 779 z "},"":{"ha":528,"x_min":53,"x_max":540,"o":"m 319 1072 l 369 1024 q 375 1017 374 1019 l 425 949 l 429 944 q 447 919 440 931 q 453 892 453 908 l 453 876 q 449 844 453 857 q 429 815 446 832 q 401 796 414 801 l 475 796 l 475 788 l 540 722 l 540 -82 l 126 -82 l 61 -17 l 53 -17 l 53 796 l 310 796 q 293 810 301 800 l 244 858 q 230 867 236 861 q 217 881 224 874 l 151 957 l 149 960 q 136 978 140 971 q 132 1006 132 986 q 175 1100 132 1058 l 175 1099 q 207 1117 192 1114 q 242 1119 222 1119 q 308 1089 285 1119 l 319 1072 m 69 0 l 458 0 l 458 779 l 69 779 l 69 0 m 296 1079 q 242 1103 276 1103 q 209 1099 224 1103 q 179 1081 194 1096 q 156 1046 163 1065 q 149 1006 149 1026 q 154 981 149 990 q 169 961 160 972 l 229 892 q 285 867 250 867 q 351 894 319 867 q 368 919 365 908 q 371 946 371 931 l 371 961 q 365 985 371 975 q 350 1006 360 994 l 296 1079 z "},"":{"ha":528,"x_min":53,"x_max":540,"o":"m 53 796 l 264 796 q 238 815 251 801 l 188 865 q 165 882 176 871 q 144 913 147 900 q 140 946 140 926 l 140 961 q 149 992 140 978 q 172 1025 157 1006 l 219 1089 q 286 1119 242 1119 q 320 1117 306 1119 q 353 1099 335 1114 l 353 1100 q 367 1084 360 1092 q 378 1068 374 1076 l 429 1018 q 461 936 461 985 q 457 910 461 918 q 446 893 453 903 l 436 883 l 438 883 l 378 814 q 367 803 372 808 q 357 796 363 799 l 475 796 l 475 788 l 540 722 l 540 -82 l 126 -82 l 61 -17 l 53 -17 l 53 796 m 178 1006 q 163 985 168 994 q 157 961 157 975 l 157 946 q 160 919 157 931 q 176 894 163 908 q 243 867 208 867 q 299 892 278 867 l 358 961 q 374 981 368 972 q 379 1006 379 990 q 372 1046 379 1026 q 349 1081 365 1065 q 319 1099 333 1096 q 286 1103 304 1103 q 232 1079 251 1103 l 178 1006 m 69 0 l 458 0 l 458 779 l 69 779 l 69 0 z "},"":{"ha":528,"x_min":-71,"x_max":654,"o":"m 278 796 l 381 796 l 324 853 l 318 853 l 278 796 m 53 788 l 7 788 l -58 853 l -71 853 l 132 1117 l 392 1117 l 410 1093 l 460 1043 l 654 788 l 475 788 l 540 722 l 540 -82 l 126 -82 l 61 -17 l 53 -17 l 53 788 m 261 958 l 325 869 l 560 869 l 385 1100 l 139 1100 l -37 869 l 197 869 l 261 958 m 69 0 l 458 0 l 458 779 l 69 779 l 69 0 z "},"":{"ha":528,"x_min":-51,"x_max":647,"o":"m 254 981 l 281 953 q 279 954 281 954 q 279 954 279 954 l 254 981 m 338 878 l 317 894 q 284 833 310 858 q 221 796 258 807 l 446 796 q 385 832 408 807 l 338 878 m 53 796 l 118 796 q 57 832 81 807 l 11 878 q -34 923 -17 896 q -51 985 -51 950 q -40 1035 -51 1011 q -8 1076 -28 1058 q 40 1104 13 1094 q 101 1114 68 1114 q 183 1094 147 1114 q 238 1043 219 1075 l 278 1003 q 327 1083 286 1051 q 429 1114 368 1114 q 511 1094 475 1114 q 565 1043 547 1075 l 613 997 q 647 915 647 963 q 604 825 647 861 q 499 789 561 789 l 475 789 l 475 786 l 540 722 l 540 -82 l 126 -82 l 61 -17 l 53 -17 l 53 796 m 565 985 q 526 1065 565 1032 q 429 1097 488 1097 q 332 1065 371 1097 q 293 985 293 1032 q 333 903 293 936 q 429 871 372 871 q 526 903 486 871 q 565 985 565 936 m -35 985 q 5 903 -35 936 q 101 871 44 871 q 198 903 158 871 q 238 985 238 936 q 199 1065 238 1032 q 101 1097 160 1097 q 4 1065 43 1097 q -35 985 -35 1032 m 69 0 l 458 0 l 458 779 l 69 779 l 69 0 z "},"":{"ha":1147,"x_min":53,"x_max":1160,"o":"m 69 351 q 87 408 69 381 q 131 455 104 435 q 190 487 158 475 q 250 499 222 499 l 689 499 l 689 531 l 692 531 l 689 533 q 681 560 689 544 q 660 575 674 575 l 74 575 l 74 779 l 888 779 q 960 762 926 779 q 1021 716 994 744 q 1063 652 1047 688 q 1078 581 1078 617 l 1078 171 q 1061 108 1078 139 q 1019 54 1044 78 q 960 15 993 31 q 897 0 928 0 l 250 0 q 186 15 218 0 q 128 53 154 29 q 85 107 101 76 q 69 171 69 138 l 69 351 m 660 204 q 680 216 675 204 q 689 236 685 228 l 689 293 l 457 293 l 457 236 q 469 216 461 228 q 488 204 476 204 l 660 204 m 53 351 l 53 171 q 78 88 53 126 q 140 21 103 49 l 182 -19 q 247 -65 210 -47 q 319 -82 283 -82 l 967 -82 q 1034 -66 1000 -82 q 1097 -24 1068 -50 q 1142 35 1125 3 q 1160 101 1160 68 l 1160 511 q 1142 591 1160 551 q 1093 661 1124 631 l 1056 699 q 983 768 1026 740 q 888 796 939 796 l 57 796 l 57 558 l 65 558 l 131 493 l 163 493 q 85 433 118 471 q 53 351 53 396 z "},"":{"ha":1372,"x_min":53,"x_max":1385,"o":"m 874 869 l 719 869 l 654 957 l 592 869 l 357 869 l 533 1100 l 688 1100 l 753 1013 l 815 1100 l 1050 1100 l 874 869 m 1303 0 l 831 0 q 770 14 799 0 q 717 49 742 28 q 673 95 693 69 q 636 144 653 121 l 458 388 l 458 0 l 69 0 l 69 779 l 576 779 q 624 764 599 779 q 674 727 650 749 q 717 681 697 706 q 747 639 736 657 l 913 382 l 913 779 l 1303 779 l 1303 0 m 1319 796 l 954 796 l 1144 1043 l 1078 1110 l 1083 1117 l 808 1117 l 758 1047 l 711 1094 l 694 1117 l 526 1117 l 324 853 l 336 853 l 393 796 l 53 796 l 53 -17 l 61 -17 l 126 -82 l 540 -82 l 540 249 l 624 135 q 669 74 643 106 q 726 19 694 43 l 763 -15 q 825 -62 790 -43 q 900 -82 860 -82 l 1385 -82 l 1385 722 l 1319 788 l 1319 796 m 667 788 l 713 853 l 718 853 l 783 788 l 896 788 l 896 469 l 828 576 q 801 613 818 592 q 764 654 785 635 l 749 669 q 722 702 738 685 q 688 736 706 719 q 651 766 671 753 q 613 788 632 779 l 667 788 z "},"":{"ha":1147,"x_min":53,"x_max":1160,"o":"m 539 221 l 660 221 q 667 228 663 221 q 674 242 671 235 l 674 493 l 557 493 q 544 480 549 490 q 539 461 539 469 l 539 221 m 618 796 q 601 810 610 800 l 553 858 q 538 867 544 861 q 525 881 532 874 l 460 957 l 457 960 q 444 978 449 971 q 440 1006 440 986 q 483 1100 440 1058 l 483 1099 q 515 1117 500 1114 q 550 1119 531 1119 q 617 1089 593 1119 l 628 1072 l 678 1024 q 683 1017 682 1019 l 733 949 l 738 944 q 755 919 749 931 q 761 892 761 908 l 761 876 q 758 844 761 857 q 738 815 754 832 q 710 796 722 801 l 888 796 q 984 768 940 796 q 1056 699 1028 740 l 1093 661 q 1142 591 1124 631 q 1160 511 1160 551 l 1160 101 q 1142 33 1160 65 q 1097 -26 1125 0 q 1035 -67 1069 -51 q 967 -82 1000 -82 l 319 -82 q 247 -64 283 -82 q 182 -18 210 -46 l 143 19 q 78 87 104 47 q 53 171 53 126 l 53 581 q 69 658 53 619 q 113 726 85 696 q 179 776 142 757 q 260 796 217 796 l 618 796 m 604 1079 q 550 1103 585 1103 q 517 1099 532 1103 q 488 1081 503 1096 q 464 1046 471 1065 q 457 1006 457 1026 q 463 981 457 990 q 478 961 468 972 l 538 892 q 593 867 558 867 q 660 894 628 867 q 676 919 674 908 q 679 946 679 931 l 679 961 q 674 985 679 975 q 658 1006 668 994 l 604 1079 m 457 531 q 464 557 457 542 q 485 575 471 572 l 660 575 q 683 558 675 575 q 690 531 690 542 l 690 236 q 677 216 686 228 q 660 204 668 204 l 488 204 q 464 217 469 204 q 457 236 458 229 l 457 531 m 260 779 q 186 762 221 779 q 126 716 151 744 q 85 652 100 688 q 69 581 69 617 l 69 171 q 86 107 69 138 q 128 53 103 76 q 186 15 154 29 q 250 0 218 0 l 897 0 q 961 15 929 0 q 1019 53 993 29 q 1062 107 1046 76 q 1078 171 1078 138 l 1078 581 q 1063 652 1078 617 q 1022 716 1047 688 q 961 762 996 744 q 888 779 926 779 l 260 779 z "},"":{"ha":1147,"x_min":53,"x_max":1160,"o":"m 539 221 l 660 221 q 667 228 663 221 q 674 242 671 235 l 674 493 l 557 493 q 544 480 549 490 q 539 461 539 469 l 539 221 m 575 796 q 549 815 563 801 l 497 865 q 476 882 486 871 q 455 913 458 900 q 451 946 451 926 l 451 961 q 460 992 451 978 q 483 1025 468 1006 l 531 1089 q 597 1119 553 1119 q 631 1117 617 1119 q 664 1099 646 1114 l 664 1100 q 678 1084 671 1092 q 689 1068 685 1076 l 740 1018 q 772 936 772 985 q 768 910 772 918 q 757 893 764 903 l 747 883 l 749 883 l 689 814 q 678 803 683 808 q 668 796 674 799 l 888 796 q 984 768 940 796 q 1056 699 1028 740 l 1093 661 q 1142 591 1124 631 q 1160 511 1160 551 l 1160 101 q 1142 33 1160 65 q 1097 -26 1125 0 q 1035 -67 1069 -51 q 967 -82 1000 -82 l 319 -82 q 247 -64 283 -82 q 182 -18 210 -46 l 143 19 q 78 87 104 47 q 53 171 53 126 l 53 581 q 69 658 53 619 q 113 726 85 696 q 179 776 142 757 q 260 796 217 796 l 575 796 m 489 1006 q 474 985 479 994 q 468 961 468 975 l 468 946 q 471 919 468 931 q 488 894 474 908 q 554 867 519 867 q 610 892 589 867 l 669 961 q 685 981 679 972 q 690 1006 690 990 q 683 1046 690 1026 q 660 1081 676 1065 q 630 1099 644 1096 q 597 1103 615 1103 q 543 1079 563 1103 l 489 1006 m 457 531 q 464 557 457 542 q 485 575 471 572 l 660 575 q 683 558 675 575 q 690 531 690 542 l 690 236 q 677 216 686 228 q 660 204 668 204 l 488 204 q 464 217 469 204 q 457 236 458 229 l 457 531 m 260 779 q 186 762 221 779 q 126 716 151 744 q 85 652 100 688 q 69 581 69 617 l 69 171 q 86 107 69 138 q 128 53 103 76 q 186 15 154 29 q 250 0 218 0 l 897 0 q 961 15 929 0 q 1019 53 993 29 q 1062 107 1046 76 q 1078 171 1078 138 l 1078 581 q 1063 652 1078 617 q 1022 716 1047 688 q 961 762 996 744 q 888 779 926 779 l 260 779 z "},"":{"ha":1147,"x_min":53,"x_max":1160,"o":"m 590 796 l 693 796 l 636 853 l 631 853 l 590 796 m 539 221 l 660 221 q 667 228 663 221 q 674 242 671 235 l 674 493 l 557 493 q 544 480 549 490 q 539 461 539 469 l 539 221 m 311 796 l 254 853 l 242 853 l 444 1117 l 704 1117 l 722 1093 l 772 1043 l 967 788 l 940 788 q 1006 753 976 776 q 1056 699 1035 729 l 1093 661 q 1142 591 1124 631 q 1160 511 1160 551 l 1160 101 q 1142 33 1160 65 q 1097 -26 1125 0 q 1035 -67 1069 -51 q 967 -82 1000 -82 l 319 -82 q 247 -64 283 -82 q 182 -18 210 -46 l 143 19 q 78 87 104 47 q 53 171 53 126 l 53 581 q 69 658 53 619 q 113 726 85 696 q 179 776 142 757 q 260 796 217 796 l 311 796 m 574 958 l 638 869 l 872 869 l 697 1100 l 451 1100 l 275 869 l 510 869 l 574 958 m 457 531 q 464 557 457 542 q 485 575 471 572 l 660 575 q 683 558 675 575 q 690 531 690 542 l 690 236 q 677 216 686 228 q 660 204 668 204 l 488 204 q 464 217 469 204 q 457 236 458 229 l 457 531 m 260 779 q 186 762 221 779 q 126 716 151 744 q 85 652 100 688 q 69 581 69 617 l 69 171 q 86 107 69 138 q 128 53 103 76 q 186 15 154 29 q 250 0 218 0 l 897 0 q 961 15 929 0 q 1019 53 993 29 q 1062 107 1046 76 q 1078 171 1078 138 l 1078 581 q 1063 652 1078 617 q 1022 716 1047 688 q 961 762 996 744 q 888 779 926 779 l 260 779 z "},"":{"ha":1147,"x_min":53,"x_max":1160,"o":"m 888 779 q 961 762 926 779 q 1022 716 996 744 q 1063 652 1047 688 q 1078 581 1078 617 l 1078 171 q 1062 107 1078 138 q 1019 53 1046 76 q 961 15 993 29 q 897 0 929 0 l 250 0 q 186 15 218 0 q 128 53 154 29 q 86 107 103 76 q 69 171 69 138 l 69 581 q 85 652 69 617 q 126 716 100 688 q 186 762 151 744 q 260 779 221 779 l 888 779 m 744 869 l 590 869 l 525 957 l 463 869 l 228 869 l 404 1100 l 558 1100 l 624 1013 l 686 1100 l 921 1100 l 744 869 m 457 236 q 464 217 458 229 q 488 204 469 204 l 660 204 q 677 216 668 204 q 690 236 686 228 l 690 531 q 683 558 690 542 q 660 575 675 575 l 485 575 q 464 557 471 572 q 457 531 457 542 l 457 236 m 888 796 l 825 796 l 1015 1043 l 949 1110 l 954 1117 l 679 1117 l 629 1047 l 582 1094 l 565 1117 l 397 1117 l 194 853 l 207 853 l 264 796 l 260 796 q 179 776 217 796 q 113 726 142 757 q 69 658 85 696 q 53 581 53 619 l 53 171 q 78 87 53 126 q 143 19 104 47 l 182 -18 q 247 -64 210 -46 q 319 -82 283 -82 l 967 -82 q 1035 -67 1000 -82 q 1097 -26 1069 -51 q 1142 33 1125 0 q 1160 101 1160 65 l 1160 511 q 1142 591 1160 551 q 1093 661 1124 631 l 1056 699 q 984 768 1028 740 q 888 796 940 796 m 539 461 q 544 480 539 469 q 557 493 549 490 l 674 493 l 674 242 q 667 228 671 235 q 660 221 663 221 l 539 221 l 539 461 m 583 853 l 589 853 l 646 796 l 543 796 l 583 853 z "},"":{"ha":1147,"x_min":53,"x_max":1160,"o":"m 646 878 l 625 894 q 592 833 618 858 q 529 796 567 807 l 754 796 q 693 832 717 807 l 646 878 m 539 221 l 660 221 q 667 228 663 221 q 674 242 671 235 l 674 493 l 557 493 q 544 480 549 490 q 539 461 539 469 l 539 221 m 426 796 q 365 832 389 807 l 318 878 q 274 923 290 896 q 257 985 257 950 q 269 1035 257 1011 q 301 1076 281 1058 q 349 1104 321 1094 q 410 1114 376 1114 q 492 1094 456 1114 q 546 1043 528 1075 l 586 1003 q 635 1083 594 1051 q 738 1114 676 1114 q 819 1094 783 1114 q 874 1043 856 1075 l 921 997 q 956 915 956 963 q 928 840 956 872 q 858 796 901 808 l 888 796 q 984 768 940 796 q 1056 699 1028 740 l 1093 661 q 1142 591 1124 631 q 1160 511 1160 551 l 1160 101 q 1142 33 1160 65 q 1097 -26 1125 0 q 1035 -67 1069 -51 q 967 -82 1000 -82 l 319 -82 q 247 -64 283 -82 q 182 -18 210 -46 l 143 19 q 78 87 104 47 q 53 171 53 126 l 53 581 q 69 658 53 619 q 113 726 85 696 q 179 776 142 757 q 260 796 217 796 l 426 796 m 874 985 q 835 1065 874 1032 q 738 1097 796 1097 q 640 1065 679 1097 q 601 985 601 1032 q 641 903 601 936 q 738 871 681 871 q 834 903 794 871 q 874 985 874 936 m 274 985 q 313 903 274 936 q 410 871 353 871 q 506 903 467 871 q 546 985 546 936 q 507 1065 546 1032 q 410 1097 468 1097 q 313 1065 351 1097 q 274 985 274 1032 m 457 531 q 464 557 457 542 q 485 575 471 572 l 660 575 q 683 558 675 575 q 690 531 690 542 l 690 236 q 677 216 686 228 q 660 204 668 204 l 488 204 q 464 217 469 204 q 457 236 458 229 l 457 531 m 260 779 q 186 762 221 779 q 126 716 151 744 q 85 652 100 688 q 69 581 69 617 l 69 171 q 86 107 69 138 q 128 53 103 76 q 186 15 154 29 q 250 0 218 0 l 897 0 q 961 15 929 0 q 1019 53 993 29 q 1062 107 1046 76 q 1078 171 1078 138 l 1078 581 q 1063 652 1078 617 q 1022 716 1047 688 q 961 762 996 744 q 888 779 926 779 l 260 779 z "},"":{"ha":690,"x_min":53,"x_max":703,"o":"m 222 643 q 259 727 222 693 q 349 761 296 761 q 415 744 385 761 q 460 699 444 726 l 508 651 q 532 617 524 636 q 540 574 540 597 q 515 504 540 533 l 638 504 l 638 496 l 703 431 l 703 207 l 456 207 l 460 199 l 508 151 q 532 117 524 136 q 540 74 540 97 q 505 -8 540 25 q 418 -42 469 -42 q 329 -6 365 -42 l 282 40 q 238 83 254 56 q 222 143 222 110 q 242 207 222 179 l 126 207 l 61 272 l 53 272 l 53 504 l 319 504 l 282 540 q 238 583 254 556 q 222 643 222 610 m 239 143 q 271 70 239 100 q 349 40 303 40 q 426 70 394 40 q 458 143 458 100 q 426 215 458 186 q 349 244 394 244 q 271 215 303 244 q 239 143 239 186 m 239 643 q 271 570 239 600 q 349 540 303 540 q 426 570 394 540 q 458 643 458 600 q 426 715 458 686 q 349 744 394 744 q 271 715 303 744 q 239 643 239 686 m 621 289 l 621 488 l 69 488 l 69 289 l 621 289 z "},"":{"ha":1147,"x_min":53,"x_max":1160,"o":"m 888 796 q 984 768 940 796 q 1056 699 1028 740 l 1093 661 q 1142 591 1124 631 q 1160 511 1160 551 l 1160 101 q 1142 33 1160 65 q 1097 -26 1125 0 q 1035 -67 1069 -51 q 967 -82 1000 -82 l 319 -82 q 247 -64 283 -82 q 182 -18 210 -46 l 143 19 q 78 87 104 47 q 53 171 53 126 l 53 581 q 69 658 53 619 q 113 726 85 696 q 179 776 142 757 q 260 796 217 796 l 888 796 m 457 411 l 457 531 q 464 557 457 542 q 485 575 471 572 l 622 575 l 457 411 m 690 236 q 677 216 686 228 q 660 204 668 204 l 518 204 l 690 367 l 690 236 m 260 779 q 186 762 221 779 q 126 716 151 744 q 85 652 100 688 q 69 581 69 617 l 69 171 q 86 107 69 138 q 128 53 103 76 q 186 15 154 29 q 250 0 218 0 l 897 0 q 961 15 929 0 q 1019 53 993 29 q 1062 107 1046 76 q 1078 171 1078 138 l 1078 581 q 1063 652 1078 617 q 1022 716 1047 688 q 961 762 996 744 q 888 779 926 779 l 260 779 z "},"":{"ha":1147,"x_min":53,"x_max":1160,"o":"m 628 1072 l 678 1024 q 683 1017 682 1019 l 733 949 l 738 944 q 755 919 749 931 q 761 892 761 908 l 761 876 q 758 844 761 857 q 738 815 754 832 q 710 796 722 801 l 1094 796 l 1094 788 l 1160 722 l 1160 101 q 1142 35 1160 68 q 1097 -24 1125 3 q 1034 -66 1068 -50 q 967 -82 1000 -82 l 319 -82 q 247 -65 283 -82 q 182 -19 210 -47 l 140 21 q 78 88 103 49 q 53 171 53 126 l 53 796 l 474 796 l 474 788 l 539 722 l 539 221 l 660 221 q 671 236 665 221 q 672 240 668 236 l 672 785 l 663 785 q 601 810 624 785 l 553 858 q 538 867 544 861 q 525 881 532 874 l 460 957 l 457 960 q 444 978 449 971 q 440 1006 440 986 q 483 1100 440 1058 l 483 1099 q 515 1117 500 1114 q 550 1119 531 1119 q 617 1089 593 1119 l 628 1072 m 689 236 q 680 216 685 228 q 660 204 675 204 l 488 204 q 469 216 476 204 q 457 236 461 228 l 457 779 l 69 779 l 69 171 q 85 107 69 138 q 128 53 101 76 q 186 15 154 29 q 250 0 218 0 l 897 0 q 960 15 928 0 q 1019 54 993 31 q 1061 108 1044 78 q 1078 171 1078 139 l 1078 779 l 689 779 l 689 236 m 604 1079 q 550 1103 585 1103 q 517 1099 532 1103 q 488 1081 503 1096 q 464 1046 471 1065 q 457 1006 457 1026 q 463 981 457 990 q 478 961 468 972 l 538 892 q 593 867 558 867 q 660 894 628 867 q 676 919 674 908 q 679 946 679 931 l 679 961 q 674 985 679 975 q 658 1006 668 994 l 604 1079 z "},"":{"ha":1147,"x_min":53,"x_max":1160,"o":"m 451 961 q 460 992 451 978 q 483 1025 468 1006 l 531 1089 q 597 1119 553 1119 q 631 1117 617 1119 q 664 1099 646 1114 l 664 1100 q 678 1084 671 1092 q 689 1068 685 1076 l 740 1018 q 772 936 772 985 q 768 910 772 918 q 757 893 764 903 l 747 883 l 749 883 l 689 814 q 624 785 664 785 q 549 815 583 785 l 497 865 q 476 882 486 871 q 455 913 458 900 q 451 946 451 926 l 451 961 m 475 796 l 475 788 l 540 722 l 540 221 l 660 221 q 667 228 663 221 q 674 242 671 235 l 674 796 l 1094 796 l 1094 788 l 1160 722 l 1160 101 q 1142 33 1160 65 q 1097 -26 1125 0 q 1035 -67 1069 -51 q 967 -82 1000 -82 l 319 -82 q 247 -64 283 -82 q 183 -18 211 -46 l 143 22 q 78 90 104 50 q 53 171 53 129 l 53 796 l 475 796 m 489 1006 q 474 985 479 994 q 468 961 468 975 l 468 946 q 471 919 468 931 q 488 894 474 908 q 554 867 519 867 q 610 892 589 867 l 669 961 q 685 981 679 972 q 690 1006 690 990 q 683 1046 690 1026 q 660 1081 676 1065 q 630 1099 644 1096 q 597 1103 615 1103 q 543 1079 563 1103 l 489 1006 m 69 779 l 69 171 q 86 108 69 139 q 128 54 103 78 q 186 15 154 31 q 250 0 218 0 l 897 0 q 961 15 929 0 q 1019 53 993 29 q 1062 107 1046 76 q 1078 171 1078 138 l 1078 779 l 690 779 l 690 236 q 678 216 686 228 q 660 204 671 204 l 488 204 q 467 216 472 204 q 458 236 463 228 l 458 779 l 69 779 z "},"":{"ha":1147,"x_min":53,"x_max":1160,"o":"m 540 221 l 660 221 q 667 228 663 221 q 674 242 671 235 l 674 796 l 693 796 l 636 853 l 631 853 l 585 788 l 475 788 l 540 722 l 540 221 m 311 796 l 254 853 l 242 853 l 444 1117 l 704 1117 l 722 1093 l 772 1043 l 958 796 l 1094 796 l 1094 788 l 1160 722 l 1160 101 q 1142 33 1160 65 q 1097 -26 1125 0 q 1035 -67 1069 -51 q 967 -82 1000 -82 l 319 -82 q 247 -64 283 -82 q 183 -18 211 -46 l 143 22 q 78 90 104 50 q 53 171 53 129 l 53 796 l 311 796 m 574 958 l 638 869 l 872 869 l 697 1100 l 451 1100 l 275 869 l 510 869 l 574 958 m 69 779 l 69 171 q 86 108 69 139 q 128 54 103 78 q 186 15 154 31 q 250 0 218 0 l 897 0 q 961 15 929 0 q 1019 53 993 29 q 1062 107 1046 76 q 1078 171 1078 138 l 1078 779 l 690 779 l 690 236 q 678 216 686 228 q 660 204 671 204 l 488 204 q 467 216 472 204 q 458 236 463 228 l 458 779 l 69 779 z "},"":{"ha":1147,"x_min":53,"x_max":1160,"o":"m 540 221 l 660 221 q 667 228 663 221 q 674 242 671 235 l 674 796 l 754 796 q 693 832 717 807 l 646 878 l 625 894 q 576 818 617 847 q 479 789 536 789 l 475 789 l 475 788 l 540 722 l 540 221 m 426 796 q 365 832 389 807 l 318 878 q 274 923 290 896 q 257 985 257 950 q 269 1035 257 1011 q 301 1076 281 1058 q 349 1104 321 1094 q 410 1114 376 1114 q 492 1094 456 1114 q 546 1043 528 1075 l 586 1003 q 635 1083 594 1051 q 738 1114 676 1114 q 819 1094 783 1114 q 874 1043 856 1075 l 921 997 q 956 915 956 963 q 928 840 956 872 q 858 796 901 808 l 1094 796 l 1094 788 l 1160 722 l 1160 101 q 1142 33 1160 65 q 1097 -26 1125 0 q 1035 -67 1069 -51 q 967 -82 1000 -82 l 319 -82 q 247 -64 283 -82 q 183 -18 211 -46 l 143 22 q 78 90 104 50 q 53 171 53 129 l 53 796 l 426 796 m 874 985 q 835 1065 874 1032 q 738 1097 796 1097 q 640 1065 679 1097 q 601 985 601 1032 q 641 903 601 936 q 738 871 681 871 q 834 903 794 871 q 874 985 874 936 m 274 985 q 313 903 274 936 q 410 871 353 871 q 506 903 467 871 q 546 985 546 936 q 507 1065 546 1032 q 410 1097 468 1097 q 313 1065 351 1097 q 274 985 274 1032 m 69 779 l 69 171 q 86 108 69 139 q 128 54 103 78 q 186 15 154 31 q 250 0 218 0 l 897 0 q 961 15 929 0 q 1019 53 993 29 q 1062 107 1046 76 q 1078 171 1078 138 l 1078 779 l 690 779 l 690 236 q 678 216 686 228 q 660 204 671 204 l 488 204 q 467 216 472 204 q 458 236 463 228 l 458 779 l 69 779 z "},"":{"ha":1099,"x_min":53,"x_max":1111,"o":"m 447 961 q 456 992 447 978 q 479 1025 464 1006 l 526 1089 q 593 1119 549 1119 q 627 1117 613 1119 q 660 1099 642 1114 l 660 1100 q 674 1084 667 1092 q 685 1068 681 1076 l 736 1018 q 768 936 768 985 q 764 910 768 918 q 753 893 760 903 l 743 883 l 744 883 l 685 814 q 619 785 660 785 q 544 815 579 785 l 493 865 q 472 882 482 871 q 451 913 454 900 q 447 946 447 926 l 447 961 m 1046 796 l 1046 788 l 1111 722 l 1111 492 l 960 492 q 924 469 947 485 q 879 435 901 454 q 840 393 857 415 q 824 350 824 371 l 824 -82 l 410 -82 l 344 -17 l 336 -17 l 336 389 q 300 454 325 425 q 266 474 283 467 q 234 486 249 482 q 208 491 219 490 q 194 492 197 492 l 126 492 l 61 557 l 53 557 l 53 796 l 383 796 q 478 764 440 796 q 544 697 517 732 l 569 671 q 592 703 578 685 q 624 738 606 721 q 667 772 643 756 q 721 796 692 788 l 1046 796 m 485 1006 q 469 985 475 994 q 464 961 464 975 l 464 946 q 467 919 464 931 q 483 894 469 908 q 550 867 515 867 q 606 892 585 867 l 665 961 q 681 981 675 972 q 686 1006 686 990 q 679 1046 686 1026 q 656 1081 672 1065 q 626 1099 640 1096 q 593 1103 611 1103 q 539 1079 558 1103 l 485 1006 m 725 779 q 659 745 688 768 q 612 699 631 722 q 583 657 593 675 q 571 639 572 639 q 540 676 557 653 q 501 723 524 700 q 450 763 479 746 q 383 779 421 779 l 69 779 l 69 574 l 125 574 q 142 572 129 574 q 173 567 156 571 q 210 553 190 563 q 247 528 229 544 q 309 470 279 499 q 353 394 339 442 l 353 0 l 742 0 l 742 419 q 760 468 742 443 q 802 515 778 493 q 851 552 826 536 q 888 574 875 568 l 1029 574 l 1029 779 l 725 779 z "},"":{"ha":1147,"x_min":53,"x_max":1160,"o":"m 674 431 q 674 431 674 431 q 672 432 674 432 l 653 453 l 674 431 m 540 333 l 640 333 q 667 351 657 333 q 681 388 678 369 l 540 388 l 540 333 m 53 796 l 475 796 l 475 788 l 540 722 l 540 690 l 868 690 q 967 665 926 690 q 1035 600 1008 639 l 1071 564 l 1067 568 l 1075 561 q 1114 509 1097 538 q 1140 449 1131 481 q 1155 388 1150 418 q 1160 333 1160 358 q 1148 225 1160 279 q 1110 128 1136 171 q 1042 58 1085 85 q 939 31 1000 31 l 540 31 l 540 -82 l 126 -82 l 61 -17 l 53 -17 l 53 796 m 649 469 q 671 461 661 469 q 686 441 681 453 q 694 417 692 429 q 697 394 697 404 q 693 369 697 383 q 682 344 689 356 q 665 324 675 332 q 640 317 654 317 l 458 317 l 458 469 l 649 469 m 69 0 l 458 0 l 458 113 l 869 113 q 967 138 928 113 q 1031 205 1007 164 q 1067 298 1056 246 q 1078 403 1078 350 q 1067 488 1078 440 q 1032 576 1057 535 q 967 645 1007 617 q 868 674 926 674 l 458 674 l 458 779 l 69 779 l 69 0 z "},"":{"ha":1099,"x_min":53,"x_max":1111,"o":"m 724 796 q 663 832 686 807 l 615 878 l 594 894 q 546 818 586 847 q 449 789 506 789 q 436 789 442 789 q 425 790 431 789 q 494 752 465 779 q 544 697 522 725 l 569 671 q 592 703 578 685 q 624 738 606 721 q 667 772 643 756 q 721 796 692 788 l 724 796 m 226 985 q 238 1035 226 1011 q 270 1076 250 1058 q 318 1104 290 1094 q 379 1114 346 1114 q 461 1094 425 1114 q 515 1043 497 1075 l 556 1003 q 605 1083 564 1051 q 707 1114 646 1114 q 789 1094 753 1114 q 843 1043 825 1075 l 890 997 q 925 915 925 963 q 898 840 925 872 q 828 796 871 808 l 1046 796 l 1046 788 l 1111 722 l 1111 492 l 960 492 q 924 469 947 485 q 879 435 901 454 q 840 393 857 415 q 824 350 824 371 l 824 -82 l 410 -82 l 344 -17 l 336 -17 l 336 389 q 300 454 325 425 q 266 474 283 467 q 234 486 249 482 q 208 491 219 490 q 194 492 197 492 l 126 492 l 61 557 l 53 557 l 53 796 l 383 796 q 394 795 389 796 q 403 794 399 794 q 365 809 383 800 q 335 832 347 818 l 288 878 q 243 923 260 896 q 226 985 226 950 m 843 985 q 804 1065 843 1032 q 707 1097 765 1097 q 610 1065 649 1097 q 571 985 571 1032 q 610 903 571 936 q 707 871 650 871 q 803 903 764 871 q 843 985 843 936 m 243 985 q 283 903 243 936 q 379 871 322 871 q 476 903 436 871 q 515 985 515 936 q 476 1065 515 1032 q 379 1097 438 1097 q 282 1065 321 1097 q 243 985 243 1032 m 725 779 q 659 745 688 768 q 612 699 631 722 q 583 657 593 675 q 571 639 572 639 q 540 676 557 653 q 501 723 524 700 q 450 763 479 746 q 383 779 421 779 l 69 779 l 69 574 l 125 574 q 142 572 129 574 q 173 567 156 571 q 210 553 190 563 q 247 528 229 544 q 309 470 279 499 q 353 394 339 442 l 353 0 l 742 0 l 742 419 q 760 468 742 443 q 802 515 778 493 q 851 552 826 536 q 888 574 875 568 l 1029 574 l 1029 779 l 725 779 z "}}}
